<?xml version="1.0" encoding="utf-8"?><!-- Generator: Iparigrafika Gear Generator by Abel Vincze http://geargenerator.com/ --><svg version="1.2" class="svggear" xmlns="http://www.w3.org/2000/svg" xmlns:xlink="http://www.w3.org/1999/xlink" x="0px" y="0px" width="534px" height="534px" viewBox="-267 -267 534 534" overflow="scroll" xml:space="preserve"><polygon id="gearpoly0" data-id="0" class="gear" fill="#ddd" stroke="#444" stroke-width="1" stroke-miterlimit="10" points="230.8333,0 234.9589,-0.0004 235.0225,-0.0019 235.1179,-0.0053 235.245,-0.0112 235.4037,-0.0205 235.5941,-0.0339 235.816,-0.052 236.0693,-0.0757 236.354,-0.1056 236.6699,-0.1426 237.0169,-0.1873 237.3948,-0.2404 237.8036,-0.3028 238.2429,-0.375 238.7127,-0.4579 239.2128,-0.5521 239.743,-0.6584 240.3029,-0.7774 240.8925,-0.91 241.5115,-1.0567 242.1595,-1.2183 242.8364,-1.3955 243.5419,-1.589 244.2756,-1.7994 245.0373,-2.0275 245.8267,-2.2739 246.6434,-2.5393 247.4871,-2.8243 248.3574,-3.1297 249.254,-3.4561 250.1765,-3.8041 251.1245,-4.1744 252.0977,-4.5676 253.0955,-4.9843 254.1176,-5.4253 255.1636,-5.891 256.233,-6.3821 257.3253,-6.8993 258.4402,-7.4431 259.577,-8.0141 260.7354,-8.6128 261.9149,-9.24 263.1149,-9.8961 264.3348,-10.5817 265.5743,-11.2973 266.3955,-12.0238 265.6501,-23.2623 264.7402,-23.874 263.4171,-24.4197 262.1172,-24.9382 260.8411,-25.43 259.5892,-25.8959 258.3619,-26.3365 257.1596,-26.7523 255.9827,-27.1441 254.8316,-27.5125 253.7067,-27.8581 252.6084,-28.1816 251.537,-28.4837 250.4928,-28.7651 249.4763,-29.0263 248.4877,-29.2682 247.5273,-29.4913 246.5955,-29.6964 245.6924,-29.8842 244.8185,-30.0553 243.9739,-30.2105 243.1589,-30.3505 242.3738,-30.476 241.6186,-30.5877 240.8938,-30.6863 240.1994,-30.7725 239.5357,-30.8471 238.9028,-30.9108 238.3009,-30.9644 237.7301,-31.0084 237.1906,-31.0438 236.6824,-31.0711 236.2058,-31.0912 235.7607,-31.1048 235.3473,-31.1126 234.9657,-31.1154 234.6158,-31.1139 234.2978,-31.1088 234.0117,-31.1009 233.7574,-31.0909 233.5351,-31.0796 233.3446,-31.0676 233.186,-31.0559 233.0593,-31.045 232.9643,-31.0357 232.9011,-31.0288 228.8116,-30.4844 225.7891,-47.9929 229.8244,-48.8511 229.8863,-48.8658 229.9789,-48.8889 230.102,-48.9212 230.2553,-48.9633 230.4387,-49.0159 230.652,-49.0798 230.8949,-49.1556 231.1671,-49.2441 231.4684,-49.3459 231.7985,-49.4618 232.1572,-49.5923 232.544,-49.7383 232.9588,-49.9003 233.4011,-50.079 233.8707,-50.2752 234.3671,-50.4894 234.8901,-50.7222 235.4392,-50.9745 236.0142,-51.2467 236.6145,-51.5395 237.2397,-51.8535 237.8896,-52.1895 238.5635,-52.5478 239.2612,-52.9293 239.982,-53.3344 240.7257,-53.7638 241.4917,-54.2181 242.2795,-54.6977 243.0887,-55.2034 243.9186,-55.7356 244.769,-56.2949 245.6391,-56.8818 246.5284,-57.4969 247.4366,-58.1407 248.3629,-58.8137 249.3068,-59.5165 250.2677,-60.2495 251.2451,-61.0132 252.2385,-61.808 253.247,-62.6346 254.2703,-63.4933 255.3076,-64.3845 256.3584,-65.3087 257.422,-66.2664 258.0742,-67.1478 255.0085,-77.9857 253.9913,-78.3949 252.5836,-78.6536 251.2044,-78.8904 249.8539,-79.1062 248.5325,-79.3017 247.2404,-79.4774 245.9779,-79.6342 244.7452,-79.7728 243.5427,-79.8938 242.3706,-79.9979 241.229,-80.086 240.1182,-80.1588 239.0384,-80.2169 237.9897,-80.2611 236.9725,-80.2921 235.9867,-80.3106 235.0325,-80.3175 234.1102,-80.3134 233.2198,-80.2991 232.3614,-80.2754 231.5351,-80.2429 230.741,-80.2023 229.9792,-80.1546 229.2497,-80.1003 228.5525,-80.0403 227.8878,-79.9753 227.2555,-79.906 226.6556,-79.8332 226.0881,-79.7577 225.553,-79.6801 225.0503,-79.6012 224.5799,-79.5217 224.1417,-79.4425 223.7357,-79.3642 223.3619,-79.2875 223.02,-79.2133 222.71,-79.1422 222.4317,-79.075 222.1851,-79.0124 221.97,-78.9551 221.7862,-78.9038 221.6335,-78.8593 221.5118,-78.8223 221.4208,-78.7935 221.3604,-78.7736 217.4734,-77.3908 210.8767,-93.8884 214.6455,-95.5668 214.703,-95.594 214.7887,-95.6359 214.9024,-95.693 215.0437,-95.7661 215.2121,-95.8557 215.4075,-95.9625 215.6293,-96.0872 215.8771,-96.2303 216.1507,-96.3926 216.4495,-96.5745 216.7732,-96.7768 217.1212,-97 217.4932,-97.2447 217.8887,-97.5115 218.3072,-97.801 218.7483,-98.1137 219.2114,-98.4502 219.6961,-98.8111 220.2019,-99.1969 220.7282,-99.6081 221.2745,-100.0453 221.8403,-100.509 222.425,-100.9997 223.0281,-101.5179 223.649,-102.064 224.2872,-102.6386 224.942,-103.2422 225.6128,-103.8752 226.2992,-104.538 227.0004,-105.2312 227.7158,-105.955 228.4449,-106.71 229.1869,-107.4966 229.9413,-108.3152 230.7075,-109.1661 231.4846,-110.0497 232.2722,-110.9665 233.0695,-111.9167 233.8758,-112.9007 234.6905,-113.9189 235.5129,-114.9715 236.3423,-116.059 237.1779,-117.1815 238.0192,-118.3394 238.4738,-119.3371 233.2218,-129.3008 232.1418,-129.4895 230.7111,-129.4499 229.3127,-129.3948 227.9469,-129.3251 226.6137,-129.2416 225.3133,-129.1448 224.0458,-129.0357 222.8113,-128.9149 221.6099,-128.7833 220.4417,-128.6415 219.3067,-128.4903 218.2051,-128.3305 217.1368,-128.1628 216.1019,-127.988 215.1004,-127.8068 214.1323,-127.6201 213.1976,-127.4284 212.2962,-127.2327 211.4282,-127.0335 210.5935,-126.8318 209.7921,-126.6282 209.0237,-126.4235 208.2885,-126.2184 207.5862,-126.0137 206.9168,-125.81 206.2801,-125.6082 205.676,-125.409 205.1044,-125.213 204.565,-125.0211 204.0577,-124.834 203.5824,-124.6523 203.1388,-124.4768 202.7267,-124.3082 202.3458,-124.1472 201.9961,-123.9945 201.6771,-123.8508 201.3886,-123.7168 201.1304,-123.5932 200.9022,-123.4806 200.7037,-123.3799 200.5346,-123.2915 200.3945,-123.2163 200.2831,-123.1548 200.2001,-123.1077 200.1452,-123.0756 196.6306,-120.9149 186.7481,-135.6804 190.0855,-138.1057 190.1361,-138.1443 190.2113,-138.2031 190.3106,-138.2826 190.4335,-138.3834 190.5797,-138.5061 190.7486,-138.6512 190.9396,-138.8193 191.1523,-139.0108 191.3861,-139.2264 191.6406,-139.4665 191.9151,-139.7317 192.2092,-140.0224 192.5222,-140.3391 192.8535,-140.6823 193.2027,-141.0524 193.5691,-141.45 193.9522,-141.8755 194.3513,-142.3293 194.7658,-142.8118 195.1951,-143.3234 195.6385,-143.8647 196.0956,-144.4358 196.5655,-145.0374 197.0477,-145.6696 197.5414,-146.3329 198.0462,-147.0277 198.5612,-147.7542 199.0858,-148.5128 199.6193,-149.3039 200.1611,-150.1276 200.7104,-150.9844 201.2665,-151.8745 201.8288,-152.7982 202.3966,-153.7557 202.969,-154.7473 203.5455,-155.7732 204.1253,-156.8337 204.7076,-157.9289 205.2917,-159.0591 205.8769,-160.2244 206.4625,-161.425 207.0476,-162.6611 207.6316,-163.9329 208.2137,-165.2404 208.451,-166.3108 201.2422,-174.9648 200.1465,-174.9249 198.7554,-174.5886 197.399,-174.244 196.0775,-173.8919 194.7908,-173.533 193.5389,-173.168 192.3218,-172.7977 191.1394,-172.4229 189.9916,-172.0443 188.8784,-171.6628 187.7997,-171.2789 186.7554,-170.8935 185.7453,-170.5074 184.7693,-170.1213 183.8274,-169.7358 182.9193,-169.3519 182.0448,-168.9701 181.2039,-168.5912 180.3963,-168.216 179.6217,-167.8451 178.8801,-167.4793 178.1712,-167.1193 177.4946,-166.7658 176.8502,-166.4196 176.2378,-166.0812 175.657,-165.7514 175.1075,-165.4309 174.5891,-165.1204 174.1014,-164.8206 173.6441,-164.532 173.217,-164.2555 172.8195,-163.9916 172.4515,-163.741 172.1124,-163.5043 171.8021,-163.2822 171.5199,-163.0754 171.2656,-162.8843 171.0388,-162.7097 170.839,-162.5522 170.6657,-162.4124 170.5187,-162.2908 170.3973,-162.188 170.3011,-162.1047 170.2297,-162.0414 170.1826,-161.9987 167.1942,-159.1545 154.4576,-171.5426 157.2179,-174.6088 157.2593,-174.6571 157.3206,-174.7302 157.4013,-174.8286 157.5006,-174.9528 157.618,-175.1032 157.753,-175.2802 157.905,-175.4843 158.0732,-175.7159 158.2571,-175.9754 158.4561,-176.2632 158.6695,-176.5796 158.8966,-176.9251 159.137,-177.2999 159.3897,-177.7045 159.6543,-178.1392 159.9301,-178.6043 160.2163,-179.1001 160.5123,-179.6269 160.8174,-180.1851 161.131,-180.7748 161.4522,-181.3964 161.7805,-182.0501 162.1151,-182.7362 162.4553,-183.4549 162.8004,-184.2064 163.1496,-184.9909 163.5023,-185.8086 163.8577,-186.6597 164.2151,-187.5444 164.5738,-188.4628 164.933,-189.4151 165.2919,-190.4014 165.6499,-191.4218 166.0061,-192.4764 166.3599,-193.5653 166.7105,-194.6887 167.0571,-195.8465 167.399,-197.0389 167.7353,-198.2658 168.0655,-199.5273 168.3886,-200.8235 168.704,-202.1542 169.0108,-203.5196 169.3083,-204.9195 169.3179,-206.0159 160.4673,-212.982 159.4039,-212.7151 158.1131,-212.097 156.858,-211.478 155.6386,-210.8588 154.4547,-210.2401 153.306,-209.6228 152.1925,-209.0076 151.1138,-208.3952 150.0698,-207.7862 149.0603,-207.1815 148.0849,-206.5818 147.1435,-205.9877 146.2358,-205.4 145.3615,-204.8194 144.5202,-204.2466 143.7118,-203.6822 142.9359,-203.1269 142.1921,-202.5815 141.4801,-202.0465 140.7996,-201.5227 140.1503,-201.0107 139.5316,-200.5112 138.9434,-200.0248 138.3851,-199.5521 137.8564,-199.0938 137.3568,-198.6505 136.886,-198.2228 136.4434,-197.8113 136.0287,-197.4166 135.6415,-197.0393 135.2811,-196.68 134.9472,-196.3392 134.6393,-196.0175 134.3569,-195.7155 134.0995,-195.4338 133.8665,-195.1728 133.6575,-194.933 133.4719,-194.7151 133.3092,-194.5195 133.1689,-194.3467 133.0503,-194.1972 132.9529,-194.0714 132.8762,-193.9699 132.8195,-193.8932 132.7823,-193.8416 130.4505,-190.4382 115.4167,-199.9075 117.4791,-203.4806 117.5096,-203.5364 117.5544,-203.6207 117.6127,-203.7337 117.6841,-203.8759 117.7677,-204.0474 117.863,-204.2486 117.9691,-204.4799 118.0855,-204.7414 118.2115,-205.0334 118.3463,-205.3563 118.4892,-205.7101 118.6396,-206.0953 118.7967,-206.5119 118.9598,-206.9602 119.1283,-207.4404 119.3013,-207.9527 119.4782,-208.4972 119.6582,-209.074 119.8406,-209.6834 120.0247,-210.3255 120.2097,-211.0003 120.3949,-211.7079 120.5795,-212.4486 120.7628,-213.2223 120.9441,-214.0291 121.1226,-214.8691 121.2976,-215.7423 121.4683,-216.6487 121.634,-217.5883 121.7938,-218.5613 121.9472,-219.5674 122.0932,-220.6068 122.2312,-221.6793 122.3604,-222.7849 122.4801,-223.9236 122.5894,-225.0953 122.6877,-226.2999 122.7742,-227.5373 122.8481,-228.8074 122.9088,-230.1099 122.9554,-231.4449 122.9872,-232.8122 123.0034,-234.2115 123.0034,-235.6427 122.7848,-236.7171 112.6793,-241.6909 111.6946,-241.2087 110.5605,-240.3357 109.4615,-239.4693 108.3975,-238.6101 107.3681,-237.7588 106.3729,-236.9162 105.4116,-236.0829 104.4838,-235.2596 103.5893,-234.4469 102.7275,-233.6455 101.8982,-232.8561 101.1008,-232.0793 100.3351,-231.3157 99.6006,-230.566 98.8969,-229.8307 98.2235,-229.1106 97.5799,-228.4061 96.9658,-227.718 96.3806,-227.0467 95.8239,-226.3929 95.2952,-225.757 94.7939,-225.1398 94.3196,-224.5417 93.8718,-223.9633 93.4499,-223.4051 93.0535,-222.8676 92.6818,-222.3513 92.3345,-221.8568 92.011,-221.3845 91.7106,-220.9349 91.4328,-220.5085 91.1771,-220.1058 90.9428,-219.7272 90.7293,-219.3731 90.5361,-219.0439 90.3625,-218.7402 90.2079,-218.4622 90.0717,-218.2105 89.9532,-217.9853 89.8519,-217.7871 89.7669,-217.6162 89.6978,-217.473 89.6439,-217.3577 89.6044,-217.2709 89.5788,-217.2127 88.0055,-213.3988 71.3314,-219.5355 72.6059,-223.4594 72.6241,-223.5203 72.6504,-223.612 72.684,-223.7347 72.7242,-223.8886 72.7704,-224.0737 72.8217,-224.2904 72.8775,-224.5386 72.9369,-224.8186 72.9994,-225.1305 73.0641,-225.4743 73.1304,-225.8502 73.1974,-226.2582 73.2645,-226.6984 73.3308,-227.1708 73.3958,-227.6755 73.4585,-228.2126 73.5183,-228.7819 73.5744,-229.3836 73.6262,-230.0176 73.6727,-230.6839 73.7134,-231.3824 73.7474,-232.1131 73.774,-232.876 73.7925,-233.6709 73.8021,-234.4978 73.802,-235.3565 73.7916,-236.247 73.7701,-237.1691 73.7368,-238.1226 73.6909,-239.1075 73.6317,-240.1236 73.5585,-241.1706 73.4704,-242.2484 73.3669,-243.3567 73.2472,-244.4954 73.1106,-245.6642 72.9563,-246.8629 72.7836,-248.0913 72.5919,-249.3489 72.3804,-250.6357 72.1484,-251.9512 71.8952,-253.2952 71.6202,-254.6673 71.3226,-256.0672 70.8854,-257.0727 59.9666,-259.8367 59.1037,-259.1604 58.1758,-258.0706 57.2811,-256.9946 56.4189,-255.933 55.589,-254.8863 54.7907,-253.8552 54.0237,-252.8402 53.2874,-251.842 52.5813,-250.8611 51.905,-249.898 51.2579,-248.9534 50.6396,-248.0278 50.0493,-247.1217 49.4868,-246.2357 48.9513,-245.3702 48.4423,-244.5258 47.9593,-243.7029 47.5016,-242.9021 47.0688,-242.1238 46.6602,-241.3685 46.2752,-240.6367 45.9132,-239.9287 45.5737,-239.2451 45.2559,-238.5862 44.9593,-237.9525 44.6832,-237.3443 44.4271,-236.762 44.1902,-236.2061 43.9719,-235.6769 43.7715,-235.1747 43.5885,-234.6999 43.4221,-234.2528 43.2716,-233.8337 43.1365,-233.4429 43.0159,-233.0808 42.9092,-232.7476 42.8158,-232.4436 42.7349,-232.169 42.6658,-231.9241 42.6079,-231.7092 42.5604,-231.5244 42.5226,-231.3699 42.4937,-231.246 42.4732,-231.1528 42.4602,-231.0905 41.7143,-227.0329 24.1287,-229.5688 24.5595,-233.6718 24.5646,-233.7352 24.5713,-233.8304 24.5786,-233.9574 24.586,-234.1163 24.5926,-234.307 24.5978,-234.5296 24.6007,-234.784 24.6007,-235.0703 24.5969,-235.3883 24.5888,-235.738 24.5754,-236.1195 24.5561,-236.5325 24.5302,-236.977 24.4969,-237.4529 24.4555,-237.9601 24.4052,-238.4984 24.3453,-239.0678 24.2751,-239.668 24.1939,-240.2989 24.1009,-240.9603 23.9955,-241.652 23.8768,-242.3738 23.7442,-243.1256 23.597,-243.9069 23.4345,-244.7177 23.2559,-245.5577 23.0606,-246.4266 22.8479,-247.324 22.617,-248.2498 22.3673,-249.2037 22.0982,-250.1852 21.8088,-251.1941 21.4987,-252.23 21.167,-253.2926 20.8131,-254.3816 20.4365,-255.4964 20.0363,-256.6369 19.6121,-257.8024 19.163,-258.9928 18.6886,-260.2074 18.1882,-261.4459 17.6611,-262.7079 17.1068,-263.9929 16.5246,-265.3003 15.888,-266.1929 4.6331,-266.6264 3.9297,-265.7854 3.2487,-264.5266 2.5972,-263.2881 1.9746,-262.0704 1.3804,-260.874 0.814,-259.6995 0.2747,-258.5472 -0.238,-257.4177 -0.7246,-256.3114 -1.1859,-255.2288 -1.6225,-254.1703 -2.0349,-253.1364 -2.4239,-252.1274 -2.7899,-251.1437 -3.1338,-250.1858 -3.4561,-249.254 -3.7575,-248.3487 -4.0386,-247.4703 -4.3001,-246.619 -4.5428,-245.7953 -4.7672,-244.9994 -4.9741,-244.2316 -5.1641,-243.4923 -5.3379,-242.7818 -5.4963,-242.1002 -5.6399,-241.4479 -5.7694,-240.8251 -5.8855,-240.2321 -5.989,-239.669 -6.0805,-239.1362 -6.1609,-238.6337 -6.2307,-238.1617 -6.2907,-237.7205 -6.3417,-237.3102 -6.3843,-236.9309 -6.4194,-236.5828 -6.4476,-236.266 -6.4696,-235.9807 -6.4863,-235.7268 -6.4982,-235.5044 -6.5063,-235.3138 -6.5112,-235.1548 -6.5136,-235.0276 -6.5143,-234.9322 -6.5141,-234.8686 -6.4001,-230.7446 -24.1287,-229.5688 -24.5603,-233.6718 -24.5685,-233.7348 -24.5818,-233.8293 -24.601,-233.9551 -24.6268,-234.112 -24.66,-234.2999 -24.7012,-234.5187 -24.7512,-234.7682 -24.8108,-235.0482 -24.8805,-235.3585 -24.9613,-235.6989 -25.0536,-236.0692 -25.1583,-236.4692 -25.2761,-236.8986 -25.4076,-237.3572 -25.5536,-237.8447 -25.7147,-238.3608 -25.8917,-238.9053 -26.0851,-239.4778 -26.2957,-240.078 -26.5242,-240.7056 -26.7712,-241.3603 -27.0373,-242.0417 -27.3233,-242.7494 -27.6297,-243.4831 -27.9573,-244.2424 -28.3066,-245.0268 -28.6783,-245.8361 -29.073,-246.6697 -29.4913,-247.5273 -29.9338,-248.4084 -30.4012,-249.3125 -30.8939,-250.2392 -31.4127,-251.188 -31.9581,-252.1584 -32.5306,-253.15 -33.1308,-254.1622 -33.7593,-255.1945 -34.4167,-256.2464 -35.1034,-257.3174 -35.8199,-258.4068 -36.5669,-259.5142 -37.3449,-260.6391 -38.1542,-261.7807 -38.9955,-262.9386 -39.8039,-263.6793 -50.9029,-261.7633 -51.4161,-260.7944 -51.8205,-259.4215 -52.2003,-258.0746 -52.556,-256.7541 -52.8885,-255.4603 -53.1984,-254.1936 -53.4863,-252.9544 -53.7529,-251.743 -53.9989,-250.5597 -54.2251,-249.4049 -54.432,-248.2788 -54.6205,-247.1817 -54.7911,-246.1138 -54.9447,-245.0756 -55.0819,-244.0671 -55.2034,-243.0887 -55.3099,-242.1405 -55.4023,-241.2228 -55.4812,-240.3357 -55.5472,-239.4795 -55.6013,-238.6544 -55.644,-237.8604 -55.6761,-237.0978 -55.6984,-236.3666 -55.7116,-235.667 -55.7165,-234.9991 -55.7136,-234.363 -55.704,-233.7588 -55.6881,-233.1865 -55.6669,-232.6463 -55.641,-232.138 -55.6111,-231.6619 -55.5781,-231.2178 -55.5427,-230.8059 -55.5055,-230.4261 -55.4674,-230.0783 -55.4291,-229.7625 -55.3914,-229.4788 -55.3549,-229.227 -55.3204,-229.007 -55.2886,-228.8189 -55.2603,-228.6624 -55.2362,-228.5375 -55.2171,-228.444 -55.2036,-228.3818 -54.2347,-224.3716 -71.3314,-219.5355 -72.6067,-223.4591 -72.6278,-223.5191 -72.6605,-223.6088 -72.7054,-223.7278 -72.7633,-223.8759 -72.8348,-224.0528 -72.9206,-224.2582 -73.0214,-224.4919 -73.1379,-224.7534 -73.2706,-225.0424 -73.4203,-225.3586 -73.5877,-225.7016 -73.7733,-226.0711 -73.9778,-226.4666 -74.2018,-226.8878 -74.4459,-227.3343 -74.7108,-227.8057 -74.9971,-228.3014 -75.3053,-228.8212 -75.6361,-229.3645 -75.9901,-229.9309 -76.3678,-230.5199 -76.7698,-231.1311 -77.1967,-231.7639 -77.6489,-232.4178 -78.1272,-233.0924 -78.632,-233.7871 -79.1638,-234.5015 -79.7232,-235.2348 -80.3106,-235.9867 -80.9267,-236.7565 -81.5718,-237.5437 -82.2465,-238.3477 -82.9512,-239.1679 -83.6864,-240.0037 -84.4525,-240.8546 -85.2501,-241.7199 -86.0795,-242.5989 -86.9412,-243.4912 -87.8356,-244.396 -88.763,-245.3126 -89.7239,-246.2405 -90.7187,-247.179 -91.7477,-248.1274 -92.8114,-249.0851 -93.7561,-249.6416 -104.2142,-245.4598 -104.5147,-244.4054 -104.6249,-242.9784 -104.7163,-241.582 -104.7897,-240.2163 -104.846,-238.8817 -104.8857,-237.5783 -104.9097,-236.3063 -104.9186,-235.066 -104.9132,-233.8574 -104.8943,-232.6808 -104.8626,-231.5362 -104.8188,-230.4239 -104.7637,-229.344 -104.6981,-228.2964 -104.6226,-227.2815 -104.538,-226.2992 -104.4451,-225.3495 -104.3447,-224.4327 -104.2374,-223.5486 -104.124,-222.6974 -104.0053,-221.8791 -103.882,-221.0935 -103.7549,-220.3409 -103.6247,-219.621 -103.4921,-218.934 -103.358,-218.2797 -103.223,-217.6581 -103.0879,-217.0691 -102.9534,-216.5126 -102.8203,-215.9886 -102.6893,-215.4969 -102.5611,-215.0373 -102.4365,-214.6098 -102.3162,-214.2143 -102.2009,-213.8504 -102.0913,-213.5182 -101.9882,-213.2173 -101.8923,-212.9476 -101.8042,-212.7089 -101.7247,-212.5009 -101.6545,-212.3235 -101.5943,-212.1763 -101.5448,-212.0591 -101.5067,-211.9717 -101.4806,-211.9137 -99.699,-208.1925 -115.4167,-199.9075 -117.4798,-203.4802 -117.5129,-203.5345 -117.5635,-203.6154 -117.6322,-203.7225 -117.7196,-203.8553 -117.8264,-204.0135 -117.953,-204.1966 -118.1002,-204.4042 -118.2685,-204.6357 -118.4584,-204.8908 -118.6706,-205.169 -118.9056,-205.4697 -119.164,-205.7925 -119.4462,-206.1369 -119.7529,-206.5024 -120.0845,-206.8883 -120.4417,-207.2943 -120.8247,-207.7197 -121.2343,-208.1641 -121.6709,-208.6267 -122.1348,-209.1071 -122.6268,-209.6048 -123.147,-210.119 -123.6961,-210.6492 -124.2745,-211.1948 -124.8826,-211.7552 -125.5208,-212.3298 -126.1895,-212.918 -126.8891,-213.519 -127.6201,-214.1323 -128.3827,-214.7572 -129.1774,-215.393 -130.0045,-216.0392 -130.8643,-216.695 -131.7572,-217.3597 -132.6835,-218.0327 -133.6436,-218.7132 -134.6376,-219.4006 -135.666,-220.0942 -136.7289,-220.7933 -137.8267,-221.4971 -138.9595,-222.2049 -140.1277,-222.9161 -141.3314,-223.6298 -142.5709,-224.3454 -143.6107,-224.6933 -152.9708,-218.4286 -153.0456,-217.3347 -152.8566,-215.916 -152.6557,-214.5311 -152.4436,-213.18 -152.2211,-211.8629 -151.989,-210.5797 -151.748,-209.3305 -151.4988,-208.1154 -151.2423,-206.9344 -150.9792,-205.7874 -150.7102,-204.6744 -150.4361,-203.5955 -150.1577,-202.5506 -149.8757,-201.5397 -149.5908,-200.5626 -149.3039,-199.6193 -149.0156,-198.7098 -148.7267,-197.8338 -148.4379,-196.9914 -148.15,-196.1823 -147.8638,-195.4065 -147.5799,-194.6638 -147.299,-193.9541 -147.022,-193.277 -146.7495,-192.6326 -146.4823,-192.0204 -146.221,-191.4405 -145.9664,-190.8924 -145.7191,-190.3761 -145.48,-189.8912 -145.2496,-189.4374 -145.0287,-189.0146 -144.8179,-188.6224 -144.618,-188.2604 -144.4295,-187.9285 -144.2533,-187.6263 -144.0899,-187.3535 -143.94,-187.1096 -143.8042,-186.8944 -143.6832,-186.7075 -143.5777,-186.5485 -143.4882,-186.4171 -143.4154,-186.3128 -143.3599,-186.2351 -143.3223,-186.1838 -140.806,-182.9144 -154.4576,-171.5426 -157.2185,-174.6082 -157.2622,-174.6545 -157.3285,-174.7231 -157.418,-174.8136 -157.5311,-174.9253 -157.6684,-175.0579 -157.8303,-175.2106 -158.0174,-175.383 -158.2302,-175.5746 -158.469,-175.7846 -158.7344,-176.0125 -159.0268,-176.2579 -159.3466,-176.5199 -159.6943,-176.7981 -160.0703,-177.0918 -160.4749,-177.4003 -160.9086,-177.7232 -161.3718,-178.0597 -161.8648,-178.4091 -162.388,-178.7709 -162.9417,-179.1444 -163.5263,-179.5289 -164.1422,-179.9237 -164.7895,-180.3281 -165.4687,-180.7416 -166.18,-181.1633 -166.9237,-181.5927 -167.7001,-182.0289 -168.5094,-182.4713 -169.3519,-182.9193 -170.2277,-183.372 -171.1373,-183.8287 -172.0806,-184.2888 -173.058,-184.7514 -174.0696,-185.216 -175.1156,-185.6817 -176.1962,-186.1477 -177.3114,-186.6135 -178.4615,-187.0781 -179.6466,-187.5409 -180.8667,-188.0011 -182.1219,-188.4579 -183.4124,-188.9107 -184.7382,-189.3585 -186.0994,-189.8008 -187.1888,-189.9249 -195.0419,-181.851 -194.8876,-180.7655 -194.4078,-179.4171 -193.9233,-178.1042 -193.435,-176.8267 -192.9435,-175.5846 -192.4497,-174.3777 -191.9542,-173.206 -191.4579,-172.0692 -190.9614,-170.9673 -190.4655,-169.9001 -189.971,-168.8674 -189.4786,-167.8691 -188.989,-166.9049 -188.503,-165.9746 -188.0212,-165.0781 -187.5444,-164.2151 -187.0733,-163.3854 -186.6086,-162.5887 -186.151,-161.8247 -185.7012,-161.0932 -185.2599,-160.3938 -184.8278,-159.7264 -184.4055,-159.0905 -183.9938,-158.4859 -183.5932,-157.9121 -183.2046,-157.369 -182.8284,-156.856 -182.4654,-156.3729 -182.1162,-155.9192 -181.7815,-155.4946 -181.4618,-155.0987 -181.1578,-154.731 -180.8701,-154.3912 -180.5993,-154.0787 -180.346,-153.7933 -180.1107,-153.5343 -179.8941,-153.3014 -179.6968,-153.094 -179.5193,-152.9118 -179.3621,-152.7541 -179.2258,-152.6205 -179.1109,-152.5106 -179.018,-152.4236 -178.9476,-152.3593 -178.9002,-152.3169 -175.7591,-149.6421 -186.7481,-135.6804 -190.086,-138.1051 -190.1383,-138.1412 -190.2175,-138.1945 -190.3238,-138.2644 -190.4577,-138.3502 -190.6195,-138.4513 -190.8097,-138.5671 -191.0286,-138.6968 -191.2765,-138.8399 -191.5538,-138.9957 -191.8608,-139.1635 -192.1978,-139.3427 -192.5651,-139.5325 -192.963,-139.7323 -193.3918,-139.9414 -193.8518,-140.1591 -194.3431,-140.3847 -194.8661,-140.6176 -195.421,-140.8569 -196.008,-141.102 -196.6273,-141.3522 -197.279,-141.6067 -197.9635,-141.8648 -198.6808,-142.1259 -199.4311,-142.3891 -200.2145,-142.6537 -201.0313,-142.9191 -201.8814,-143.1843 -202.765,-143.4488 -203.6822,-143.7118 -204.633,-143.9725 -205.6176,-144.2302 -206.636,-144.484 -207.6883,-144.7334 -208.7744,-144.9775 -209.8943,-145.2155 -211.0482,-145.4467 -212.2359,-145.6704 -213.4574,-145.8858 -214.7128,-146.092 -216.0019,-146.2885 -217.3247,-146.4744 -218.6812,-146.6489 -220.0711,-146.8114 -221.4945,-146.9609 -222.5859,-146.8558 -228.5887,-137.3256 -228.2121,-136.2959 -227.4624,-135.0767 -226.7156,-133.8933 -225.9723,-132.7452 -225.2333,-131.6325 -224.4994,-130.5546 -223.7711,-129.5115 -223.0492,-128.5028 -222.3345,-127.5282 -221.6276,-126.5874 -220.9292,-125.68 -220.24,-124.8059 -219.5606,-123.9646 -218.8918,-123.1557 -218.2342,-122.379 -217.5883,-121.634 -216.955,-120.9203 -216.3348,-120.2376 -215.7284,-119.5855 -215.1363,-118.9635 -214.5593,-118.3712 -213.9978,-117.8081 -213.4526,-117.2739 -212.9241,-116.7681 -212.4131,-116.2902 -211.92,-115.8397 -211.4454,-115.4162 -210.9899,-115.0191 -210.554,-114.6479 -210.1383,-114.3022 -209.7432,-113.9814 -209.3694,-113.6849 -209.0174,-113.4124 -208.6875,-113.1631 -208.3804,-112.9365 -208.0964,-112.7321 -207.8362,-112.5493 -207.6,-112.3875 -207.3885,-112.2461 -207.202,-112.1246 -207.0409,-112.0223 -206.9056,-111.9386 -206.7967,-111.8729 -206.7144,-111.8246 -206.6592,-111.793 -203.0307,-109.8297 -210.8767,-93.8884 -214.6458,-95.566 -214.7045,-95.5905 -214.793,-95.6262 -214.9115,-95.6725 -215.0603,-95.7286 -215.2397,-95.7938 -215.4498,-95.8675 -215.6908,-95.9489 -215.9631,-96.0373 -216.2667,-96.1321 -216.6019,-96.2324 -216.9687,-96.3375 -217.3675,-96.4468 -217.7983,-96.5595 -218.2612,-96.6749 -218.7563,-96.7923 -219.2839,-96.9108 -219.8439,-97.0298 -220.4364,-97.1485 -221.0615,-97.2662 -221.7193,-97.3822 -222.4097,-97.4956 -223.1329,-97.6058 -223.8888,-97.712 -224.6774,-97.8135 -225.4987,-97.9094 -226.3528,-97.9992 -227.2395,-98.0819 -228.1588,-98.1569 -229.1106,-98.2235 -230.0949,-98.2808 -231.1115,-98.3281 -232.1605,-98.3647 -233.2415,-98.3898 -234.3546,-98.4027 -235.4996,-98.4027 -236.6763,-98.389 -237.8846,-98.3608 -239.1242,-98.3175 -240.395,-98.2583 -241.6968,-98.1824 -243.0294,-98.0892 -244.3925,-97.9779 -245.7858,-97.8478 -247.2092,-97.6982 -248.2549,-97.3685 -252.1451,-86.7984 -251.5626,-85.8695 -250.5759,-84.8329 -249.5993,-83.8305 -248.6336,-82.8622 -247.6794,-81.9273 -246.7373,-81.0257 -245.8081,-80.1567 -244.8923,-79.3201 -243.9906,-78.5154 -243.1035,-77.7421 -242.2317,-76.9999 -241.3758,-76.2881 -240.5364,-75.6064 -239.714,-74.9543 -238.9092,-74.3313 -238.1226,-73.7368 -237.3548,-73.1704 -236.6062,-72.6316 -235.8774,-72.1198 -235.169,-71.6345 -234.4814,-71.1751 -233.8151,-70.7411 -233.1707,-70.3319 -232.5487,-69.947 -231.9494,-69.5858 -231.3734,-69.2477 -230.8211,-68.9321 -230.293,-68.6384 -229.7895,-68.3659 -229.311,-68.1142 -228.8579,-67.8825 -228.4306,-67.6703 -228.0296,-67.4769 -227.6551,-67.3016 -227.3076,-67.1438 -226.9874,-67.0029 -226.6948,-66.8782 -226.4302,-66.7691 -226.1938,-66.6748 -225.9861,-66.5947 -225.8073,-66.5281 -225.6576,-66.4744 -225.5374,-66.4327 -225.4469,-66.4026 -225.3863,-66.3832 -221.4289,-65.2172 -225.7891,-47.9929 -229.8246,-48.8503 -229.8871,-48.862 -229.9811,-48.8786 -230.1066,-48.8992 -230.2638,-48.9231 -230.4528,-48.9496 -230.6736,-48.978 -230.9264,-49.0075 -231.211,-49.0374 -231.5277,-49.067 -231.8764,-49.0954 -232.2572,-49.122 -232.6699,-49.146 -233.1147,-49.1667 -233.5915,-49.1833 -234.1002,-49.1951 -234.6409,-49.2014 -235.2134,-49.2013 -235.8176,-49.1943 -236.4536,-49.1794 -237.1211,-49.1561 -237.82,-49.1235 -238.5503,-49.081 -239.3117,-49.0277 -240.1042,-48.963 -240.9276,-48.8861 -241.7816,-48.7963 -242.6661,-48.6929 -243.5809,-48.5751 -244.5258,-48.4423 -245.5005,-48.2937 -246.5048,-48.1286 -247.5384,-47.9463 -248.601,-47.7461 -249.6925,-47.5273 -250.8125,-47.2892 -251.9606,-47.0312 -253.1366,-46.7524 -254.3401,-46.4523 -255.5709,-46.1302 -256.8285,-45.7853 -258.1125,-45.4171 -259.4227,-45.0248 -260.7585,-44.6079 -262.1197,-44.1656 -263.074,-43.6257 -264.6815,-32.4778 -263.9187,-31.6903 -262.7379,-30.8814 -261.5743,-30.104 -260.4283,-29.3576 -259.3006,-28.6416 -258.1917,-27.9555 -257.1021,-27.2987 -256.0324,-26.6708 -254.9831,-26.0712 -253.9546,-25.4992 -252.9476,-24.9544 -251.9624,-24.4362 -250.9996,-23.9439 -250.0596,-23.477 -249.1428,-23.0349 -248.2498,-22.617 -247.381,-22.2226 -246.5367,-21.8512 -245.7175,-21.5021 -244.9236,-21.1747 -244.1555,-20.8683 -243.4136,-20.5823 -242.6982,-20.3161 -242.0097,-20.0689 -241.3485,-19.8402 -240.7148,-19.6292 -240.1089,-19.4353 -239.5313,-19.2578 -238.9821,-19.0961 -238.4617,-18.9493 -237.9704,-18.8169 -237.5083,-18.6981 -237.0758,-18.5923 -236.6731,-18.4987 -236.3004,-18.4167 -235.9578,-18.3454 -235.6457,-18.2843 -235.3642,-18.2325 -235.1134,-18.1894 -234.8936,-18.1543 -234.7048,-18.1263 -234.5472,-18.1049 -234.421,-18.0892 -234.3262,-18.0785 -234.2629,-18.0721 -230.1495,-17.7544 -230.8333,0 -234.9589,0.0004 -235.0225,0.0019 -235.1179,0.0053 -235.245,0.0112 -235.4037,0.0205 -235.5941,0.0339 -235.816,0.052 -236.0693,0.0757 -236.354,0.1056 -236.6699,0.1426 -237.0169,0.1873 -237.3948,0.2404 -237.8036,0.3028 -238.2429,0.375 -238.7127,0.4579 -239.2128,0.5521 -239.743,0.6584 -240.3029,0.7774 -240.8925,0.91 -241.5115,1.0567 -242.1595,1.2183 -242.8364,1.3955 -243.5419,1.589 -244.2756,1.7994 -245.0373,2.0275 -245.8267,2.2739 -246.6434,2.5393 -247.4871,2.8243 -248.3574,3.1297 -249.254,3.4561 -250.1765,3.8041 -251.1245,4.1744 -252.0977,4.5676 -253.0955,4.9843 -254.1176,5.4253 -255.1636,5.891 -256.233,6.3821 -257.3253,6.8993 -258.4402,7.4431 -259.577,8.0141 -260.7354,8.6128 -261.9149,9.24 -263.1149,9.8961 -264.3348,10.5817 -265.5743,11.2973 -266.3955,12.0238 -265.6501,23.2623 -264.7402,23.874 -263.4171,24.4197 -262.1172,24.9382 -260.8411,25.43 -259.5892,25.8959 -258.3619,26.3365 -257.1596,26.7523 -255.9827,27.1441 -254.8316,27.5125 -253.7067,27.8581 -252.6084,28.1816 -251.537,28.4837 -250.4928,28.7651 -249.4763,29.0263 -248.4877,29.2682 -247.5273,29.4913 -246.5955,29.6964 -245.6924,29.8842 -244.8185,30.0553 -243.9739,30.2105 -243.1589,30.3505 -242.3738,30.476 -241.6186,30.5877 -240.8938,30.6863 -240.1994,30.7725 -239.5357,30.8471 -238.9028,30.9108 -238.3009,30.9644 -237.7301,31.0084 -237.1906,31.0438 -236.6824,31.0711 -236.2058,31.0912 -235.7607,31.1048 -235.3473,31.1126 -234.9657,31.1154 -234.6158,31.1139 -234.2978,31.1088 -234.0117,31.1009 -233.7574,31.0909 -233.5351,31.0796 -233.3446,31.0676 -233.186,31.0559 -233.0593,31.045 -232.9643,31.0357 -232.9011,31.0288 -228.8116,30.4844 -225.7891,47.9929 -229.8244,48.8511 -229.8863,48.8658 -229.9789,48.8889 -230.102,48.9212 -230.2553,48.9633 -230.4387,49.0159 -230.652,49.0798 -230.8949,49.1556 -231.1671,49.2441 -231.4684,49.3459 -231.7985,49.4618 -232.1572,49.5923 -232.544,49.7383 -232.9588,49.9003 -233.4011,50.079 -233.8707,50.2752 -234.3671,50.4894 -234.8901,50.7222 -235.4392,50.9745 -236.0142,51.2467 -236.6145,51.5395 -237.2397,51.8535 -237.8896,52.1895 -238.5635,52.5478 -239.2612,52.9293 -239.982,53.3344 -240.7257,53.7638 -241.4917,54.2181 -242.2795,54.6977 -243.0887,55.2034 -243.9186,55.7356 -244.769,56.2949 -245.6391,56.8818 -246.5284,57.4969 -247.4366,58.1407 -248.3629,58.8137 -249.3068,59.5165 -250.2677,60.2495 -251.2451,61.0132 -252.2385,61.808 -253.247,62.6346 -254.2703,63.4933 -255.3076,64.3845 -256.3584,65.3087 -257.422,66.2664 -258.0742,67.1478 -255.0085,77.9857 -253.9913,78.3949 -252.5836,78.6536 -251.2044,78.8904 -249.8539,79.1062 -248.5325,79.3017 -247.2404,79.4774 -245.9779,79.6342 -244.7452,79.7728 -243.5427,79.8938 -242.3706,79.9979 -241.229,80.086 -240.1182,80.1588 -239.0384,80.2169 -237.9897,80.2611 -236.9725,80.2921 -235.9867,80.3106 -235.0325,80.3175 -234.1102,80.3134 -233.2198,80.2991 -232.3614,80.2754 -231.5351,80.2429 -230.741,80.2023 -229.9792,80.1546 -229.2497,80.1003 -228.5525,80.0403 -227.8878,79.9753 -227.2555,79.906 -226.6556,79.8332 -226.0881,79.7577 -225.553,79.6801 -225.0503,79.6012 -224.5799,79.5217 -224.1417,79.4425 -223.7357,79.3642 -223.3619,79.2875 -223.02,79.2133 -222.71,79.1422 -222.4317,79.075 -222.1851,79.0124 -221.97,78.9551 -221.7862,78.9038 -221.6335,78.8593 -221.5118,78.8223 -221.4208,78.7935 -221.3604,78.7736 -217.4734,77.3908 -210.8767,93.8884 -214.6455,95.5668 -214.703,95.594 -214.7887,95.6359 -214.9024,95.693 -215.0437,95.7661 -215.2121,95.8557 -215.4075,95.9625 -215.6293,96.0872 -215.8771,96.2303 -216.1507,96.3926 -216.4495,96.5745 -216.7732,96.7768 -217.1212,97 -217.4932,97.2447 -217.8887,97.5115 -218.3072,97.801 -218.7483,98.1137 -219.2114,98.4502 -219.6961,98.8111 -220.2019,99.1969 -220.7282,99.6081 -221.2745,100.0453 -221.8403,100.509 -222.425,100.9997 -223.0281,101.5179 -223.649,102.064 -224.2872,102.6386 -224.942,103.2422 -225.6128,103.8752 -226.2992,104.538 -227.0004,105.2312 -227.7158,105.955 -228.4449,106.71 -229.1869,107.4966 -229.9413,108.3152 -230.7075,109.1661 -231.4846,110.0497 -232.2722,110.9665 -233.0695,111.9167 -233.8758,112.9007 -234.6905,113.9189 -235.5129,114.9715 -236.3423,116.059 -237.1779,117.1815 -238.0192,118.3394 -238.4738,119.3371 -233.2218,129.3008 -232.1418,129.4895 -230.7111,129.4499 -229.3127,129.3948 -227.9469,129.3251 -226.6137,129.2416 -225.3133,129.1448 -224.0458,129.0357 -222.8113,128.9149 -221.6099,128.7833 -220.4417,128.6415 -219.3067,128.4903 -218.2051,128.3305 -217.1368,128.1628 -216.1019,127.988 -215.1004,127.8068 -214.1323,127.6201 -213.1976,127.4284 -212.2962,127.2327 -211.4282,127.0335 -210.5935,126.8318 -209.7921,126.6282 -209.0237,126.4235 -208.2885,126.2184 -207.5862,126.0137 -206.9168,125.81 -206.2801,125.6082 -205.676,125.409 -205.1044,125.213 -204.565,125.0211 -204.0577,124.834 -203.5824,124.6523 -203.1388,124.4768 -202.7267,124.3082 -202.3458,124.1472 -201.9961,123.9945 -201.6771,123.8508 -201.3886,123.7168 -201.1304,123.5932 -200.9022,123.4806 -200.7037,123.3799 -200.5346,123.2915 -200.3945,123.2163 -200.2831,123.1548 -200.2001,123.1077 -200.1452,123.0756 -196.6306,120.9149 -186.7481,135.6804 -190.0855,138.1057 -190.1361,138.1443 -190.2113,138.2031 -190.3106,138.2826 -190.4335,138.3834 -190.5797,138.5061 -190.7486,138.6512 -190.9396,138.8193 -191.1523,139.0108 -191.3861,139.2264 -191.6406,139.4665 -191.9151,139.7317 -192.2092,140.0224 -192.5222,140.3391 -192.8535,140.6823 -193.2027,141.0524 -193.5691,141.45 -193.9522,141.8755 -194.3513,142.3293 -194.7658,142.8118 -195.1951,143.3234 -195.6385,143.8647 -196.0956,144.4358 -196.5655,145.0374 -197.0477,145.6696 -197.5414,146.3329 -198.0462,147.0277 -198.5612,147.7542 -199.0858,148.5128 -199.6193,149.3039 -200.1611,150.1276 -200.7104,150.9844 -201.2665,151.8745 -201.8288,152.7982 -202.3966,153.7557 -202.969,154.7473 -203.5455,155.7732 -204.1253,156.8337 -204.7076,157.9289 -205.2917,159.0591 -205.8769,160.2244 -206.4625,161.425 -207.0476,162.6611 -207.6316,163.9329 -208.2137,165.2404 -208.451,166.3108 -201.2422,174.9648 -200.1465,174.9249 -198.7554,174.5886 -197.399,174.244 -196.0775,173.8919 -194.7908,173.533 -193.5389,173.168 -192.3218,172.7977 -191.1394,172.4229 -189.9916,172.0443 -188.8784,171.6628 -187.7997,171.2789 -186.7554,170.8935 -185.7453,170.5074 -184.7693,170.1213 -183.8274,169.7358 -182.9193,169.3519 -182.0448,168.9701 -181.2039,168.5912 -180.3963,168.216 -179.6217,167.8451 -178.8801,167.4793 -178.1712,167.1193 -177.4946,166.7658 -176.8502,166.4196 -176.2378,166.0812 -175.657,165.7514 -175.1075,165.4309 -174.5891,165.1204 -174.1014,164.8206 -173.6441,164.532 -173.217,164.2555 -172.8195,163.9916 -172.4515,163.741 -172.1124,163.5043 -171.8021,163.2822 -171.5199,163.0754 -171.2656,162.8843 -171.0388,162.7097 -170.839,162.5522 -170.6657,162.4124 -170.5187,162.2908 -170.3973,162.188 -170.3011,162.1047 -170.2297,162.0414 -170.1826,161.9987 -167.1942,159.1545 -154.4576,171.5426 -157.2179,174.6088 -157.2593,174.6571 -157.3206,174.7302 -157.4013,174.8286 -157.5006,174.9528 -157.618,175.1032 -157.753,175.2802 -157.905,175.4843 -158.0732,175.7159 -158.2571,175.9754 -158.4561,176.2632 -158.6695,176.5796 -158.8966,176.9251 -159.137,177.2999 -159.3897,177.7045 -159.6543,178.1392 -159.9301,178.6043 -160.2163,179.1001 -160.5123,179.6269 -160.8174,180.1851 -161.131,180.7748 -161.4522,181.3964 -161.7805,182.0501 -162.1151,182.7362 -162.4553,183.4549 -162.8004,184.2064 -163.1496,184.9909 -163.5023,185.8086 -163.8577,186.6597 -164.2151,187.5444 -164.5738,188.4628 -164.933,189.4151 -165.2919,190.4014 -165.6499,191.4218 -166.0061,192.4764 -166.3599,193.5653 -166.7105,194.6887 -167.0571,195.8465 -167.399,197.0389 -167.7353,198.2658 -168.0655,199.5273 -168.3886,200.8235 -168.704,202.1542 -169.0108,203.5196 -169.3083,204.9195 -169.3179,206.0159 -160.4673,212.982 -159.4039,212.7151 -158.1131,212.097 -156.858,211.478 -155.6386,210.8588 -154.4547,210.2401 -153.306,209.6228 -152.1925,209.0076 -151.1138,208.3952 -150.0698,207.7862 -149.0603,207.1815 -148.0849,206.5818 -147.1435,205.9877 -146.2358,205.4 -145.3615,204.8194 -144.5202,204.2466 -143.7118,203.6822 -142.9359,203.1269 -142.1921,202.5815 -141.4801,202.0465 -140.7996,201.5227 -140.1503,201.0107 -139.5316,200.5112 -138.9434,200.0248 -138.3851,199.5521 -137.8564,199.0938 -137.3568,198.6505 -136.886,198.2228 -136.4434,197.8113 -136.0287,197.4166 -135.6415,197.0393 -135.2811,196.68 -134.9472,196.3392 -134.6393,196.0175 -134.3569,195.7155 -134.0995,195.4338 -133.8665,195.1728 -133.6575,194.933 -133.4719,194.7151 -133.3092,194.5195 -133.1689,194.3467 -133.0503,194.1972 -132.9529,194.0714 -132.8762,193.9699 -132.8195,193.8932 -132.7823,193.8416 -130.4505,190.4382 -115.4167,199.9075 -117.4791,203.4806 -117.5096,203.5364 -117.5544,203.6207 -117.6127,203.7337 -117.6841,203.8759 -117.7677,204.0474 -117.863,204.2486 -117.9691,204.4799 -118.0855,204.7414 -118.2115,205.0334 -118.3463,205.3563 -118.4892,205.7101 -118.6396,206.0953 -118.7967,206.5119 -118.9598,206.9602 -119.1283,207.4404 -119.3013,207.9527 -119.4782,208.4972 -119.6582,209.074 -119.8406,209.6834 -120.0247,210.3255 -120.2097,211.0003 -120.3949,211.7079 -120.5795,212.4486 -120.7628,213.2223 -120.9441,214.0291 -121.1226,214.8691 -121.2976,215.7423 -121.4683,216.6487 -121.634,217.5883 -121.7938,218.5613 -121.9472,219.5674 -122.0932,220.6068 -122.2312,221.6793 -122.3604,222.7849 -122.4801,223.9236 -122.5894,225.0953 -122.6877,226.2999 -122.7742,227.5373 -122.8481,228.8074 -122.9088,230.1099 -122.9554,231.4449 -122.9872,232.8122 -123.0034,234.2115 -123.0034,235.6427 -122.7848,236.7171 -112.6793,241.6909 -111.6946,241.2087 -110.5605,240.3357 -109.4615,239.4693 -108.3975,238.6101 -107.3681,237.7588 -106.3729,236.9162 -105.4116,236.0829 -104.4838,235.2596 -103.5893,234.4469 -102.7275,233.6455 -101.8982,232.8561 -101.1008,232.0793 -100.3351,231.3157 -99.6006,230.566 -98.8969,229.8307 -98.2235,229.1106 -97.5799,228.4061 -96.9658,227.718 -96.3806,227.0467 -95.8239,226.3929 -95.2952,225.757 -94.7939,225.1398 -94.3196,224.5417 -93.8718,223.9633 -93.4499,223.4051 -93.0535,222.8676 -92.6818,222.3513 -92.3345,221.8568 -92.011,221.3845 -91.7106,220.9349 -91.4328,220.5085 -91.1771,220.1058 -90.9428,219.7272 -90.7293,219.3731 -90.5361,219.0439 -90.3625,218.7402 -90.2079,218.4622 -90.0717,218.2105 -89.9532,217.9853 -89.8519,217.7871 -89.7669,217.6162 -89.6978,217.473 -89.6439,217.3577 -89.6044,217.2709 -89.5788,217.2127 -88.0055,213.3988 -71.3314,219.5355 -72.6059,223.4594 -72.6241,223.5203 -72.6504,223.612 -72.684,223.7347 -72.7242,223.8886 -72.7704,224.0737 -72.8217,224.2904 -72.8775,224.5386 -72.9369,224.8186 -72.9994,225.1305 -73.0641,225.4743 -73.1304,225.8502 -73.1974,226.2582 -73.2645,226.6984 -73.3308,227.1708 -73.3958,227.6755 -73.4585,228.2126 -73.5183,228.7819 -73.5744,229.3836 -73.6262,230.0176 -73.6727,230.6839 -73.7134,231.3824 -73.7474,232.1131 -73.774,232.876 -73.7925,233.6709 -73.8021,234.4978 -73.802,235.3565 -73.7916,236.247 -73.7701,237.1691 -73.7368,238.1226 -73.6909,239.1075 -73.6317,240.1236 -73.5585,241.1706 -73.4704,242.2484 -73.3669,243.3567 -73.2472,244.4954 -73.1106,245.6642 -72.9563,246.8629 -72.7836,248.0913 -72.5919,249.3489 -72.3804,250.6357 -72.1484,251.9512 -71.8952,253.2952 -71.6202,254.6673 -71.3226,256.0672 -70.8854,257.0727 -59.9666,259.8367 -59.1037,259.1604 -58.1758,258.0706 -57.2811,256.9946 -56.4189,255.933 -55.589,254.8863 -54.7907,253.8552 -54.0237,252.8402 -53.2874,251.842 -52.5813,250.8611 -51.905,249.898 -51.2579,248.9534 -50.6396,248.0278 -50.0493,247.1217 -49.4868,246.2357 -48.9513,245.3702 -48.4423,244.5258 -47.9593,243.7029 -47.5016,242.9021 -47.0688,242.1238 -46.6602,241.3685 -46.2752,240.6367 -45.9132,239.9287 -45.5737,239.2451 -45.2559,238.5862 -44.9593,237.9525 -44.6832,237.3443 -44.4271,236.762 -44.1902,236.2061 -43.9719,235.6769 -43.7715,235.1747 -43.5885,234.6999 -43.4221,234.2528 -43.2716,233.8337 -43.1365,233.4429 -43.0159,233.0808 -42.9092,232.7476 -42.8158,232.4436 -42.7349,232.169 -42.6658,231.9241 -42.6079,231.7092 -42.5604,231.5244 -42.5226,231.3699 -42.4937,231.246 -42.4732,231.1528 -42.4602,231.0905 -41.7143,227.0329 -24.1287,229.5688 -24.5595,233.6718 -24.5646,233.7352 -24.5713,233.8304 -24.5786,233.9574 -24.586,234.1163 -24.5926,234.307 -24.5978,234.5296 -24.6007,234.784 -24.6007,235.0703 -24.5969,235.3883 -24.5888,235.738 -24.5754,236.1195 -24.5561,236.5325 -24.5302,236.977 -24.4969,237.4529 -24.4555,237.9601 -24.4052,238.4984 -24.3453,239.0678 -24.2751,239.668 -24.1939,240.2989 -24.1009,240.9603 -23.9955,241.652 -23.8768,242.3738 -23.7442,243.1256 -23.597,243.9069 -23.4345,244.7177 -23.2559,245.5577 -23.0606,246.4266 -22.8479,247.324 -22.617,248.2498 -22.3673,249.2037 -22.0982,250.1852 -21.8088,251.1941 -21.4987,252.23 -21.167,253.2926 -20.8131,254.3816 -20.4365,255.4964 -20.0363,256.6369 -19.6121,257.8024 -19.163,258.9928 -18.6886,260.2074 -18.1882,261.4459 -17.6611,262.7079 -17.1068,263.9929 -16.5246,265.3003 -15.888,266.1929 -4.6331,266.6264 -3.9297,265.7854 -3.2487,264.5266 -2.5972,263.2881 -1.9746,262.0704 -1.3804,260.874 -0.814,259.6995 -0.2747,258.5472 0.238,257.4177 0.7246,256.3114 1.1859,255.2288 1.6225,254.1703 2.0349,253.1364 2.4239,252.1274 2.7899,251.1437 3.1338,250.1858 3.4561,249.254 3.7575,248.3487 4.0386,247.4703 4.3001,246.619 4.5428,245.7953 4.7672,244.9994 4.9741,244.2316 5.1641,243.4923 5.3379,242.7818 5.4963,242.1002 5.6399,241.4479 5.7694,240.8251 5.8855,240.2321 5.989,239.669 6.0805,239.1362 6.1609,238.6337 6.2307,238.1617 6.2907,237.7205 6.3417,237.3102 6.3843,236.9309 6.4194,236.5828 6.4476,236.266 6.4696,235.9807 6.4863,235.7268 6.4982,235.5044 6.5063,235.3138 6.5112,235.1548 6.5136,235.0276 6.5143,234.9322 6.5141,234.8686 6.4001,230.7446 24.1287,229.5688 24.5603,233.6718 24.5685,233.7348 24.5818,233.8293 24.601,233.9551 24.6268,234.112 24.66,234.2999 24.7012,234.5187 24.7512,234.7682 24.8108,235.0482 24.8805,235.3585 24.9613,235.6989 25.0536,236.0692 25.1583,236.4692 25.2761,236.8986 25.4076,237.3572 25.5536,237.8447 25.7147,238.3608 25.8917,238.9053 26.0851,239.4778 26.2957,240.078 26.5242,240.7056 26.7712,241.3603 27.0373,242.0417 27.3233,242.7494 27.6297,243.4831 27.9573,244.2424 28.3066,245.0268 28.6783,245.8361 29.073,246.6697 29.4913,247.5273 29.9338,248.4084 30.4012,249.3125 30.8939,250.2392 31.4127,251.188 31.9581,252.1584 32.5306,253.15 33.1308,254.1622 33.7593,255.1945 34.4167,256.2464 35.1034,257.3174 35.8199,258.4068 36.5669,259.5142 37.3449,260.6391 38.1542,261.7807 38.9955,262.9386 39.8039,263.6793 50.9029,261.7633 51.4161,260.7944 51.8205,259.4215 52.2003,258.0746 52.556,256.7541 52.8885,255.4603 53.1984,254.1936 53.4863,252.9544 53.7529,251.743 53.9989,250.5597 54.2251,249.4049 54.432,248.2788 54.6205,247.1817 54.7911,246.1138 54.9447,245.0756 55.0819,244.0671 55.2034,243.0887 55.3099,242.1405 55.4023,241.2228 55.4812,240.3357 55.5472,239.4795 55.6013,238.6544 55.644,237.8604 55.6761,237.0978 55.6984,236.3666 55.7116,235.667 55.7165,234.9991 55.7136,234.363 55.704,233.7588 55.6881,233.1865 55.6669,232.6463 55.641,232.138 55.6111,231.6619 55.5781,231.2178 55.5427,230.8059 55.5055,230.4261 55.4674,230.0783 55.4291,229.7625 55.3914,229.4788 55.3549,229.227 55.3204,229.007 55.2886,228.8189 55.2603,228.6624 55.2362,228.5375 55.2171,228.444 55.2036,228.3818 54.2347,224.3716 71.3314,219.5355 72.6067,223.4591 72.6278,223.5191 72.6605,223.6088 72.7054,223.7278 72.7633,223.8759 72.8348,224.0528 72.9206,224.2582 73.0214,224.4919 73.1379,224.7534 73.2706,225.0424 73.4203,225.3586 73.5877,225.7016 73.7733,226.0711 73.9778,226.4666 74.2018,226.8878 74.4459,227.3343 74.7108,227.8057 74.9971,228.3014 75.3053,228.8212 75.6361,229.3645 75.9901,229.9309 76.3678,230.5199 76.7698,231.1311 77.1967,231.7639 77.6489,232.4178 78.1272,233.0924 78.632,233.7871 79.1638,234.5015 79.7232,235.2348 80.3106,235.9867 80.9267,236.7565 81.5718,237.5437 82.2465,238.3477 82.9512,239.1679 83.6864,240.0037 84.4525,240.8546 85.2501,241.7199 86.0795,242.5989 86.9412,243.4912 87.8356,244.396 88.763,245.3126 89.7239,246.2405 90.7187,247.179 91.7477,248.1274 92.8114,249.0851 93.7561,249.6416 104.2142,245.4598 104.5147,244.4054 104.6249,242.9784 104.7163,241.582 104.7897,240.2163 104.846,238.8817 104.8857,237.5783 104.9097,236.3063 104.9186,235.066 104.9132,233.8574 104.8943,232.6808 104.8626,231.5362 104.8188,230.4239 104.7637,229.344 104.6981,228.2964 104.6226,227.2815 104.538,226.2992 104.4451,225.3495 104.3447,224.4327 104.2374,223.5486 104.124,222.6974 104.0053,221.8791 103.882,221.0935 103.7549,220.3409 103.6247,219.621 103.4921,218.934 103.358,218.2797 103.223,217.6581 103.0879,217.0691 102.9534,216.5126 102.8203,215.9886 102.6893,215.4969 102.5611,215.0373 102.4365,214.6098 102.3162,214.2143 102.2009,213.8504 102.0913,213.5182 101.9882,213.2173 101.8923,212.9476 101.8042,212.7089 101.7247,212.5009 101.6545,212.3235 101.5943,212.1763 101.5448,212.0591 101.5067,211.9717 101.4806,211.9137 99.699,208.1925 115.4167,199.9075 117.4798,203.4802 117.5129,203.5345 117.5635,203.6154 117.6322,203.7225 117.7196,203.8553 117.8264,204.0135 117.953,204.1966 118.1002,204.4042 118.2685,204.6357 118.4584,204.8908 118.6706,205.169 118.9056,205.4697 119.164,205.7925 119.4462,206.1369 119.7529,206.5024 120.0845,206.8883 120.4417,207.2943 120.8247,207.7197 121.2343,208.1641 121.6709,208.6267 122.1348,209.1071 122.6268,209.6048 123.147,210.119 123.6961,210.6492 124.2745,211.1948 124.8826,211.7552 125.5208,212.3298 126.1895,212.918 126.8891,213.519 127.6201,214.1323 128.3827,214.7572 129.1774,215.393 130.0045,216.0392 130.8643,216.695 131.7572,217.3597 132.6835,218.0327 133.6436,218.7132 134.6376,219.4006 135.666,220.0942 136.7289,220.7933 137.8267,221.4971 138.9595,222.2049 140.1277,222.9161 141.3314,223.6298 142.5709,224.3454 143.6107,224.6933 152.9708,218.4286 153.0456,217.3347 152.8566,215.916 152.6557,214.5311 152.4436,213.18 152.2211,211.8629 151.989,210.5797 151.748,209.3305 151.4988,208.1154 151.2423,206.9344 150.9792,205.7874 150.7102,204.6744 150.4361,203.5955 150.1577,202.5506 149.8757,201.5397 149.5908,200.5626 149.3039,199.6193 149.0156,198.7098 148.7267,197.8338 148.4379,196.9914 148.15,196.1823 147.8638,195.4065 147.5799,194.6638 147.299,193.9541 147.022,193.277 146.7495,192.6326 146.4823,192.0204 146.221,191.4405 145.9664,190.8924 145.7191,190.3761 145.48,189.8912 145.2496,189.4374 145.0287,189.0146 144.8179,188.6224 144.618,188.2604 144.4295,187.9285 144.2533,187.6263 144.0899,187.3535 143.94,187.1096 143.8042,186.8944 143.6832,186.7075 143.5777,186.5485 143.4882,186.4171 143.4154,186.3128 143.3599,186.2351 143.3223,186.1838 140.806,182.9144 154.4576,171.5426 157.2185,174.6082 157.2622,174.6545 157.3285,174.7231 157.418,174.8136 157.5311,174.9253 157.6684,175.0579 157.8303,175.2106 158.0174,175.383 158.2302,175.5746 158.469,175.7846 158.7344,176.0125 159.0268,176.2579 159.3466,176.5199 159.6943,176.7981 160.0703,177.0918 160.4749,177.4003 160.9086,177.7232 161.3718,178.0597 161.8648,178.4091 162.388,178.7709 162.9417,179.1444 163.5263,179.5289 164.1422,179.9237 164.7895,180.3281 165.4687,180.7416 166.18,181.1633 166.9237,181.5927 167.7001,182.0289 168.5094,182.4713 169.3519,182.9193 170.2277,183.372 171.1373,183.8287 172.0806,184.2888 173.058,184.7514 174.0696,185.216 175.1156,185.6817 176.1962,186.1477 177.3114,186.6135 178.4615,187.0781 179.6466,187.5409 180.8667,188.0011 182.1219,188.4579 183.4124,188.9107 184.7382,189.3585 186.0994,189.8008 187.1888,189.9249 195.0419,181.851 194.8876,180.7655 194.4078,179.4171 193.9233,178.1042 193.435,176.8267 192.9435,175.5846 192.4497,174.3777 191.9542,173.206 191.4579,172.0692 190.9614,170.9673 190.4655,169.9001 189.971,168.8674 189.4786,167.8691 188.989,166.9049 188.503,165.9746 188.0212,165.0781 187.5444,164.2151 187.0733,163.3854 186.6086,162.5887 186.151,161.8247 185.7012,161.0932 185.2599,160.3938 184.8278,159.7264 184.4055,159.0905 183.9938,158.4859 183.5932,157.9121 183.2046,157.369 182.8284,156.856 182.4654,156.3729 182.1162,155.9192 181.7815,155.4946 181.4618,155.0987 181.1578,154.731 180.8701,154.3912 180.5993,154.0787 180.346,153.7933 180.1107,153.5343 179.8941,153.3014 179.6968,153.094 179.5193,152.9118 179.3621,152.7541 179.2258,152.6205 179.1109,152.5106 179.018,152.4236 178.9476,152.3593 178.9002,152.3169 175.7591,149.6421 186.7481,135.6804 190.086,138.1051 190.1383,138.1412 190.2175,138.1945 190.3238,138.2644 190.4577,138.3502 190.6195,138.4513 190.8097,138.5671 191.0286,138.6968 191.2765,138.8399 191.5538,138.9957 191.8608,139.1635 192.1978,139.3427 192.5651,139.5325 192.963,139.7323 193.3918,139.9414 193.8518,140.1591 194.3431,140.3847 194.8661,140.6176 195.421,140.8569 196.008,141.102 196.6273,141.3522 197.279,141.6067 197.9635,141.8648 198.6808,142.1259 199.4311,142.3891 200.2145,142.6537 201.0313,142.9191 201.8814,143.1843 202.765,143.4488 203.6822,143.7118 204.633,143.9725 205.6176,144.2302 206.636,144.484 207.6883,144.7334 208.7744,144.9775 209.8943,145.2155 211.0482,145.4467 212.2359,145.6704 213.4574,145.8858 214.7128,146.092 216.0019,146.2885 217.3247,146.4744 218.6812,146.6489 220.0711,146.8114 221.4945,146.9609 222.5859,146.8558 228.5887,137.3256 228.2121,136.2959 227.4624,135.0767 226.7156,133.8933 225.9723,132.7452 225.2333,131.6325 224.4994,130.5546 223.7711,129.5115 223.0492,128.5028 222.3345,127.5282 221.6276,126.5874 220.9292,125.68 220.24,124.8059 219.5606,123.9646 218.8918,123.1557 218.2342,122.379 217.5883,121.634 216.955,120.9203 216.3348,120.2376 215.7284,119.5855 215.1363,118.9635 214.5593,118.3712 213.9978,117.8081 213.4526,117.2739 212.9241,116.7681 212.4131,116.2902 211.92,115.8397 211.4454,115.4162 210.9899,115.0191 210.554,114.6479 210.1383,114.3022 209.7432,113.9814 209.3694,113.6849 209.0174,113.4124 208.6875,113.1631 208.3804,112.9365 208.0964,112.7321 207.8362,112.5493 207.6,112.3875 207.3885,112.2461 207.202,112.1246 207.0409,112.0223 206.9056,111.9386 206.7967,111.8729 206.7144,111.8246 206.6592,111.793 203.0307,109.8297 210.8767,93.8884 214.6458,95.566 214.7045,95.5905 214.793,95.6262 214.9115,95.6725 215.0603,95.7286 215.2397,95.7938 215.4498,95.8675 215.6908,95.9489 215.9631,96.0373 216.2667,96.1321 216.6019,96.2324 216.9687,96.3375 217.3675,96.4468 217.7983,96.5595 218.2612,96.6749 218.7563,96.7923 219.2839,96.9108 219.8439,97.0298 220.4364,97.1485 221.0615,97.2662 221.7193,97.3822 222.4097,97.4956 223.1329,97.6058 223.8888,97.712 224.6774,97.8135 225.4987,97.9094 226.3528,97.9992 227.2395,98.0819 228.1588,98.1569 229.1106,98.2235 230.0949,98.2808 231.1115,98.3281 232.1605,98.3647 233.2415,98.3898 234.3546,98.4027 235.4996,98.4027 236.6763,98.389 237.8846,98.3608 239.1242,98.3175 240.395,98.2583 241.6968,98.1824 243.0294,98.0892 244.3925,97.9779 245.7858,97.8478 247.2092,97.6982 248.2549,97.3685 252.1451,86.7984 251.5626,85.8695 250.5759,84.8329 249.5993,83.8305 248.6336,82.8622 247.6794,81.9273 246.7373,81.0257 245.8081,80.1567 244.8923,79.3201 243.9906,78.5154 243.1035,77.7421 242.2317,76.9999 241.3758,76.2881 240.5364,75.6064 239.714,74.9543 238.9092,74.3313 238.1226,73.7368 237.3548,73.1704 236.6062,72.6316 235.8774,72.1198 235.169,71.6345 234.4814,71.1751 233.8151,70.7411 233.1707,70.3319 232.5487,69.947 231.9494,69.5858 231.3734,69.2477 230.8211,68.9321 230.293,68.6384 229.7895,68.3659 229.311,68.1142 228.8579,67.8825 228.4306,67.6703 228.0296,67.4769 227.6551,67.3016 227.3076,67.1438 226.9874,67.0029 226.6948,66.8782 226.4302,66.7691 226.1938,66.6748 225.9861,66.5947 225.8073,66.5281 225.6576,66.4744 225.5374,66.4327 225.4469,66.4026 225.3863,66.3832 221.4289,65.2172 225.7891,47.9929 229.8246,48.8503 229.8871,48.862 229.9811,48.8786 230.1066,48.8992 230.2638,48.9231 230.4528,48.9496 230.6736,48.978 230.9264,49.0075 231.211,49.0374 231.5277,49.067 231.8764,49.0954 232.2572,49.122 232.6699,49.146 233.1147,49.1667 233.5915,49.1833 234.1002,49.1951 234.6409,49.2014 235.2134,49.2013 235.8176,49.1943 236.4536,49.1794 237.1211,49.1561 237.82,49.1235 238.5503,49.081 239.3117,49.0277 240.1042,48.963 240.9276,48.8861 241.7816,48.7963 242.6661,48.6929 243.5809,48.5751 244.5258,48.4423 245.5005,48.2937 246.5048,48.1286 247.5384,47.9463 248.601,47.7461 249.6925,47.5273 250.8125,47.2892 251.9606,47.0312 253.1366,46.7524 254.3401,46.4523 255.5709,46.1302 256.8285,45.7853 258.1125,45.4171 259.4227,45.0248 260.7585,44.6079 262.1197,44.1656 263.074,43.6257 264.6815,32.4778 263.9187,31.6903 262.7379,30.8814 261.5743,30.104 260.4283,29.3576 259.3006,28.6416 258.1917,27.9555 257.1021,27.2987 256.0324,26.6708 254.9831,26.0712 253.9546,25.4992 252.9476,24.9544 251.9624,24.4362 250.9996,23.9439 250.0596,23.477 249.1428,23.0349 248.2498,22.617 247.381,22.2226 246.5367,21.8512 245.7175,21.5021 244.9236,21.1747 244.1555,20.8683 243.4136,20.5823 242.6982,20.3161 242.0097,20.0689 241.3485,19.8402 240.7148,19.6292 240.1089,19.4353 239.5313,19.2578 238.9821,19.0961 238.4617,18.9493 237.9704,18.8169 237.5083,18.6981 237.0758,18.5923 236.6731,18.4987 236.3004,18.4167 235.9578,18.3454 235.6457,18.2843 235.3642,18.2325 235.1134,18.1894 234.8936,18.1543 234.7048,18.1263 234.5472,18.1049 234.421,18.0892 234.3262,18.0785 234.2629,18.0721 230.1495,17.7544 "/><g class="guides"><polyline fill="none" stroke="#444" stroke-width="0.5" stroke-miterlimit="10" points="10,0 -10,0"/><polyline fill="none" stroke="#444" stroke-width="0.5" stroke-miterlimit="10" points="0,10 0,-10"/></g><circle fill="#c00" class="firstmarker" stroke="none" stroke-miterlimit="10" cx="249.452" cy="-16.5441" r="6.5417"/><g class="geartext"><g class="text"><polyline fill="none" stroke="#444" stroke-width="0.5" stroke-linecap="square" stroke-miterlimit="1"  points="99.39 -174.52 96.77 -175.98 94.13 -177.41 91.47 -178.79 88.79 -180.14 "/><polyline fill="none" stroke="#444" stroke-width="0.5" stroke-linecap="square" stroke-miterlimit="1"  points="91.32 -172.11 96.94 -182.71 "/><polyline fill="none" stroke="#444" stroke-width="0.5" stroke-linecap="square" stroke-miterlimit="1"  points="102.36 -179.73 98.21 -178.61 94.13 -177.41 90.1 -176.12 86.13 -174.76 "/><polyline fill="none" stroke="#444" stroke-width="0.5" stroke-linecap="square" stroke-miterlimit="1"  points="96.42 -169.3 95.32 -173.35 94.13 -177.41 92.83 -181.47 91.44 -185.52 "/><polyline fill="none" stroke="#444" stroke-width="0.5" stroke-linecap="square" stroke-miterlimit="1"  points="108.78 -161.64 104.72 -160.73 102.3 -162.28 101.43 -166.35 107.68 -176.59 111.9 -177.5 114.54 -175.81 115.48 -171.59 108.78 -161.64 "/><polyline fill="none" stroke="#444" stroke-width="0.5" stroke-linecap="square" stroke-miterlimit="1"  points="144.05 -152.57 131.7 -139.48 132.64 -144.75 133.45 -150.08 134.13 -155.47 134.69 -160.9 123.13 -147.1 "/><polyline fill="none" stroke="#444" stroke-width="0.5" stroke-linecap="square" stroke-miterlimit="1"  points="152.64 -135.09 150.6 -137.35 148.54 -139.59 146.43 -141.79 144.3 -143.96 "/><polyline fill="none" stroke="#444" stroke-width="0.5" stroke-linecap="square" stroke-miterlimit="1"  points="148.15 -131.11 146.17 -133.31 144.16 -135.48 142.12 -137.62 140.05 -139.73 "/><polyline fill="none" stroke="#444" stroke-width="0.5" stroke-linecap="square" stroke-miterlimit="1"  points="158.91 -132.39 163.2 -131.89 165.16 -129.44 167.07 -126.95 166.53 -122.66 164.12 -120.89 159.91 -121.51 159.29 -117.33 156.87 -115.55 152.74 -116.06 150.99 -118.33 149.2 -120.57 149.69 -124.71 "/><polyline fill="none" stroke="#444" stroke-width="0.5" stroke-linecap="square" stroke-miterlimit="1"  points="158.07 -123.88 159.91 -121.51 "/><polyline fill="none" stroke="#444" stroke-width="0.5" stroke-linecap="square" stroke-miterlimit="1"  points="165.06 -103.52 160.97 -104.34 159.4 -106.74 160.25 -110.81 170.12 -117.64 174.35 -116.75 176.08 -114.13 175.22 -109.9 165.06 -103.52 "/><polyline fill="none" stroke="#444" stroke-width="0.5" stroke-linecap="square" stroke-miterlimit="1"  points="180.35 -88.37 181.65 -85.66 182.91 -82.94 184.13 -80.2 188.07 -78.6 190.84 -79.75 192.38 -83.79 191.1 -86.66 189.79 -89.5 188.43 -92.33 172.27 -84.41 "/><polyline fill="none" stroke="#444" stroke-width="0.5" stroke-linecap="square" stroke-miterlimit="1"  points="179.13 -68.65 190.33 -72.94 "/><polyline fill="none" stroke="#444" stroke-width="0.5" stroke-linecap="square" stroke-miterlimit="1"  points="193.14 -74.02 195.94 -75.09 "/><polyline fill="none" stroke="#444" stroke-width="0.5" stroke-linecap="square" stroke-miterlimit="1"  points="187.44 -53.16 183.75 -55.09 185.77 -58.73 200.07 -63.26 "/><polyline fill="none" stroke="#444" stroke-width="0.5" stroke-linecap="square" stroke-miterlimit="1"  points="196.1 -55.61 195.25 -58.54 194.35 -61.45 193.41 -64.34 192.43 -67.23 "/><polyline fill="none" stroke="#444" stroke-width="0.5" stroke-linecap="square" stroke-miterlimit="1"  points="188.5 -35.61 187.95 -38.42 187.35 -41.23 186.71 -44.02 188.95 -47.54 194.76 -49 198.39 -46.77 199.07 -43.81 199.7 -40.83 200.29 -37.84 "/><polyline fill="none" stroke="#444" stroke-width="0.5" stroke-linecap="square" stroke-miterlimit="1"  points="195.4 -30.9 198.81 -28.4 202.19 -25.81 202.56 -22.79 199.89 -19.47 190.93 -18.6 "/><polyline fill="none" stroke="#444" stroke-width="0.5" stroke-linecap="square" stroke-miterlimit="1"  points="189.48 -29.97 207.26 -32.78 "/><polyline fill="none" stroke="#444" stroke-width="0.5" stroke-linecap="square" stroke-miterlimit="1"  points="191.83 1.43 191.79 4.3 191.7 7.16 191.57 10.02 194.39 13.09 206.37 13.89 209.55 10.97 209.69 7.83 209.78 4.7 209.83 1.57 "/><polyline fill="none" stroke="#444" stroke-width="0.5" stroke-linecap="square" stroke-miterlimit="1"  points="209.78 4.7 191.79 4.3 "/><polyline fill="none" stroke="#444" stroke-width="0.5" stroke-linecap="square" stroke-miterlimit="1"  points="201.33 31.84 201.78 28.83 202.19 25.81 202.56 22.79 202.87 19.76 "/><polyline fill="none" stroke="#444" stroke-width="0.5" stroke-linecap="square" stroke-miterlimit="1"  points="195.4 30.9 195.84 27.98 196.24 25.05 196.59 22.12 196.9 19.18 "/><polyline fill="none" stroke="#444" stroke-width="0.5" stroke-linecap="square" stroke-miterlimit="1"  points="203.49 51.2 204.23 48.15 204.93 45.09 205.58 42.03 206.19 38.95 200.29 37.84 199.7 40.83 199.07 43.81 198.39 46.77 194.76 49 188.95 47.54 186.71 44.02 187.35 41.23 187.95 38.42 191.45 36.17 "/><polyline fill="none" stroke="#444" stroke-width="0.5" stroke-linecap="square" stroke-miterlimit="1"  points="188.59 69.06 187.53 71.87 186.44 74.66 185.3 77.44 186.88 81.4 189.63 82.6 193.61 80.91 194.79 78.01 195.94 75.09 197.04 72.16 180.13 65.97 "/><polyline fill="none" stroke="#444" stroke-width="0.5" stroke-linecap="square" stroke-miterlimit="1"  points="178.84 97.8 180.28 95.11 181.68 92.41 183.04 89.69 184.36 86.94 "/><polyline fill="none" stroke="#444" stroke-width="0.5" stroke-linecap="square" stroke-miterlimit="1"  points="173.58 94.92 174.97 92.32 176.33 89.69 177.65 87.05 178.93 84.38 "/><polyline fill="none" stroke="#444" stroke-width="0.5" stroke-linecap="square" stroke-miterlimit="1"  points="173.25 101.58 171.71 104.15 170.14 106.71 168.53 109.24 164.38 110.07 161.89 108.4 160.97 104.34 162.51 101.93 164.02 99.49 168.07 98.54 175.84 103.1 176.84 107.27 177.76 111.49 176.08 114.13 "/><polyline fill="none" stroke="#444" stroke-width="0.5" stroke-linecap="square" stroke-miterlimit="1"  points="154.3 128.55 152.36 130.84 150.39 133.1 148.39 135.33 148.54 139.59 150.72 141.64 155.04 141.4 157.13 139.07 159.19 136.7 161.22 134.31 147.39 122.79 "/><polyline fill="none" stroke="#444" stroke-width="0.5" stroke-linecap="square" stroke-miterlimit="1"  points="135.8 135.49 140.05 139.73 142.13 146.1 144.05 152.57 137.71 150.28 131.46 147.84 127.47 143.36 "/><polyline fill="none" stroke="#444" stroke-width="0.5" stroke-linecap="square" stroke-miterlimit="1"  points="140.05 139.73 137.95 141.8 135.82 143.85 133.65 145.86 131.46 147.84 "/><polyline fill="none" stroke="#444" stroke-width="0.5" stroke-linecap="square" stroke-miterlimit="1"  points="121.27 163.84 123.7 162.01 126.11 160.14 128.49 158.24 130.83 156.3 "/><polyline fill="none" stroke="#444" stroke-width="0.5" stroke-linecap="square" stroke-miterlimit="1"  points="117.7 159.01 120.06 157.24 122.4 155.43 124.7 153.58 126.98 151.7 "/><polyline fill="none" stroke="#444" stroke-width="0.5" stroke-linecap="square" stroke-miterlimit="1"  points="99.87 163.79 102.3 162.28 104.72 160.73 107.11 159.15 109.47 157.53 112.9 162.46 112.13 166.61 109.63 168.27 107.1 169.89 106.12 174.03 107.68 176.59 111.9 177.5 114.54 175.81 117.16 174.08 118.03 169.85 "/><polyline fill="none" stroke="#444" stroke-width="0.5" stroke-linecap="square" stroke-miterlimit="1"  points="88.74 173.45 89.91 169.46 92.43 168.1 96.42 169.3 102.36 179.73 101.1 183.87 98.35 185.36 94.2 184.14 88.74 173.45 "/></g></g><g class="guides gearguides" opacity="0.2"><circle class="pitch" fill="none" stroke="#f00" stroke-miterlimit="10" cx="0" cy="0" r="250"/><circle class="outer" fill="none" stroke="#ccc" stroke-miterlimit="10" stroke-dasharray="2,2" cx="0" cy="0" r="266.67"/><circle class="base" fill="none" stroke="#00f" stroke-miterlimit="10" stroke-dasharray="2,2" cx="0" cy="0" r="234.92"/></g></svg>