<?xml version="1.0" encoding="utf-8"?><!-- Generator: Iparigrafika Gear Generator by Abel Vincze http://geargenerator.com/ --><svg version="1.2" class="svggear" xmlns="http://www.w3.org/2000/svg" xmlns:xlink="http://www.w3.org/1999/xlink" x="0px" y="0px" width="76px" height="76px" viewBox="-38 -38 76 76" overflow="scroll" xml:space="preserve"><polygon id="gearpoly1" data-id="1" class="gear" fill="#ddd" stroke="#444" stroke-width="1" stroke-miterlimit="10" points="24.0625,0 27.8482,0 27.8821,-0.0013 27.9498,-0.0062 28.051,-0.0169 28.1853,-0.0359 28.3524,-0.0654 28.5515,-0.1079 28.7819,-0.1654 29.0427,-0.2403 29.3331,-0.3347 29.6518,-0.4509 29.9978,-0.5908 30.3697,-0.7564 30.766,-0.9499 31.1853,-1.1729 31.626,-1.4274 32.0863,-1.7152 32.5643,-2.0378 33.0583,-2.3968 33.5662,-2.7937 34.0859,-3.2299 34.6153,-3.7067 35.1521,-4.2252 35.694,-4.7866 36.2388,-5.3917 36.7839,-6.0415 36.9038,-6.6603 36.67,-7.8463 36.3241,-8.3732 35.5732,-8.7675 34.8395,-9.1205 34.125,-9.4342 33.4316,-9.7101 32.7608,-9.9503 32.1144,-10.1566 31.4939,-10.331 30.9006,-10.4756 30.3359,-10.5926 29.8009,-10.6841 29.2966,-10.7523 28.824,-10.7995 28.3839,-10.828 27.9769,-10.8401 27.6038,-10.8382 27.2648,-10.8247 26.9603,-10.8018 26.6905,-10.7721 26.4555,-10.7379 26.2553,-10.7016 26.0895,-10.6655 25.958,-10.6321 25.8603,-10.6036 25.7958,-10.5824 25.764,-10.5707 22.2616,-9.1337 19.467,-14.1436 22.5296,-16.3688 22.5563,-16.3898 22.6082,-16.4335 22.6838,-16.5016 22.7813,-16.596 22.8991,-16.7181 23.0352,-16.8694 23.1878,-17.0514 23.3548,-17.2653 23.5342,-17.5124 23.7238,-17.7937 23.9215,-18.1102 24.125,-18.4628 24.3319,-18.8523 24.54,-19.2792 24.7469,-19.7441 24.9502,-20.2474 25.1473,-20.7894 25.3359,-21.3702 25.5135,-21.9899 25.6776,-22.6482 25.8256,-23.3451 25.9551,-24.0801 26.0636,-24.8528 26.1486,-25.6626 26.2077,-26.5087 25.941,-27.0798 25.0547,-27.9018 24.4652,-28.1249 23.6259,-28.0024 22.8248,-27.8568 22.0625,-27.6906 21.3392,-27.5062 20.6554,-27.3063 20.0112,-27.0932 19.4067,-26.8696 18.8417,-26.6379 18.3161,-26.4006 17.8294,-26.1601 17.3814,-25.9189 16.9713,-25.6793 16.5985,-25.4437 16.2621,-25.2143 15.9614,-24.9934 15.6951,-24.7832 15.4622,-24.5857 15.2614,-24.4031 15.0914,-24.2373 14.9507,-24.0902 14.8378,-23.9636 14.7511,-23.8592 14.6888,-23.7788 14.6491,-23.7237 14.6302,-23.6955 12.6413,-20.4744 7.4357,-22.8848 8.6055,-26.4852 8.6148,-26.5179 8.6311,-26.5837 8.6522,-26.6833 8.6756,-26.8169 8.6991,-26.9849 8.7203,-27.1874 8.7368,-27.4243 8.7462,-27.6955 8.7461,-28.0009 8.7341,-28.3399 8.708,-28.7122 8.6653,-29.117 8.6039,-29.5537 8.5213,-30.0215 8.4154,-30.5192 8.284,-31.0459 8.1249,-31.6002 7.9361,-32.181 7.7156,-32.7866 7.4613,-33.4157 7.1714,-34.0665 6.8442,-34.7373 6.4778,-35.4262 6.0706,-36.1313 5.621,-36.8505 5.0696,-37.1557 3.8694,-37.2998 3.2613,-37.1338 2.6544,-36.5414 2.0918,-35.9527 1.5728,-35.3701 1.096,-34.7959 0.6604,-34.2322 0.2644,-33.6812 -0.0932,-33.145 -0.4141,-32.6254 -0.6999,-32.1244 -0.9522,-31.6439 -1.1729,-31.1853 -1.3639,-30.7505 -1.527,-30.3407 -1.6642,-29.9574 -1.7777,-29.6019 -1.8696,-29.2754 -1.942,-28.9787 -1.9971,-28.713 -2.0371,-28.4789 -2.0645,-28.2772 -2.0814,-28.1084 -2.0902,-27.973 -2.0933,-27.8713 -2.0931,-27.8034 -2.0918,-27.7695 -1.8075,-23.9945 -7.4357,-22.8848 -8.6056,-26.4852 -8.6173,-26.517 -8.6428,-26.5799 -8.6843,-26.6728 -8.7439,-26.7948 -8.8236,-26.9445 -8.9255,-27.1207 -9.0514,-27.3221 -9.2032,-27.547 -9.3828,-27.794 -9.5917,-28.0612 -9.8317,-28.3471 -10.1042,-28.6495 -10.4106,-28.9667 -10.7523,-29.2966 -11.1306,-29.637 -11.5464,-29.9858 -12.001,-30.3408 -12.495,-30.6997 -13.0295,-31.06 -13.6049,-31.4195 -14.222,-31.7756 -14.881,-32.1259 -15.5824,-32.4679 -16.3262,-32.799 -17.1126,-33.1166 -17.7382,-33.0395 -18.7939,-32.4506 -19.1882,-31.9588 -19.3311,-31.1228 -19.4402,-30.3159 -19.5176,-29.5395 -19.5658,-28.7947 -19.5869,-28.0826 -19.5834,-27.4041 -19.5575,-26.76 -19.5118,-26.1511 -19.4485,-25.5778 -19.3702,-25.0407 -19.2792,-24.54 -19.178,-24.076 -19.0692,-23.6486 -18.9549,-23.2579 -18.8378,-22.9035 -18.7201,-22.5853 -18.6043,-22.3028 -18.4927,-22.0554 -18.3876,-21.8425 -18.2911,-21.6633 -18.2056,-21.5168 -18.1332,-21.402 -18.0759,-21.3179 -18.0358,-21.2632 -18.0148,-21.2365 -15.5659,-18.3496 -19.467,-14.1436 -22.5297,-16.3687 -22.5579,-16.3876 -22.6155,-16.4235 -22.7037,-16.4743 -22.8235,-16.5379 -22.976,-16.6122 -23.162,-16.6949 -23.3822,-16.7837 -23.6373,-16.8765 -23.9277,-16.9707 -24.2539,-17.0641 -24.616,-17.1543 -25.0142,-17.2389 -25.4485,-17.3154 -25.9189,-17.3814 -26.425,-17.4345 -26.9665,-17.4722 -27.5429,-17.4923 -28.1535,-17.4922 -28.7977,-17.4696 -29.4746,-17.4221 -30.1831,-17.3476 -30.9221,-17.2436 -31.6906,-17.108 -32.487,-16.9386 -33.3099,-16.7333 -33.7706,-16.3032 -34.2786,-15.2063 -34.3085,-14.5767 -33.9327,-13.8164 -33.5467,-13.0995 -33.153,-12.4258 -32.7542,-11.7949 -32.3527,-11.2064 -31.951,-10.6596 -31.5515,-10.1537 -31.1566,-9.688 -30.7684,-9.2614 -30.3894,-8.8729 -30.0215,-8.5213 -29.6669,-8.2053 -29.3276,-7.9236 -29.0055,-7.6746 -28.7025,-7.4568 -28.4202,-7.2685 -28.1605,-7.108 -27.9248,-6.9735 -27.7146,-6.863 -27.5312,-6.7747 -27.3759,-6.7065 -27.2498,-6.6562 -27.154,-6.6218 -27.0894,-6.6011 -27.0568,-6.5918 -23.3787,-5.6957 -24.0625,0 -27.8482,0 -27.8821,0.0013 -27.9498,0.0062 -28.051,0.0169 -28.1853,0.0359 -28.3524,0.0654 -28.5515,0.1079 -28.7819,0.1654 -29.0427,0.2403 -29.3331,0.3347 -29.6518,0.4509 -29.9978,0.5908 -30.3697,0.7564 -30.766,0.9499 -31.1853,1.1729 -31.626,1.4274 -32.0863,1.7152 -32.5643,2.0378 -33.0583,2.3968 -33.5662,2.7937 -34.0859,3.2299 -34.6153,3.7067 -35.1521,4.2252 -35.694,4.7866 -36.2388,5.3917 -36.7839,6.0415 -36.9038,6.6603 -36.67,7.8463 -36.3241,8.3732 -35.5732,8.7675 -34.8395,9.1205 -34.125,9.4342 -33.4316,9.7101 -32.7608,9.9503 -32.1144,10.1566 -31.4939,10.331 -30.9006,10.4756 -30.3359,10.5926 -29.8009,10.6841 -29.2966,10.7523 -28.824,10.7995 -28.3839,10.828 -27.9769,10.8401 -27.6038,10.8382 -27.2648,10.8247 -26.9603,10.8018 -26.6905,10.7721 -26.4555,10.7379 -26.2553,10.7016 -26.0895,10.6655 -25.958,10.6321 -25.8603,10.6036 -25.7958,10.5824 -25.764,10.5707 -22.2616,9.1337 -19.467,14.1436 -22.5296,16.3688 -22.5563,16.3898 -22.6082,16.4335 -22.6838,16.5016 -22.7813,16.596 -22.8991,16.7181 -23.0352,16.8694 -23.1878,17.0514 -23.3548,17.2653 -23.5342,17.5124 -23.7238,17.7937 -23.9215,18.1102 -24.125,18.4628 -24.3319,18.8523 -24.54,19.2792 -24.7469,19.7441 -24.9502,20.2474 -25.1473,20.7894 -25.3359,21.3702 -25.5135,21.9899 -25.6776,22.6482 -25.8256,23.3451 -25.9551,24.0801 -26.0636,24.8528 -26.1486,25.6626 -26.2077,26.5087 -25.941,27.0798 -25.0547,27.9018 -24.4652,28.1249 -23.6259,28.0024 -22.8248,27.8568 -22.0625,27.6906 -21.3392,27.5062 -20.6554,27.3063 -20.0112,27.0932 -19.4067,26.8696 -18.8417,26.6379 -18.3161,26.4006 -17.8294,26.1601 -17.3814,25.9189 -16.9713,25.6793 -16.5985,25.4437 -16.2621,25.2143 -15.9614,24.9934 -15.6951,24.7832 -15.4622,24.5857 -15.2614,24.4031 -15.0914,24.2373 -14.9507,24.0902 -14.8378,23.9636 -14.7511,23.8592 -14.6888,23.7788 -14.6491,23.7237 -14.6302,23.6955 -12.6413,20.4744 -7.4357,22.8848 -8.6055,26.4852 -8.6148,26.5179 -8.6311,26.5837 -8.6522,26.6833 -8.6756,26.8169 -8.6991,26.9849 -8.7203,27.1874 -8.7368,27.4243 -8.7462,27.6955 -8.7461,28.0009 -8.7341,28.3399 -8.708,28.7122 -8.6653,29.117 -8.6039,29.5537 -8.5213,30.0215 -8.4154,30.5192 -8.284,31.0459 -8.1249,31.6002 -7.9361,32.181 -7.7156,32.7866 -7.4613,33.4157 -7.1714,34.0665 -6.8442,34.7373 -6.4778,35.4262 -6.0706,36.1313 -5.621,36.8505 -5.0696,37.1557 -3.8694,37.2998 -3.2613,37.1338 -2.6544,36.5414 -2.0918,35.9527 -1.5728,35.3701 -1.096,34.7959 -0.6604,34.2322 -0.2644,33.6812 0.0932,33.145 0.4141,32.6254 0.6999,32.1244 0.9522,31.6439 1.1729,31.1853 1.3639,30.7505 1.527,30.3407 1.6642,29.9574 1.7777,29.6019 1.8696,29.2754 1.942,28.9787 1.9971,28.713 2.0371,28.4789 2.0645,28.2772 2.0814,28.1084 2.0902,27.973 2.0933,27.8713 2.0931,27.8034 2.0918,27.7695 1.8075,23.9945 7.4357,22.8848 8.6056,26.4852 8.6173,26.517 8.6428,26.5799 8.6843,26.6728 8.7439,26.7948 8.8236,26.9445 8.9255,27.1207 9.0514,27.3221 9.2032,27.547 9.3828,27.794 9.5917,28.0612 9.8317,28.3471 10.1042,28.6495 10.4106,28.9667 10.7523,29.2966 11.1306,29.637 11.5464,29.9858 12.001,30.3408 12.495,30.6997 13.0295,31.06 13.6049,31.4195 14.222,31.7756 14.881,32.1259 15.5824,32.4679 16.3262,32.799 17.1126,33.1166 17.7382,33.0395 18.7939,32.4506 19.1882,31.9588 19.3311,31.1228 19.4402,30.3159 19.5176,29.5395 19.5658,28.7947 19.5869,28.0826 19.5834,27.4041 19.5575,26.76 19.5118,26.1511 19.4485,25.5778 19.3702,25.0407 19.2792,24.54 19.178,24.076 19.0692,23.6486 18.9549,23.2579 18.8378,22.9035 18.7201,22.5853 18.6043,22.3028 18.4927,22.0554 18.3876,21.8425 18.2911,21.6633 18.2056,21.5168 18.1332,21.402 18.0759,21.3179 18.0358,21.2632 18.0148,21.2365 15.5659,18.3496 19.467,14.1436 22.5297,16.3687 22.5579,16.3876 22.6155,16.4235 22.7037,16.4743 22.8235,16.5379 22.976,16.6122 23.162,16.6949 23.3822,16.7837 23.6373,16.8765 23.9277,16.9707 24.2539,17.0641 24.616,17.1543 25.0142,17.2389 25.4485,17.3154 25.9189,17.3814 26.425,17.4345 26.9665,17.4722 27.5429,17.4923 28.1535,17.4922 28.7977,17.4696 29.4746,17.4221 30.1831,17.3476 30.9221,17.2436 31.6906,17.108 32.487,16.9386 33.3099,16.7333 33.7706,16.3032 34.2786,15.2063 34.3085,14.5767 33.9327,13.8164 33.5467,13.0995 33.153,12.4258 32.7542,11.7949 32.3527,11.2064 31.951,10.6596 31.5515,10.1537 31.1566,9.688 30.7684,9.2614 30.3894,8.8729 30.0215,8.5213 29.6669,8.2053 29.3276,7.9236 29.0055,7.6746 28.7025,7.4568 28.4202,7.2685 28.1605,7.108 27.9248,6.9735 27.7146,6.863 27.5312,6.7747 27.3759,6.7065 27.2498,6.6562 27.154,6.6218 27.0894,6.6011 27.0568,6.5918 23.3787,5.6957 "/><g class="guides"><polyline fill="none" stroke="#444" stroke-width="0.5" stroke-miterlimit="10" points="10,0 -10,0"/><polyline fill="none" stroke="#444" stroke-width="0.5" stroke-miterlimit="10" points="0,10 0,-10"/></g><circle fill="#c00" class="firstmarker" stroke="none" stroke-miterlimit="10" cx="30.6597" cy="-6.0452" r="2.4531"/><g class="geartext"><g class="text"><polyline fill="none" stroke="#444" stroke-width="0.5" stroke-linecap="square" stroke-miterlimit="1"  points="-12.17 -13.71 -12.59 -13.32 -13 -12.92 -13.4 -12.51 -13.79 -12.08 "/><polyline fill="none" stroke="#444" stroke-width="0.5" stroke-linecap="square" stroke-miterlimit="1"  points="-12.19 -12.11 -13.82 -13.73 "/><polyline fill="none" stroke="#444" stroke-width="0.5" stroke-linecap="square" stroke-miterlimit="1"  points="-12.93 -14.57 -12.99 -13.74 -13 -12.92 -12.98 -12.12 -12.92 -11.33 "/><polyline fill="none" stroke="#444" stroke-width="0.5" stroke-linecap="square" stroke-miterlimit="1"  points="-11.41 -12.85 -12.2 -12.91 -13 -12.92 -13.82 -12.9 -14.65 -12.84 "/><polyline fill="none" stroke="#444" stroke-width="0.5" stroke-linecap="square" stroke-miterlimit="1"  points="-12 -15.35 -11.85 -16.18 -9.82 -13.4 "/><polyline fill="none" stroke="#444" stroke-width="0.5" stroke-linecap="square" stroke-miterlimit="1"  points="-9.4 -13.7 -9.82 -13.4 -10.23 -13.09 "/><polyline fill="none" stroke="#444" stroke-width="0.5" stroke-linecap="square" stroke-miterlimit="1"  points="-5.1 -19.39 -4.23 -16.07 -4.97 -16.75 -5.76 -17.4 -6.6 -18.02 -7.48 -18.6 -6.2 -15.41 "/><polyline fill="none" stroke="#444" stroke-width="0.5" stroke-linecap="square" stroke-miterlimit="1"  points="-1.32 -18.86 -1.91 -18.81 -2.49 -18.74 -3.08 -18.65 -3.66 -18.55 "/><polyline fill="none" stroke="#444" stroke-width="0.5" stroke-linecap="square" stroke-miterlimit="1"  points="-1.24 -17.72 -1.79 -17.67 -2.34 -17.61 -2.89 -17.52 -3.44 -17.42 "/><polyline fill="none" stroke="#444" stroke-width="0.5" stroke-linecap="square" stroke-miterlimit="1"  points="-0.14 -19.48 0.48 -20.05 0.4 -16.61 "/><polyline fill="none" stroke="#444" stroke-width="0.5" stroke-linecap="square" stroke-miterlimit="1"  points="0.92 -16.59 0.4 -16.61 -0.12 -16.61 "/><polyline fill="none" stroke="#444" stroke-width="0.5" stroke-linecap="square" stroke-miterlimit="1"  points="3.61 -16.8 2.98 -16.35 2.47 -16.43 2.02 -17.07 2.29 -19.34 2.98 -19.83 3.59 -19.73 4.09 -19.05 3.61 -16.8 "/><polyline fill="none" stroke="#444" stroke-width="0.5" stroke-linecap="square" stroke-miterlimit="1"  points="7.65 -16.66 8.16 -16.42 8.67 -16.15 9.17 -15.87 9.97 -16.07 10.27 -16.55 10.03 -17.36 9.48 -17.67 8.93 -17.96 8.36 -18.23 6.93 -15.1 "/><polyline fill="none" stroke="#444" stroke-width="0.5" stroke-linecap="square" stroke-miterlimit="1"  points="9.62 -13.54 10.95 -15.41 "/><polyline fill="none" stroke="#444" stroke-width="0.5" stroke-linecap="square" stroke-miterlimit="1"  points="11.28 -15.88 11.61 -16.35 "/><polyline fill="none" stroke="#444" stroke-width="0.5" stroke-linecap="square" stroke-miterlimit="1"  points="12.39 -11.91 11.61 -11.88 11.62 -12.66 13.56 -14.77 "/><polyline fill="none" stroke="#444" stroke-width="0.5" stroke-linecap="square" stroke-miterlimit="1"  points="13.63 -13.1 13.21 -13.52 12.79 -13.93 12.34 -14.32 11.89 -14.7 "/><polyline fill="none" stroke="#444" stroke-width="0.5" stroke-linecap="square" stroke-miterlimit="1"  points="13.91 -9.08 13.62 -9.51 13.32 -9.93 13 -10.34 13.11 -11.11 13.99 -11.85 14.8 -11.77 15.16 -11.3 15.5 -10.82 15.83 -10.33 "/><polyline fill="none" stroke="#444" stroke-width="0.5" stroke-linecap="square" stroke-miterlimit="1"  points="15.45 -8.76 16.22 -8.54 17 -8.28 17.25 -7.74 16.95 -6.98 15.36 -6.33 "/><polyline fill="none" stroke="#444" stroke-width="0.5" stroke-linecap="square" stroke-miterlimit="1"  points="14.45 -8.19 17.45 -9.89 "/><polyline fill="none" stroke="#444" stroke-width="0.5" stroke-linecap="square" stroke-miterlimit="1"  points="16.37 -2.84 16.45 -2.33 16.52 -1.81 16.56 -1.3 17.17 -0.81 19.46 -0.91 19.99 -1.56 19.93 -2.19 19.85 -2.81 19.76 -3.43 "/><polyline fill="none" stroke="#444" stroke-width="0.5" stroke-linecap="square" stroke-miterlimit="1"  points="19.85 -2.81 16.45 -2.33 "/><polyline fill="none" stroke="#444" stroke-width="0.5" stroke-linecap="square" stroke-miterlimit="1"  points="18.72 2.65 18.79 2.06 18.85 1.48 18.89 0.89 18.9 0.3 "/><polyline fill="none" stroke="#444" stroke-width="0.5" stroke-linecap="square" stroke-miterlimit="1"  points="17.59 2.49 17.65 1.94 17.71 1.39 17.74 0.83 17.76 0.28 "/><polyline fill="none" stroke="#444" stroke-width="0.5" stroke-linecap="square" stroke-miterlimit="1"  points="15.73 5.35 15.89 4.86 16.03 4.36 16.16 3.86 16.27 3.35 17.4 3.58 17.83 4.26 17.69 4.81 17.53 5.36 17.9 6.09 18.44 6.28 19.17 5.87 19.35 5.26 19.5 4.66 19.08 3.93 "/><polyline fill="none" stroke="#444" stroke-width="0.5" stroke-linecap="square" stroke-miterlimit="1"  points="15.89 6.54 15.36 6.33 "/><polyline fill="none" stroke="#444" stroke-width="0.5" stroke-linecap="square" stroke-miterlimit="1"  points="16.79 10.96 17.13 10.43 17.45 9.89 17.75 9.34 18.03 8.78 17 8.28 16.73 8.8 16.45 9.32 16.15 9.83 15.35 10.02 14.39 9.39 14.19 8.64 14.45 8.19 14.7 7.74 15.45 7.52 "/><polyline fill="none" stroke="#444" stroke-width="0.5" stroke-linecap="square" stroke-miterlimit="1"  points="12.81 13.11 12.4 13.51 11.97 13.89 11.53 14.25 11.43 15.06 11.77 15.52 12.61 15.59 13.09 15.19 13.56 14.77 14.02 14.34 11.61 11.88 "/><polyline fill="none" stroke="#444" stroke-width="0.5" stroke-linecap="square" stroke-miterlimit="1"  points="8.42 16.93 8.94 16.66 9.46 16.37 9.97 16.07 10.46 15.75 "/><polyline fill="none" stroke="#444" stroke-width="0.5" stroke-linecap="square" stroke-miterlimit="1"  points="7.91 15.9 8.4 15.65 8.89 15.38 9.36 15.09 9.83 14.79 "/><polyline fill="none" stroke="#444" stroke-width="0.5" stroke-linecap="square" stroke-miterlimit="1"  points="4.8 17.1 5.34 16.94 5.86 16.76 6.38 16.57 6.9 16.37 6.66 17.29 6.37 18.21 6.02 19.13 4.99 15.85 "/><polyline fill="none" stroke="#444" stroke-width="0.5" stroke-linecap="square" stroke-miterlimit="1"  points="1.01 18.31 0.44 18.33 -0.13 18.33 -0.71 18.32 -1.32 18.86 -1.36 19.43 -0.77 20.04 -0.15 20.05 0.48 20.05 1.11 20.02 0.92 16.59 "/><polyline fill="none" stroke="#444" stroke-width="0.5" stroke-linecap="square" stroke-miterlimit="1"  points="-2.19 16.47 -2.34 17.61 -3.08 18.65 -3.88 19.67 -4.24 18.43 -4.52 17.18 -4.23 16.07 "/><polyline fill="none" stroke="#444" stroke-width="0.5" stroke-linecap="square" stroke-miterlimit="1"  points="-2.34 17.61 -2.89 17.52 -3.44 17.42 -3.98 17.31 -4.52 17.18 "/><polyline fill="none" stroke="#444" stroke-width="0.5" stroke-linecap="square" stroke-miterlimit="1"  points="-8.14 17.07 -7.6 17.31 -7.05 17.54 -6.5 17.75 -5.94 17.95 "/><polyline fill="none" stroke="#444" stroke-width="0.5" stroke-linecap="square" stroke-miterlimit="1"  points="-7.64 16.03 -7.14 16.26 -6.63 16.48 -6.11 16.68 -5.58 16.86 "/><polyline fill="none" stroke="#444" stroke-width="0.5" stroke-linecap="square" stroke-miterlimit="1"  points="-9.82 13.4 -9.4 13.7 -8.96 13.99 -8.52 14.26 -8.07 14.52 -8.63 15.52 -9.4 15.74 -9.89 15.44 -10.37 15.12 -11.17 15.25 -11.51 15.71 -11.34 16.54 -10.82 16.88 -10.29 17.21 -9.46 17.03 "/><polyline fill="none" stroke="#444" stroke-width="0.5" stroke-linecap="square" stroke-miterlimit="1"  points="-12.84 15.4 -13.31 14.99 -13.78 14.57 -14.22 14.13 -14.66 13.68 -13 12.92 -11.41 12.07 "/></g></g><g class="guides gearguides" opacity="0.2"><circle class="pitch" fill="none" stroke="#f00" stroke-miterlimit="10" cx="0" cy="0" r="31.25"/><circle class="outer" fill="none" stroke="#ccc" stroke-miterlimit="10" stroke-dasharray="2,2" cx="0" cy="0" r="37.5"/><circle class="base" fill="none" stroke="#00f" stroke-miterlimit="10" stroke-dasharray="2,2" cx="0" cy="0" r="27.84"/></g></svg>