<?xml version="1.0" encoding="utf-8"?><!-- Generator: Iparigrafika Gear Generator by Abel Vincze http://geargenerator.com/ --><svg version="1.2" class="svggear" xmlns="http://www.w3.org/2000/svg" xmlns:xlink="http://www.w3.org/1999/xlink" x="0px" y="0px" width="76px" height="76px" viewBox="-38 -38 76 76" overflow="scroll" xml:space="preserve"><polygon id="gearpoly1" data-id="1" class="gear" fill="#ddd" stroke="#444" stroke-width="1" stroke-miterlimit="10" points="28.5417,0 31.3279,-0.0001 31.3472,-0.0006 31.3815,-0.0024 31.4305,-0.0059 31.4944,-0.012 31.5728,-0.0211 31.6659,-0.034 31.7733,-0.0513 31.895,-0.0736 32.0308,-0.1016 32.1805,-0.1358 32.3439,-0.177 32.5207,-0.2256 32.7107,-0.2824 32.9136,-0.3478 33.1291,-0.4226 33.3569,-0.5072 33.5966,-0.6023 33.848,-0.7084 34.1106,-0.826 34.384,-0.9557 34.6679,-1.098 34.9617,-1.2535 35.2652,-1.4226 35.5777,-1.6058 35.8988,-1.8036 36.2281,-2.0165 36.565,-2.2448 36.909,-2.4891 37.2596,-2.7497 37.3792,-3.008 37.1249,-5.2908 36.9514,-5.5164 36.5521,-5.6935 36.1628,-5.8561 35.7839,-6.0047 35.4158,-6.1399 35.059,-6.2622 34.7138,-6.3721 34.3806,-6.4703 34.0598,-6.5573 33.7515,-6.6337 33.4563,-6.7001 33.1742,-6.757 32.9057,-6.8052 32.6509,-6.8452 32.4101,-6.8776 32.1834,-6.9031 31.9711,-6.9223 31.7733,-6.9359 31.5901,-6.9444 31.4217,-6.9486 31.2681,-6.9491 31.1295,-6.9465 31.0059,-6.9415 30.8972,-6.9347 30.8036,-6.9268 30.7251,-6.9185 30.6615,-6.9103 30.6128,-6.903 30.579,-6.8971 30.56,-6.8934 27.8421,-6.2804 26.3691,-10.9224 28.9431,-11.9887 28.9608,-11.9966 28.9918,-12.0114 29.0358,-12.0334 29.0924,-12.0634 29.1614,-12.1019 29.2424,-12.1494 29.3351,-12.2065 29.439,-12.2737 29.5538,-12.3515 29.679,-12.4404 29.8141,-12.541 29.9589,-12.6536 30.1127,-12.7787 30.2751,-12.9168 30.4456,-13.0684 30.6236,-13.2337 30.8087,-13.4133 31.0004,-13.6075 31.198,-13.8167 31.4009,-14.0411 31.6087,-14.2813 31.8207,-14.5374 32.0364,-14.8097 32.255,-15.0986 32.476,-15.4042 32.6988,-15.7269 32.9226,-16.0668 33.147,-16.4241 33.3711,-16.799 33.3827,-17.0834 32.2742,-19.0951 32.0276,-19.2372 31.5909,-19.248 31.169,-19.2492 30.7621,-19.2416 30.3703,-19.2256 29.9939,-19.202 29.6329,-19.1715 29.2875,-19.1347 28.9577,-19.0923 28.6438,-19.0449 28.3456,-18.9932 28.0632,-18.9379 27.7967,-18.8796 27.546,-18.8191 27.311,-18.7569 27.0919,-18.6937 26.8884,-18.6302 26.7004,-18.567 26.5279,-18.5048 26.3707,-18.4443 26.2287,-18.3859 26.1016,-18.3305 25.9893,-18.2785 25.8915,-18.2307 25.8081,-18.1876 25.7387,-18.1498 25.6831,-18.1179 25.6409,-18.0925 25.6119,-18.0742 25.5958,-18.0635 23.3193,-16.4571 20.182,-20.182 22.1521,-22.1522 22.1654,-22.1663 22.1884,-22.1917 22.2205,-22.229 22.2614,-22.2783 22.3104,-22.3403 22.3671,-22.4152 22.4309,-22.5034 22.5011,-22.6053 22.5774,-22.7211 22.659,-22.8511 22.7455,-22.9957 22.8361,-23.1551 22.9303,-23.3296 23.0275,-23.5194 23.127,-23.7246 23.2282,-23.9455 23.3305,-24.1823 23.4332,-24.435 23.5357,-24.7039 23.6374,-24.9889 23.7374,-25.2903 23.8353,-25.608 23.9303,-25.9422 24.0218,-26.2927 24.109,-26.6597 24.1913,-27.043 24.2681,-27.4427 24.3386,-27.8587 24.4022,-28.2908 24.3041,-28.558 22.5101,-29.9924 22.2279,-30.0293 21.8203,-29.8722 21.4301,-29.7119 21.057,-29.549 20.7012,-29.3844 20.3624,-29.2185 20.0406,-29.0522 19.7356,-28.886 19.4472,-28.7206 19.1752,-28.5567 18.9195,-28.3948 18.6798,-28.2357 18.4558,-28.0798 18.2474,-27.928 18.0542,-27.7806 17.8759,-27.6383 17.7121,-27.5018 17.5627,-27.3715 17.4271,-27.248 17.3051,-27.1319 17.1961,-27.0237 17.1,-26.9238 17.0161,-26.8328 16.9441,-26.7512 16.8835,-26.6795 16.8338,-26.618 16.7946,-26.5673 16.7654,-26.5277 16.7456,-26.4997 16.7348,-26.4836 15.2464,-24.1283 10.9224,-26.3691 11.9886,-28.9432 11.9955,-28.9613 12.007,-28.9936 12.0225,-29.0403 12.0413,-29.1016 12.0629,-29.1776 12.0866,-29.2685 12.1117,-29.3744 12.1377,-29.4953 12.1638,-29.6315 12.1895,-29.7829 12.214,-29.9496 12.2367,-30.1315 12.257,-30.3288 12.2741,-30.5413 12.2875,-30.769 12.2965,-31.0118 12.3004,-31.2697 12.2986,-31.5425 12.2904,-31.8301 12.2752,-32.1324 12.2524,-32.4491 12.2212,-32.7801 12.1811,-33.1252 12.1314,-33.484 12.0716,-33.8564 12.0009,-34.2421 11.9189,-34.6407 11.8249,-35.052 11.7182,-35.4756 11.5254,-35.685 9.319,-36.3236 9.0442,-36.2497 8.7278,-35.9486 8.4286,-35.6511 8.1463,-35.3579 7.8805,-35.0696 7.631,-34.7868 7.3973,-34.5099 7.1791,-34.2397 6.9759,-33.9765 6.7874,-33.721 6.6131,-33.4736 6.4525,-33.2348 6.3053,-33.0051 6.1708,-32.785 6.0487,-32.575 5.9384,-32.3753 5.8394,-32.1865 5.7512,-32.0089 5.6732,-31.843 5.6049,-31.689 5.5457,-31.5473 5.495,-31.4182 5.4523,-31.3021 5.417,-31.1991 5.3885,-31.1096 5.3662,-31.0338 5.3494,-30.972 5.3375,-30.9242 5.33,-30.8908 5.3261,-30.8718 4.8524,-28.1262 0,-28.5417 -0.0001,-31.3279 -0.0006,-31.3472 -0.0024,-31.3815 -0.0059,-31.4305 -0.012,-31.4944 -0.0211,-31.5728 -0.034,-31.6659 -0.0513,-31.7733 -0.0736,-31.895 -0.1016,-32.0308 -0.1358,-32.1805 -0.177,-32.3439 -0.2256,-32.5207 -0.2824,-32.7107 -0.3478,-32.9136 -0.4226,-33.1291 -0.5072,-33.3569 -0.6023,-33.5966 -0.7084,-33.848 -0.826,-34.1106 -0.9557,-34.384 -1.098,-34.6679 -1.2535,-34.9617 -1.4226,-35.2652 -1.6058,-35.5777 -1.8036,-35.8988 -2.0165,-36.2281 -2.2448,-36.565 -2.4891,-36.909 -2.7497,-37.2596 -3.008,-37.3792 -5.2908,-37.1249 -5.5164,-36.9514 -5.6935,-36.5521 -5.8561,-36.1628 -6.0047,-35.7839 -6.1399,-35.4158 -6.2622,-35.059 -6.3721,-34.7138 -6.4703,-34.3806 -6.5573,-34.0598 -6.6337,-33.7515 -6.7001,-33.4563 -6.757,-33.1742 -6.8052,-32.9057 -6.8452,-32.6509 -6.8776,-32.4101 -6.9031,-32.1834 -6.9223,-31.9711 -6.9359,-31.7733 -6.9444,-31.5901 -6.9486,-31.4217 -6.9491,-31.2681 -6.9465,-31.1295 -6.9415,-31.0059 -6.9347,-30.8972 -6.9268,-30.8036 -6.9185,-30.7251 -6.9103,-30.6615 -6.903,-30.6128 -6.8971,-30.579 -6.8934,-30.56 -6.2804,-27.8421 -10.9224,-26.3691 -11.9887,-28.9431 -11.9966,-28.9608 -12.0114,-28.9918 -12.0334,-29.0358 -12.0634,-29.0924 -12.1019,-29.1614 -12.1494,-29.2424 -12.2065,-29.3351 -12.2737,-29.439 -12.3515,-29.5538 -12.4404,-29.679 -12.541,-29.8141 -12.6536,-29.9589 -12.7787,-30.1127 -12.9168,-30.2751 -13.0684,-30.4456 -13.2337,-30.6236 -13.4133,-30.8087 -13.6075,-31.0004 -13.8167,-31.198 -14.0411,-31.4009 -14.2813,-31.6087 -14.5374,-31.8207 -14.8097,-32.0364 -15.0986,-32.255 -15.4042,-32.476 -15.7269,-32.6988 -16.0668,-32.9226 -16.4241,-33.147 -16.799,-33.3711 -17.0834,-33.3827 -19.0951,-32.2742 -19.2372,-32.0276 -19.248,-31.5909 -19.2492,-31.169 -19.2416,-30.7621 -19.2256,-30.3703 -19.202,-29.9939 -19.1715,-29.6329 -19.1347,-29.2875 -19.0923,-28.9577 -19.0449,-28.6438 -18.9932,-28.3456 -18.9379,-28.0632 -18.8796,-27.7967 -18.8191,-27.546 -18.7569,-27.311 -18.6937,-27.0919 -18.6302,-26.8884 -18.567,-26.7004 -18.5048,-26.5279 -18.4443,-26.3707 -18.3859,-26.2287 -18.3305,-26.1016 -18.2785,-25.9893 -18.2307,-25.8915 -18.1876,-25.8081 -18.1498,-25.7387 -18.1179,-25.6831 -18.0925,-25.6409 -18.0742,-25.6119 -18.0635,-25.5958 -16.4571,-23.3193 -20.182,-20.182 -22.1522,-22.1521 -22.1663,-22.1654 -22.1917,-22.1884 -22.229,-22.2205 -22.2783,-22.2614 -22.3403,-22.3104 -22.4152,-22.3671 -22.5034,-22.4309 -22.6053,-22.5011 -22.7211,-22.5774 -22.8511,-22.659 -22.9957,-22.7455 -23.1551,-22.8361 -23.3296,-22.9303 -23.5194,-23.0275 -23.7246,-23.127 -23.9455,-23.2282 -24.1823,-23.3305 -24.435,-23.4332 -24.7039,-23.5357 -24.9889,-23.6374 -25.2903,-23.7374 -25.608,-23.8353 -25.9422,-23.9303 -26.2927,-24.0218 -26.6597,-24.109 -27.043,-24.1913 -27.4427,-24.2681 -27.8587,-24.3386 -28.2908,-24.4022 -28.558,-24.3041 -29.9924,-22.5101 -30.0293,-22.2279 -29.8722,-21.8203 -29.7119,-21.4301 -29.549,-21.057 -29.3844,-20.7012 -29.2185,-20.3624 -29.0522,-20.0406 -28.886,-19.7356 -28.7206,-19.4472 -28.5567,-19.1752 -28.3948,-18.9195 -28.2357,-18.6798 -28.0798,-18.4558 -27.928,-18.2474 -27.7806,-18.0542 -27.6383,-17.8759 -27.5018,-17.7121 -27.3715,-17.5627 -27.248,-17.4271 -27.1319,-17.3051 -27.0237,-17.1961 -26.9238,-17.1 -26.8328,-17.0161 -26.7512,-16.9441 -26.6795,-16.8835 -26.618,-16.8338 -26.5673,-16.7946 -26.5277,-16.7654 -26.4997,-16.7456 -26.4836,-16.7348 -24.1283,-15.2464 -26.3691,-10.9224 -28.9432,-11.9886 -28.9613,-11.9955 -28.9936,-12.007 -29.0403,-12.0225 -29.1016,-12.0413 -29.1776,-12.0629 -29.2685,-12.0866 -29.3744,-12.1117 -29.4953,-12.1377 -29.6315,-12.1638 -29.7829,-12.1895 -29.9496,-12.214 -30.1315,-12.2367 -30.3288,-12.257 -30.5413,-12.2741 -30.769,-12.2875 -31.0118,-12.2965 -31.2697,-12.3004 -31.5425,-12.2986 -31.8301,-12.2904 -32.1324,-12.2752 -32.4491,-12.2524 -32.7801,-12.2212 -33.1252,-12.1811 -33.484,-12.1314 -33.8564,-12.0716 -34.2421,-12.0009 -34.6407,-11.9189 -35.052,-11.8249 -35.4756,-11.7182 -35.685,-11.5254 -36.3236,-9.319 -36.2497,-9.0442 -35.9486,-8.7278 -35.6511,-8.4286 -35.3579,-8.1463 -35.0696,-7.8805 -34.7868,-7.631 -34.5099,-7.3973 -34.2397,-7.1791 -33.9765,-6.9759 -33.721,-6.7874 -33.4736,-6.6131 -33.2348,-6.4525 -33.0051,-6.3053 -32.785,-6.1708 -32.575,-6.0487 -32.3753,-5.9384 -32.1865,-5.8394 -32.0089,-5.7512 -31.843,-5.6732 -31.689,-5.6049 -31.5473,-5.5457 -31.4182,-5.495 -31.3021,-5.4523 -31.1991,-5.417 -31.1096,-5.3885 -31.0338,-5.3662 -30.972,-5.3494 -30.9242,-5.3375 -30.8908,-5.33 -30.8718,-5.3261 -28.1262,-4.8524 -28.5417,0 -31.3279,0.0001 -31.3472,0.0006 -31.3815,0.0024 -31.4305,0.0059 -31.4944,0.012 -31.5728,0.0211 -31.6659,0.034 -31.7733,0.0513 -31.895,0.0736 -32.0308,0.1016 -32.1805,0.1358 -32.3439,0.177 -32.5207,0.2256 -32.7107,0.2824 -32.9136,0.3478 -33.1291,0.4226 -33.3569,0.5072 -33.5966,0.6023 -33.848,0.7084 -34.1106,0.826 -34.384,0.9557 -34.6679,1.098 -34.9617,1.2535 -35.2652,1.4226 -35.5777,1.6058 -35.8988,1.8036 -36.2281,2.0165 -36.565,2.2448 -36.909,2.4891 -37.2596,2.7497 -37.3792,3.008 -37.1249,5.2908 -36.9514,5.5164 -36.5521,5.6935 -36.1628,5.8561 -35.7839,6.0047 -35.4158,6.1399 -35.059,6.2622 -34.7138,6.3721 -34.3806,6.4703 -34.0598,6.5573 -33.7515,6.6337 -33.4563,6.7001 -33.1742,6.757 -32.9057,6.8052 -32.6509,6.8452 -32.4101,6.8776 -32.1834,6.9031 -31.9711,6.9223 -31.7733,6.9359 -31.5901,6.9444 -31.4217,6.9486 -31.2681,6.9491 -31.1295,6.9465 -31.0059,6.9415 -30.8972,6.9347 -30.8036,6.9268 -30.7251,6.9185 -30.6615,6.9103 -30.6128,6.903 -30.579,6.8971 -30.56,6.8934 -27.8421,6.2804 -26.3691,10.9224 -28.9431,11.9887 -28.9608,11.9966 -28.9918,12.0114 -29.0358,12.0334 -29.0924,12.0634 -29.1614,12.1019 -29.2424,12.1494 -29.3351,12.2065 -29.439,12.2737 -29.5538,12.3515 -29.679,12.4404 -29.8141,12.541 -29.9589,12.6536 -30.1127,12.7787 -30.2751,12.9168 -30.4456,13.0684 -30.6236,13.2337 -30.8087,13.4133 -31.0004,13.6075 -31.198,13.8167 -31.4009,14.0411 -31.6087,14.2813 -31.8207,14.5374 -32.0364,14.8097 -32.255,15.0986 -32.476,15.4042 -32.6988,15.7269 -32.9226,16.0668 -33.147,16.4241 -33.3711,16.799 -33.3827,17.0834 -32.2742,19.0951 -32.0276,19.2372 -31.5909,19.248 -31.169,19.2492 -30.7621,19.2416 -30.3703,19.2256 -29.9939,19.202 -29.6329,19.1715 -29.2875,19.1347 -28.9577,19.0923 -28.6438,19.0449 -28.3456,18.9932 -28.0632,18.9379 -27.7967,18.8796 -27.546,18.8191 -27.311,18.7569 -27.0919,18.6937 -26.8884,18.6302 -26.7004,18.567 -26.5279,18.5048 -26.3707,18.4443 -26.2287,18.3859 -26.1016,18.3305 -25.9893,18.2785 -25.8915,18.2307 -25.8081,18.1876 -25.7387,18.1498 -25.6831,18.1179 -25.6409,18.0925 -25.6119,18.0742 -25.5958,18.0635 -23.3193,16.4571 -20.182,20.182 -22.1521,22.1522 -22.1654,22.1663 -22.1884,22.1917 -22.2205,22.229 -22.2614,22.2783 -22.3104,22.3403 -22.3671,22.4152 -22.4309,22.5034 -22.5011,22.6053 -22.5774,22.7211 -22.659,22.8511 -22.7455,22.9957 -22.8361,23.1551 -22.9303,23.3296 -23.0275,23.5194 -23.127,23.7246 -23.2282,23.9455 -23.3305,24.1823 -23.4332,24.435 -23.5357,24.7039 -23.6374,24.9889 -23.7374,25.2903 -23.8353,25.608 -23.9303,25.9422 -24.0218,26.2927 -24.109,26.6597 -24.1913,27.043 -24.2681,27.4427 -24.3386,27.8587 -24.4022,28.2908 -24.3041,28.558 -22.5101,29.9924 -22.2279,30.0293 -21.8203,29.8722 -21.4301,29.7119 -21.057,29.549 -20.7012,29.3844 -20.3624,29.2185 -20.0406,29.0522 -19.7356,28.886 -19.4472,28.7206 -19.1752,28.5567 -18.9195,28.3948 -18.6798,28.2357 -18.4558,28.0798 -18.2474,27.928 -18.0542,27.7806 -17.8759,27.6383 -17.7121,27.5018 -17.5627,27.3715 -17.4271,27.248 -17.3051,27.1319 -17.1961,27.0237 -17.1,26.9238 -17.0161,26.8328 -16.9441,26.7512 -16.8835,26.6795 -16.8338,26.618 -16.7946,26.5673 -16.7654,26.5277 -16.7456,26.4997 -16.7348,26.4836 -15.2464,24.1283 -10.9224,26.3691 -11.9886,28.9432 -11.9955,28.9613 -12.007,28.9936 -12.0225,29.0403 -12.0413,29.1016 -12.0629,29.1776 -12.0866,29.2685 -12.1117,29.3744 -12.1377,29.4953 -12.1638,29.6315 -12.1895,29.7829 -12.214,29.9496 -12.2367,30.1315 -12.257,30.3288 -12.2741,30.5413 -12.2875,30.769 -12.2965,31.0118 -12.3004,31.2697 -12.2986,31.5425 -12.2904,31.8301 -12.2752,32.1324 -12.2524,32.4491 -12.2212,32.7801 -12.1811,33.1252 -12.1314,33.484 -12.0716,33.8564 -12.0009,34.2421 -11.9189,34.6407 -11.8249,35.052 -11.7182,35.4756 -11.5254,35.685 -9.319,36.3236 -9.0442,36.2497 -8.7278,35.9486 -8.4286,35.6511 -8.1463,35.3579 -7.8805,35.0696 -7.631,34.7868 -7.3973,34.5099 -7.1791,34.2397 -6.9759,33.9765 -6.7874,33.721 -6.6131,33.4736 -6.4525,33.2348 -6.3053,33.0051 -6.1708,32.785 -6.0487,32.575 -5.9384,32.3753 -5.8394,32.1865 -5.7512,32.0089 -5.6732,31.843 -5.6049,31.689 -5.5457,31.5473 -5.495,31.4182 -5.4523,31.3021 -5.417,31.1991 -5.3885,31.1096 -5.3662,31.0338 -5.3494,30.972 -5.3375,30.9242 -5.33,30.8908 -5.3261,30.8718 -4.8524,28.1262 0,28.5417 0.0001,31.3279 0.0006,31.3472 0.0024,31.3815 0.0059,31.4305 0.012,31.4944 0.0211,31.5728 0.034,31.6659 0.0513,31.7733 0.0736,31.895 0.1016,32.0308 0.1358,32.1805 0.177,32.3439 0.2256,32.5207 0.2824,32.7107 0.3478,32.9136 0.4226,33.1291 0.5072,33.3569 0.6023,33.5966 0.7084,33.848 0.826,34.1106 0.9557,34.384 1.098,34.6679 1.2535,34.9617 1.4226,35.2652 1.6058,35.5777 1.8036,35.8988 2.0165,36.2281 2.2448,36.565 2.4891,36.909 2.7497,37.2596 3.008,37.3792 5.2908,37.1249 5.5164,36.9514 5.6935,36.5521 5.8561,36.1628 6.0047,35.7839 6.1399,35.4158 6.2622,35.059 6.3721,34.7138 6.4703,34.3806 6.5573,34.0598 6.6337,33.7515 6.7001,33.4563 6.757,33.1742 6.8052,32.9057 6.8452,32.6509 6.8776,32.4101 6.9031,32.1834 6.9223,31.9711 6.9359,31.7733 6.9444,31.5901 6.9486,31.4217 6.9491,31.2681 6.9465,31.1295 6.9415,31.0059 6.9347,30.8972 6.9268,30.8036 6.9185,30.7251 6.9103,30.6615 6.903,30.6128 6.8971,30.579 6.8934,30.56 6.2804,27.8421 10.9224,26.3691 11.9887,28.9431 11.9966,28.9608 12.0114,28.9918 12.0334,29.0358 12.0634,29.0924 12.1019,29.1614 12.1494,29.2424 12.2065,29.3351 12.2737,29.439 12.3515,29.5538 12.4404,29.679 12.541,29.8141 12.6536,29.9589 12.7787,30.1127 12.9168,30.2751 13.0684,30.4456 13.2337,30.6236 13.4133,30.8087 13.6075,31.0004 13.8167,31.198 14.0411,31.4009 14.2813,31.6087 14.5374,31.8207 14.8097,32.0364 15.0986,32.255 15.4042,32.476 15.7269,32.6988 16.0668,32.9226 16.4241,33.147 16.799,33.3711 17.0834,33.3827 19.0951,32.2742 19.2372,32.0276 19.248,31.5909 19.2492,31.169 19.2416,30.7621 19.2256,30.3703 19.202,29.9939 19.1715,29.6329 19.1347,29.2875 19.0923,28.9577 19.0449,28.6438 18.9932,28.3456 18.9379,28.0632 18.8796,27.7967 18.8191,27.546 18.7569,27.311 18.6937,27.0919 18.6302,26.8884 18.567,26.7004 18.5048,26.5279 18.4443,26.3707 18.3859,26.2287 18.3305,26.1016 18.2785,25.9893 18.2307,25.8915 18.1876,25.8081 18.1498,25.7387 18.1179,25.6831 18.0925,25.6409 18.0742,25.6119 18.0635,25.5958 16.4571,23.3193 20.182,20.182 22.1522,22.1521 22.1663,22.1654 22.1917,22.1884 22.229,22.2205 22.2783,22.2614 22.3403,22.3104 22.4152,22.3671 22.5034,22.4309 22.6053,22.5011 22.7211,22.5774 22.8511,22.659 22.9957,22.7455 23.1551,22.8361 23.3296,22.9303 23.5194,23.0275 23.7246,23.127 23.9455,23.2282 24.1823,23.3305 24.435,23.4332 24.7039,23.5357 24.9889,23.6374 25.2903,23.7374 25.608,23.8353 25.9422,23.9303 26.2927,24.0218 26.6597,24.109 27.043,24.1913 27.4427,24.2681 27.8587,24.3386 28.2908,24.4022 28.558,24.3041 29.9924,22.5101 30.0293,22.2279 29.8722,21.8203 29.7119,21.4301 29.549,21.057 29.3844,20.7012 29.2185,20.3624 29.0522,20.0406 28.886,19.7356 28.7206,19.4472 28.5567,19.1752 28.3948,18.9195 28.2357,18.6798 28.0798,18.4558 27.928,18.2474 27.7806,18.0542 27.6383,17.8759 27.5018,17.7121 27.3715,17.5627 27.248,17.4271 27.1319,17.3051 27.0237,17.1961 26.9238,17.1 26.8328,17.0161 26.7512,16.9441 26.6795,16.8835 26.618,16.8338 26.5673,16.7946 26.5277,16.7654 26.4997,16.7456 26.4836,16.7348 24.1283,15.2464 26.3691,10.9224 28.9432,11.9886 28.9613,11.9955 28.9936,12.007 29.0403,12.0225 29.1016,12.0413 29.1776,12.0629 29.2685,12.0866 29.3744,12.1117 29.4953,12.1377 29.6315,12.1638 29.7829,12.1895 29.9496,12.214 30.1315,12.2367 30.3288,12.257 30.5413,12.2741 30.769,12.2875 31.0118,12.2965 31.2697,12.3004 31.5425,12.2986 31.8301,12.2904 32.1324,12.2752 32.4491,12.2524 32.7801,12.2212 33.1252,12.1811 33.484,12.1314 33.8564,12.0716 34.2421,12.0009 34.6407,11.9189 35.052,11.8249 35.4756,11.7182 35.685,11.5254 36.3236,9.319 36.2497,9.0442 35.9486,8.7278 35.6511,8.4286 35.3579,8.1463 35.0696,7.8805 34.7868,7.631 34.5099,7.3973 34.2397,7.1791 33.9765,6.9759 33.721,6.7874 33.4736,6.6131 33.2348,6.4525 33.0051,6.3053 32.785,6.1708 32.575,6.0487 32.3753,5.9384 32.1865,5.8394 32.0089,5.7512 31.843,5.6732 31.689,5.6049 31.5473,5.5457 31.4182,5.495 31.3021,5.4523 31.1991,5.417 31.1096,5.3885 31.0338,5.3662 30.972,5.3494 30.9242,5.3375 30.8908,5.33 30.8718,5.3261 28.1262,4.8524 "/><g class="guides"><polyline fill="none" stroke="#444" stroke-width="0.5" stroke-miterlimit="10" points="10,0 -10,0"/><polyline fill="none" stroke="#444" stroke-width="0.5" stroke-miterlimit="10" points="0,10 0,-10"/></g><circle fill="#c00" class="firstmarker" stroke="none" stroke-miterlimit="10" cx="33.1285" cy="-3.6901" r="1.6354"/><g class="geartext"><g class="text"><polyline fill="none" stroke="#444" stroke-width="0.5" stroke-linecap="square" stroke-miterlimit="1"  points="-15.9 -14.84 -16.35 -14.33 -16.79 -13.82 -17.22 -13.29 -17.62 -12.74 "/><polyline fill="none" stroke="#444" stroke-width="0.5" stroke-linecap="square" stroke-miterlimit="1"  points="-15.74 -12.95 -17.84 -14.68 "/><polyline fill="none" stroke="#444" stroke-width="0.5" stroke-linecap="square" stroke-miterlimit="1"  points="-16.89 -15.77 -16.86 -14.78 -16.79 -13.82 -16.68 -12.87 -16.52 -11.94 "/><polyline fill="none" stroke="#444" stroke-width="0.5" stroke-linecap="square" stroke-miterlimit="1"  points="-14.9 -13.91 -15.84 -13.89 -16.79 -13.82 -17.75 -13.7 -18.72 -13.54 "/><polyline fill="none" stroke="#444" stroke-width="0.5" stroke-linecap="square" stroke-miterlimit="1"  points="-15.87 -16.79 -15.79 -17.79 -13.08 -14.74 "/><polyline fill="none" stroke="#444" stroke-width="0.5" stroke-linecap="square" stroke-miterlimit="1"  points="-12.62 -15.14 -13.08 -14.74 -13.54 -14.32 "/><polyline fill="none" stroke="#444" stroke-width="0.5" stroke-linecap="square" stroke-miterlimit="1"  points="-8.18 -22.33 -6.78 -18.51 -7.73 -19.23 -8.74 -19.91 -9.8 -20.55 -10.9 -21.14 -9.03 -17.52 "/><polyline fill="none" stroke="#444" stroke-width="0.5" stroke-linecap="square" stroke-miterlimit="1"  points="-3.65 -22.13 -4.34 -22 -5.03 -21.85 -5.71 -21.69 -6.38 -21.5 "/><polyline fill="none" stroke="#444" stroke-width="0.5" stroke-linecap="square" stroke-miterlimit="1"  points="-3.43 -20.79 -4.08 -20.67 -4.72 -20.53 -5.36 -20.37 -6 -20.2 "/><polyline fill="none" stroke="#444" stroke-width="0.5" stroke-linecap="square" stroke-miterlimit="1"  points="-2.33 -22.99 -1.66 -23.73 -1.38 -19.66 "/><polyline fill="none" stroke="#444" stroke-width="0.5" stroke-linecap="square" stroke-miterlimit="1"  points="-0.76 -19.69 -1.38 -19.66 -1.99 -19.61 "/><polyline fill="none" stroke="#444" stroke-width="0.5" stroke-linecap="square" stroke-miterlimit="1"  points="0.52 -21.74 1.2 -21.71 1.88 -21.66 2.55 -21.6 3.13 -20.83 3.02 -20.16 2.31 -19.57 1.7 -19.63 1.09 -19.68 0.49 -20.38 0.54 -22.42 1.27 -23.07 2.05 -23.7 2.79 -23.62 "/><polyline fill="none" stroke="#444" stroke-width="0.5" stroke-linecap="square" stroke-miterlimit="1"  points="7.82 -20.29 8.45 -20.04 9.07 -19.76 9.68 -19.47 10.61 -19.76 10.93 -20.36 10.59 -21.3 9.92 -21.62 9.24 -21.92 8.55 -22.2 7.08 -18.39 "/><polyline fill="none" stroke="#444" stroke-width="0.5" stroke-linecap="square" stroke-miterlimit="1"  points="10.39 -16.75 11.82 -19.06 "/><polyline fill="none" stroke="#444" stroke-width="0.5" stroke-linecap="square" stroke-miterlimit="1"  points="12.18 -19.63 12.54 -20.21 "/><polyline fill="none" stroke="#444" stroke-width="0.5" stroke-linecap="square" stroke-miterlimit="1"  points="13.79 -15.02 12.87 -14.93 12.82 -15.85 14.96 -18.49 "/><polyline fill="none" stroke="#444" stroke-width="0.5" stroke-linecap="square" stroke-miterlimit="1"  points="15.17 -16.52 14.64 -16.99 14.1 -17.44 13.55 -17.87 12.99 -18.28 "/><polyline fill="none" stroke="#444" stroke-width="0.5" stroke-linecap="square" stroke-miterlimit="1"  points="15.8 -11.78 15.42 -12.27 15.03 -12.74 14.63 -13.21 14.7 -14.13 15.68 -15.07 16.65 -15.03 17.11 -14.5 17.55 -13.96 17.98 -13.4 "/><polyline fill="none" stroke="#444" stroke-width="0.5" stroke-linecap="square" stroke-miterlimit="1"  points="17.64 -11.51 18.57 -11.31 19.51 -11.06 19.85 -10.44 19.55 -9.52 17.72 -8.63 "/><polyline fill="none" stroke="#444" stroke-width="0.5" stroke-linecap="square" stroke-miterlimit="1"  points="16.5 -10.77 19.92 -13 "/><polyline fill="none" stroke="#444" stroke-width="0.5" stroke-linecap="square" stroke-miterlimit="1"  points="19.17 -4.58 19.3 -3.98 19.42 -3.37 19.51 -2.76 20.27 -2.23 22.97 -2.52 23.55 -3.33 23.43 -4.07 23.3 -4.8 23.13 -5.52 "/><polyline fill="none" stroke="#444" stroke-width="0.5" stroke-linecap="square" stroke-miterlimit="1"  points="23.3 -4.8 19.3 -3.98 "/><polyline fill="none" stroke="#444" stroke-width="0.5" stroke-linecap="square" stroke-miterlimit="1"  points="22.36 1.75 22.4 1.05 22.42 0.35 22.42 -0.35 22.4 -1.05 "/><polyline fill="none" stroke="#444" stroke-width="0.5" stroke-linecap="square" stroke-miterlimit="1"  points="21 1.64 21.04 0.99 21.06 0.33 21.06 -0.33 21.04 -0.99 "/><polyline fill="none" stroke="#444" stroke-width="0.5" stroke-linecap="square" stroke-miterlimit="1"  points="19.02 5.17 19.17 4.58 19.3 3.98 19.42 3.37 19.51 2.76 20.86 2.95 21.43 3.72 21.3 4.39 21.15 5.05 21.64 5.89 22.29 6.07 23.13 5.52 23.3 4.8 23.43 4.07 22.88 3.24 "/><polyline fill="none" stroke="#444" stroke-width="0.5" stroke-linecap="square" stroke-miterlimit="1"  points="19.3 6.57 18.66 6.35 "/><polyline fill="none" stroke="#444" stroke-width="0.5" stroke-linecap="square" stroke-miterlimit="1"  points="20.11 8.28 19.84 8.9 19.55 9.52 19.24 10.13 18.33 10.39 17.74 10.05 17.44 9.18 17.72 8.63 17.98 8.07 18.85 7.76 20.74 8.54 21.08 9.46 21.38 10.41 21.05 11.08 "/><polyline fill="none" stroke="#444" stroke-width="0.5" stroke-linecap="square" stroke-miterlimit="1"  points="19.92 13 19.5 13.61 19.07 14.22 18.62 14.8 18.14 15.38 17.02 13.54 15.8 11.78 "/><polyline fill="none" stroke="#444" stroke-width="0.5" stroke-linecap="square" stroke-miterlimit="1"  points="13.14 17.33 12.59 17.73 12.03 18.11 11.46 18.48 11.22 19.42 11.56 20.01 12.54 20.21 13.16 19.81 13.77 19.39 14.37 18.95 11.91 15.7 "/><polyline fill="none" stroke="#444" stroke-width="0.5" stroke-linecap="square" stroke-miterlimit="1"  points="7.4 21.17 8.06 20.93 8.71 20.66 9.35 20.38 9.98 20.08 "/><polyline fill="none" stroke="#444" stroke-width="0.5" stroke-linecap="square" stroke-miterlimit="1"  points="6.95 19.89 7.57 19.66 8.18 19.41 8.79 19.15 9.38 18.86 "/><polyline fill="none" stroke="#444" stroke-width="0.5" stroke-linecap="square" stroke-miterlimit="1"  points="5.88 20.94 5.23 21.11 4.56 21.26 3.9 21.39 3.13 20.83 3.02 20.16 3.53 19.39 4.14 19.27 4.74 19.13 5.51 19.63 6.07 21.59 5.55 22.43 4.99 23.26 4.26 23.4 "/><polyline fill="none" stroke="#444" stroke-width="0.5" stroke-linecap="square" stroke-miterlimit="1"  points="-1.52 21.69 -2.19 21.64 -2.87 21.56 -3.54 21.46 -4.34 22 -4.47 22.67 -3.87 23.47 -3.14 23.58 -2.4 23.66 -1.66 23.73 -1.38 19.66 "/><polyline fill="none" stroke="#444" stroke-width="0.5" stroke-linecap="square" stroke-miterlimit="1"  points="-5.02 19.06 -5.36 20.37 -6.38 21.5 -7.48 22.58 -7.71 21.06 -7.86 19.55 -7.35 18.28 "/><polyline fill="none" stroke="#444" stroke-width="0.5" stroke-linecap="square" stroke-miterlimit="1"  points="-5.36 20.37 -6 20.2 -6.62 20 -7.24 19.78 -7.86 19.55 "/><polyline fill="none" stroke="#444" stroke-width="0.5" stroke-linecap="square" stroke-miterlimit="1"  points="-12.1 18.88 -11.5 19.25 -10.9 19.6 -10.28 19.93 -9.65 20.24 "/><polyline fill="none" stroke="#444" stroke-width="0.5" stroke-linecap="square" stroke-miterlimit="1"  points="-11.37 17.74 -10.81 18.08 -10.24 18.41 -9.65 18.72 -9.06 19.02 "/><polyline fill="none" stroke="#444" stroke-width="0.5" stroke-linecap="square" stroke-miterlimit="1"  points="-13.54 14.32 -13.08 14.74 -12.62 15.14 -12.14 15.53 -11.65 15.9 -12.45 16.99 -13.39 17.13 -13.92 16.7 -14.44 16.26 -15.41 16.3 -15.87 16.79 -15.79 17.79 -15.23 18.27 -14.65 18.74 -13.66 18.64 "/><polyline fill="none" stroke="#444" stroke-width="0.5" stroke-linecap="square" stroke-miterlimit="1"  points="-16.14 12.45 -15.22 12.52 -14.82 12.99 -14.9 13.91 -16.89 15.77 -17.89 15.68 -18.37 15.11 -18.29 14.12 -16.14 12.45 "/></g></g><g class="guides gearguides" opacity="0.2"><circle class="pitch" fill="none" stroke="#f00" stroke-miterlimit="10" cx="0" cy="0" r="33.33"/><circle class="outer" fill="none" stroke="#ccc" stroke-miterlimit="10" stroke-dasharray="2,2" cx="0" cy="0" r="37.5"/><circle class="base" fill="none" stroke="#00f" stroke-miterlimit="10" stroke-dasharray="2,2" cx="0" cy="0" r="31.32"/></g></svg>