<?xml version="1.0" encoding="utf-8"?><!-- Generator: Iparigrafika Gear Generator by Abel Vincze http://geargenerator.com/ --><svg version="1.2" class="svggear" xmlns="http://www.w3.org/2000/svg" xmlns:xlink="http://www.w3.org/1999/xlink" x="0px" y="0px" width="196px" height="196px" viewBox="-98 -98 196 196" overflow="scroll" xml:space="preserve"><polygon id="gearpoly0" data-id="0" class="gear" fill="#ddd" stroke="#444" stroke-width="1" stroke-miterlimit="10" points="88.9583,0 89.1763,-0.1135 89.2849,-0.1312 89.3986,-0.1505 89.5173,-0.1717 89.641,-0.1948 89.7698,-0.2198 89.9036,-0.2469 90.0424,-0.2761 90.1861,-0.3075 90.3347,-0.3412 90.4882,-0.3773 90.6466,-0.4158 90.8098,-0.4569 90.9779,-0.5005 91.1507,-0.5468 91.3282,-0.5959 91.5105,-0.6477 91.6974,-0.7025 91.889,-0.7603 92.0852,-0.8211 92.286,-0.8851 92.4913,-0.9522 92.7011,-1.0227 92.9153,-1.0964 93.134,-1.1736 93.3571,-1.2543 93.5845,-1.3386 93.8162,-1.4265 94.0521,-1.5182 94.2923,-1.6136 94.5366,-1.7128 94.7851,-1.816 95.0376,-1.9232 95.2941,-2.0345 95.5546,-2.1499 95.8191,-2.2694 96.0874,-2.3933 96.3595,-2.5215 96.6354,-2.6541 96.9151,-2.7912 97.1984,-2.9328 97.4853,-3.079 97.7758,-3.2298 97.8584,-3.3781 97.7168,-6.2538 97.62,-6.3933 97.3161,-6.5149 97.0162,-6.6322 96.7203,-6.7452 96.4286,-6.8542 96.141,-6.959 95.8575,-7.0598 95.5784,-7.1567 95.3035,-7.2497 95.0329,-7.339 94.7666,-7.4245 94.5048,-7.5063 94.2474,-7.5846 93.9945,-7.6594 93.7462,-7.7308 93.5024,-7.7988 93.2632,-7.8635 93.0286,-7.925 92.7987,-7.9834 92.5734,-8.0387 92.353,-8.0911 92.1373,-8.1406 91.9263,-8.1872 91.7203,-8.2311 91.519,-8.2724 91.3227,-8.3111 91.1313,-8.3472 90.9448,-8.3809 90.7633,-8.4123 90.5868,-8.4414 90.4153,-8.4683 90.2488,-8.4931 90.0874,-8.5159 89.9311,-8.5367 89.7799,-8.5556 89.6338,-8.5728 89.4928,-8.5882 89.357,-8.602 89.2264,-8.6143 89.101,-8.6251 88.9807,-8.6345 88.8657,-8.6426 88.7559,-8.6495 88.5278,-8.741 88.0926,-12.3806 88.2927,-12.5234 88.3977,-12.5559 88.5076,-12.5909 88.6222,-12.6284 88.7416,-12.6685 88.8656,-12.7112 88.9943,-12.7567 89.1277,-12.8049 89.2656,-12.856 89.4081,-12.9101 89.5551,-12.9672 89.7066,-13.0274 89.8625,-13.0907 90.0228,-13.1573 90.1875,-13.2272 90.3565,-13.3005 90.5298,-13.3772 90.7072,-13.4575 90.8889,-13.5414 91.0748,-13.6289 91.2647,-13.7202 91.4586,-13.8153 91.6566,-13.9142 91.8585,-14.0171 92.0643,-14.124 92.274,-14.2349 92.4874,-14.35 92.7046,-14.4693 92.9255,-14.5929 93.1501,-14.7208 93.3782,-14.8531 93.6099,-14.9899 93.845,-15.1312 94.0836,-15.277 94.3255,-15.4276 94.5707,-15.5828 94.8192,-15.7428 95.0708,-15.9076 95.3256,-16.0773 95.5834,-16.252 95.8443,-16.4316 96.1081,-16.6163 96.3747,-16.8061 96.4359,-16.9645 95.8954,-19.7925 95.7802,-19.9171 95.4623,-19.9952 95.149,-20.0697 94.8403,-20.1405 94.5362,-20.2077 94.2368,-20.2715 93.9421,-20.3319 93.6522,-20.389 93.367,-20.4429 93.0866,-20.4936 92.8111,-20.5412 92.5404,-20.5858 92.2747,-20.6275 92.0138,-20.6664 91.7579,-20.7025 91.507,-20.7359 91.2611,-20.7667 91.0203,-20.7949 90.7845,-20.8208 90.5538,-20.8442 90.3281,-20.8654 90.1076,-20.8844 89.8923,-20.9012 89.6821,-20.916 89.4771,-20.9289 89.2773,-20.9398 89.0827,-20.949 88.8933,-20.9564 88.7092,-20.9622 88.5304,-20.9665 88.3568,-20.9693 88.1885,-20.9707 88.0255,-20.9708 87.8678,-20.9696 87.7154,-20.9673 87.5683,-20.964 87.4266,-20.9596 87.2902,-20.9544 87.1592,-20.9484 87.0334,-20.9416 86.9131,-20.9342 86.7981,-20.9262 86.6884,-20.9177 86.4498,-20.9767 85.5122,-24.5202 85.6905,-24.6895 85.79,-24.7363 85.8939,-24.7863 86.0022,-24.8394 86.1148,-24.8956 86.2317,-24.9552 86.3528,-25.0181 86.4782,-25.0845 86.6076,-25.1543 86.7412,-25.2276 86.8789,-25.3046 87.0205,-25.3853 87.1661,-25.4697 87.3156,-25.558 87.4689,-25.6502 87.6261,-25.7462 87.787,-25.8464 87.9516,-25.9506 88.1198,-26.0589 88.2916,-26.1714 88.467,-26.2882 88.6459,-26.4094 88.8281,-26.5349 89.0137,-26.6649 89.2027,-26.7994 89.3949,-26.9385 89.5902,-27.0821 89.7887,-27.2305 89.9903,-27.3836 90.1948,-27.5415 90.4023,-27.7043 90.6127,-27.872 90.8259,-28.0446 91.0418,-28.2223 91.2604,-28.405 91.4816,-28.5928 91.7054,-28.7859 91.9317,-28.9841 92.1604,-29.1876 92.3914,-29.3964 92.6247,-29.6106 92.8602,-29.8303 93.0979,-30.0554 93.1364,-30.2207 92.2076,-32.9459 92.0761,-33.0533 91.7505,-33.0864 91.4299,-33.1165 91.1143,-33.1437 90.8038,-33.168 90.4985,-33.1895 90.1982,-33.2083 89.9032,-33.2244 89.6133,-33.2381 89.3286,-33.2493 89.0491,-33.2581 88.7748,-33.2646 88.5058,-33.2689 88.2421,-33.2711 87.9837,-33.2712 87.7306,-33.2694 87.4828,-33.2657 87.2404,-33.2601 87.0033,-33.2529 86.7715,-33.244 86.5452,-33.2336 86.3242,-33.2217 86.1086,-33.2084 85.8984,-33.1938 85.6936,-33.178 85.4942,-33.161 85.3002,-33.143 85.1117,-33.1241 84.9285,-33.1042 84.7508,-33.0835 84.5785,-33.0621 84.4117,-33.04 84.2503,-33.0174 84.0943,-32.9944 83.9437,-32.9709 83.7985,-32.9471 83.6588,-32.9231 83.5244,-32.8989 83.3955,-32.8747 83.2719,-32.8505 83.1538,-32.8264 83.041,-32.8025 82.9336,-32.7789 82.6891,-32.804 81.2675,-36.1826 81.4205,-36.375 81.5125,-36.4353 81.6084,-36.4992 81.7083,-36.5668 81.8119,-36.6382 81.9194,-36.7135 82.0306,-36.7926 82.1455,-36.8758 82.264,-36.9629 82.3861,-37.0542 82.5116,-37.1496 82.6407,-37.2492 82.7731,-37.353 82.9088,-37.4613 83.0479,-37.5738 83.1901,-37.6909 83.3355,-37.8124 83.484,-37.9385 83.6355,-38.0692 83.79,-38.2046 83.9474,-38.3446 84.1077,-38.4895 84.2707,-38.6392 84.4364,-38.7937 84.6048,-38.9532 84.7758,-39.1176 84.9492,-39.2871 85.1251,-39.4617 85.3034,-39.6414 85.484,-39.8262 85.6668,-40.0163 85.8518,-40.2116 86.0389,-40.4122 86.228,-40.6182 86.4191,-40.8296 86.612,-41.0464 86.8067,-41.2686 87.0032,-41.4964 87.2013,-41.7298 87.4011,-41.9688 87.6023,-42.2133 87.8049,-42.4636 88.0089,-42.7196 88.0241,-42.8886 86.725,-45.4581 86.5799,-45.5462 86.2528,-45.5336 85.9312,-45.5188 85.6149,-45.5018 85.3041,-45.4826 84.9987,-45.4614 84.6987,-45.4383 84.4043,-45.4132 84.1153,-45.3864 83.8318,-45.3578 83.5538,-45.3277 83.2813,-45.296 83.0144,-45.2628 82.7529,-45.2282 82.497,-45.1924 82.2466,-45.1554 82.0018,-45.1172 81.7624,-45.078 81.5287,-45.0378 81.3004,-44.9968 81.0777,-44.9549 80.8605,-44.9124 80.6488,-44.8692 80.4427,-44.8255 80.2421,-44.7814 80.047,-44.7368 79.8575,-44.692 79.6734,-44.6469 79.4948,-44.6018 79.3217,-44.5566 79.1541,-44.5114 78.9919,-44.4663 78.8352,-44.4215 78.6839,-44.3769 78.5381,-44.3327 78.3976,-44.289 78.2626,-44.2457 78.1329,-44.2031 78.0086,-44.1612 77.8896,-44.12 77.776,-44.0797 77.6676,-44.0404 77.5645,-44.002 77.3189,-43.9929 75.4409,-47.1407 75.5657,-47.3525 75.6484,-47.425 75.7345,-47.5017 75.824,-47.5825 75.9167,-47.6677 76.0127,-47.7572 76.1118,-47.851 76.2139,-47.9493 76.3192,-48.0521 76.4273,-48.1595 76.5384,-48.2714 76.6523,-48.388 76.769,-48.5093 76.8884,-48.6354 77.0104,-48.7662 77.135,-48.9019 77.262,-49.0425 77.3915,-49.188 77.5234,-49.3385 77.6576,-49.4941 77.7939,-49.6547 77.9325,-49.8204 78.0731,-49.9913 78.2157,-50.1675 78.3602,-50.3488 78.5066,-50.5355 78.6548,-50.7274 78.8047,-50.9248 78.9562,-51.1275 79.1093,-51.3357 79.2639,-51.5493 79.4199,-51.7685 79.5773,-51.9932 79.7359,-52.2235 79.8957,-52.4594 80.0565,-52.701 80.2185,-52.9482 80.3813,-53.2011 80.545,-53.4598 80.7096,-53.7242 80.8748,-53.9944 81.0406,-54.2704 81.207,-54.5523 81.1985,-54.7218 79.5545,-57.0855 79.3985,-57.1525 79.0764,-57.0946 78.7599,-57.0351 78.4491,-56.9742 78.1439,-56.912 77.8445,-56.8485 77.5507,-56.7838 77.2626,-56.7181 76.9801,-56.6513 76.7034,-56.5835 76.4323,-56.515 76.1669,-56.4457 75.9071,-56.3757 75.653,-56.3051 75.4046,-56.234 75.1618,-56.1624 74.9246,-56.0905 74.6931,-56.0184 74.4672,-55.9461 74.2469,-55.8737 74.0321,-55.8013 73.823,-55.7289 73.6194,-55.6567 73.4214,-55.5847 73.2288,-55.5131 73.0419,-55.4418 72.8604,-55.3711 72.6843,-55.3008 72.5138,-55.2313 72.3487,-55.1624 72.189,-55.0943 72.0347,-55.0271 71.8857,-54.9609 71.7421,-54.8957 71.6038,-54.8317 71.4709,-54.7688 71.3431,-54.7072 71.2207,-54.6469 71.1034,-54.5881 70.9913,-54.5308 70.8843,-54.4751 70.7825,-54.421 70.6858,-54.3687 70.4438,-54.3254 68.146,-57.1813 68.2401,-57.4084 68.3119,-57.4917 68.3865,-57.5796 68.4638,-57.6721 68.5438,-57.7694 68.6264,-57.8713 68.7115,-57.9781 68.799,-58.0896 68.8889,-58.2061 68.981,-58.3274 69.0755,-58.4537 69.172,-58.5851 69.2707,-58.7214 69.3714,-58.8628 69.474,-59.0094 69.5785,-59.1611 69.6847,-59.318 69.7927,-59.4801 69.9023,-59.6475 70.0135,-59.8202 70.1262,-59.9983 70.2404,-60.1817 70.3558,-60.3705 70.4725,-60.5648 70.5904,-60.7645 70.7094,-60.9697 70.8294,-61.1804 70.9504,-61.3967 71.0723,-61.6185 71.1949,-61.846 71.3183,-62.0791 71.4422,-62.3178 71.5668,-62.5622 71.6918,-62.8124 71.8172,-63.0682 71.9429,-63.3298 72.0688,-63.5971 72.1949,-63.8703 72.321,-64.1492 72.4471,-64.434 72.5731,-64.7245 72.699,-65.021 72.8245,-65.3233 72.7925,-65.4899 70.8355,-67.6018 70.6717,-67.6464 70.3608,-67.5442 70.0556,-67.4413 69.7563,-67.3378 69.4628,-67.2337 69.1751,-67.1291 68.8932,-67.0242 68.617,-66.919 68.3466,-66.8135 68.082,-66.7079 67.8231,-66.6023 67.5699,-66.4967 67.3224,-66.3912 67.0806,-66.286 66.8445,-66.181 66.614,-66.0764 66.3892,-65.9722 66.1699,-65.8685 65.9563,-65.7655 65.7482,-65.6631 65.5456,-65.5615 65.3486,-65.4607 65.157,-65.3609 64.9709,-65.2621 64.7903,-65.1643 64.615,-65.0677 64.4451,-64.9724 64.2806,-64.8784 64.1214,-64.7857 63.9675,-64.6945 63.8188,-64.6049 63.6753,-64.5169 63.537,-64.4306 63.4039,-64.3461 63.2759,-64.2634 63.153,-64.1826 63.0351,-64.1038 62.9222,-64.0271 62.8142,-63.9526 62.7112,-63.8802 62.613,-63.8101 62.5197,-63.7424 62.4312,-63.6771 62.1976,-63.6006 59.5247,-66.1089 59.5862,-66.3469 59.6458,-66.4394 59.7074,-66.5368 59.7712,-66.6392 59.8368,-66.7466 59.9044,-66.8591 59.9738,-66.9766 60.0449,-67.0993 60.1177,-67.2271 60.1921,-67.3601 60.268,-67.4983 60.3454,-67.6418 60.4241,-67.7906 60.5041,-67.9446 60.5853,-68.104 60.6677,-68.2688 60.7511,-68.439 60.8355,-68.6145 60.9207,-68.7956 61.0068,-68.9821 61.0936,-69.1741 61.1811,-69.3716 61.2692,-69.5746 61.3577,-69.7832 61.4466,-69.9974 61.5359,-70.2172 61.6255,-70.4425 61.7152,-70.6736 61.805,-70.9102 61.8947,-71.1525 61.9845,-71.4005 62.074,-71.6542 62.1633,-71.9136 62.2523,-72.1786 62.3409,-72.4495 62.4289,-72.726 62.5164,-73.0083 62.6033,-73.2963 62.6894,-73.5901 62.7746,-73.8896 62.8589,-74.1949 62.9423,-74.5059 63.0246,-74.8227 62.9696,-74.9833 60.7378,-76.8023 60.5694,-76.8237 60.2757,-76.6792 59.9878,-76.5349 59.7059,-76.3907 59.4297,-76.2467 59.1593,-76.1031 58.8947,-75.96 58.6359,-75.8173 58.3828,-75.6753 58.1355,-75.5339 57.8938,-75.3933 57.6578,-75.2535 57.4274,-75.1146 57.2026,-74.9767 56.9834,-74.8399 56.7697,-74.7042 56.5615,-74.5697 56.3588,-74.4366 56.1616,-74.3048 55.9698,-74.1744 55.7833,-74.0456 55.6022,-73.9184 55.4264,-73.7929 55.2559,-73.6692 55.0906,-73.5472 54.9305,-73.4272 54.7755,-73.3091 54.6257,-73.1931 54.4809,-73.0792 54.3412,-72.9675 54.2064,-72.858 54.0766,-72.7509 53.9517,-72.6462 53.8316,-72.544 53.7164,-72.4443 53.6059,-72.3472 53.5001,-72.2528 53.3989,-72.1611 53.3024,-72.0722 53.2105,-71.9862 53.123,-71.9032 53.0401,-71.8231 52.9615,-71.7462 52.7408,-71.6379 49.7449,-73.7498 49.7726,-73.994 49.8187,-74.0939 49.8662,-74.1989 49.9151,-74.3092 49.9652,-74.4247 50.0164,-74.5455 50.0688,-74.6715 50.1221,-74.8029 50.1765,-74.9396 50.2316,-75.0817 50.2876,-75.2291 50.3442,-75.382 50.4014,-75.5402 50.4592,-75.7039 50.5175,-75.8731 50.5761,-76.0477 50.635,-76.2278 50.6941,-76.4135 50.7534,-76.6046 50.8126,-76.8013 50.8719,-77.0035 50.931,-77.2112 50.99,-77.4245 51.0486,-77.6434 51.1069,-77.8679 51.1647,-78.098 51.222,-78.3336 51.2787,-78.5749 51.3347,-78.8217 51.3899,-79.0742 51.4442,-79.3322 51.4976,-79.5959 51.5499,-79.8652 51.6011,-80.1401 51.6512,-80.4206 51.6999,-80.7067 51.7472,-80.9984 51.7931,-81.2957 51.8375,-81.5985 51.8802,-81.907 51.9213,-82.2211 51.9605,-82.5407 51.9979,-82.8659 51.9211,-83.0173 49.4579,-84.5079 49.2882,-84.5057 49.0174,-84.3218 48.7525,-84.1387 48.4933,-83.9567 48.2398,-83.7757 47.9921,-83.5959 47.75,-83.4173 47.5135,-83.24 47.2827,-83.0641 47.0574,-82.8897 46.8377,-82.7168 46.6234,-82.5455 46.4146,-82.3759 46.2112,-82.2081 46.0131,-82.0421 45.8204,-81.878 45.633,-81.7159 45.4508,-81.5558 45.2738,-81.3978 45.102,-81.2421 44.9353,-81.0886 44.7737,-80.9374 44.617,-80.7886 44.4654,-80.6423 44.3187,-80.4986 44.1768,-80.3574 44.0398,-80.219 43.9076,-80.0832 43.7801,-79.9503 43.6572,-79.8202 43.539,-79.6931 43.4254,-79.5689 43.3162,-79.4479 43.2116,-79.3299 43.1113,-79.2151 43.0154,-79.1036 42.9238,-78.9954 42.8364,-78.8905 42.7532,-78.7891 42.6741,-78.6911 42.5991,-78.5967 42.528,-78.5059 42.4609,-78.4187 42.2575,-78.2808 38.9968,-79.9552 38.9903,-80.2009 39.022,-80.3062 39.0545,-80.4169 39.0875,-80.5329 39.121,-80.6542 39.1549,-80.7809 39.1892,-80.9131 39.2238,-81.0506 39.2586,-81.1935 39.2934,-81.3419 39.3283,-81.4957 39.3631,-81.6549 39.3978,-81.8196 39.4322,-81.9898 39.4664,-82.1654 39.5001,-82.3465 39.5334,-82.533 39.5661,-82.7251 39.5981,-82.9226 39.6295,-83.1256 39.66,-83.3341 39.6897,-83.548 39.7183,-83.7675 39.7459,-83.9924 39.7724,-84.2228 39.7977,-84.4587 39.8216,-84.7 39.8442,-84.9468 39.8652,-85.199 39.8848,-85.4567 39.9026,-85.7198 39.9188,-85.9883 39.9332,-86.2623 39.9456,-86.5416 39.9561,-86.8264 39.9645,-87.1165 39.9708,-87.4119 39.9749,-87.7127 39.9767,-88.0188 39.9761,-88.3302 39.973,-88.647 39.9674,-88.9689 39.9591,-89.2962 39.8621,-89.4354 37.2153,-90.5687 37.0476,-90.5429 36.8051,-90.323 36.5682,-90.1049 36.3368,-89.8886 36.111,-89.6741 35.8907,-89.4616 35.6759,-89.251 35.4664,-89.0426 35.2623,-88.8363 35.0634,-88.6322 34.8699,-88.4304 34.6815,-88.2309 34.4983,-88.0339 34.3203,-87.8394 34.1473,-87.6474 33.9793,-87.4581 33.8162,-87.2715 33.6581,-87.0876 33.5048,-86.9066 33.3564,-86.7284 33.2126,-86.5532 33.0736,-86.381 32.9392,-86.2119 32.8094,-86.0459 32.6841,-85.8831 32.5633,-85.7236 32.4469,-85.5674 32.3348,-85.4146 32.2271,-85.2652 32.1235,-85.1193 32.0242,-84.977 31.9289,-84.8382 31.8377,-84.7031 31.7505,-84.5718 31.6671,-84.4441 31.5877,-84.3204 31.512,-84.2004 31.4401,-84.0844 31.3718,-83.9724 31.3071,-83.8644 31.2459,-83.7605 31.1882,-83.6606 31.1339,-83.565 30.9517,-83.4001 27.4896,-84.6044 27.449,-84.8468 27.4658,-84.9555 27.4825,-85.0696 27.4991,-85.189 27.5154,-85.3139 27.5314,-85.4441 27.5469,-85.5797 27.562,-85.7207 27.5765,-85.8671 27.5904,-86.0188 27.6035,-86.176 27.6159,-86.3385 27.6273,-86.5065 27.6377,-86.6797 27.6471,-86.8584 27.6553,-87.0424 27.6622,-87.2318 27.6679,-87.4265 27.6722,-87.6266 27.675,-87.832 27.6762,-88.0427 27.6758,-88.2587 27.6736,-88.48 27.6697,-88.7066 27.6638,-88.9384 27.656,-89.1755 27.6461,-89.4178 27.6341,-89.6653 27.6199,-89.918 27.6033,-90.1759 27.5844,-90.439 27.563,-90.7071 27.5391,-90.9804 27.5126,-91.2588 27.4834,-91.5422 27.4513,-91.8306 27.4165,-92.1241 27.3786,-92.4225 27.3378,-92.7259 27.2939,-93.0342 27.2467,-93.3474 27.1964,-93.6655 27.1426,-93.9884 27.0271,-94.1127 24.2484,-94.8667 24.0859,-94.8178 23.8763,-94.5663 23.6721,-94.3173 23.4731,-94.0709 23.2794,-93.8271 23.0908,-93.5859 22.9073,-93.3476 22.7289,-93.112 22.5555,-92.8793 22.387,-92.6495 22.2234,-92.4227 22.0646,-92.199 21.9107,-91.9784 21.7614,-91.761 21.6168,-91.5468 21.4768,-91.336 21.3413,-91.1285 21.2103,-90.9244 21.0837,-90.7238 20.9615,-90.5267 20.8435,-90.3332 20.7298,-90.1433 20.6203,-89.9571 20.5148,-89.7747 20.4134,-89.5961 20.316,-89.4213 20.2224,-89.2504 20.1327,-89.0835 20.0468,-88.9206 19.9646,-88.7617 19.886,-88.6069 19.811,-88.4562 19.7394,-88.3098 19.6713,-88.1675 19.6066,-88.0296 19.5451,-87.8959 19.4869,-87.7666 19.4318,-87.6417 19.3798,-87.5213 19.3308,-87.4053 19.2847,-87.2939 19.2414,-87.187 19.2009,-87.0848 19.0434,-86.8961 15.4475,-87.6069 15.3735,-87.8413 15.375,-87.9512 15.3757,-88.0665 15.3754,-88.1871 15.3742,-88.313 15.3719,-88.4442 15.3685,-88.5806 15.3638,-88.7224 15.3578,-88.8693 15.3504,-89.0216 15.3415,-89.179 15.3311,-89.3417 15.319,-89.5095 15.3052,-89.6826 15.2896,-89.8608 15.2722,-90.0442 15.2527,-90.2327 15.2312,-90.4263 15.2076,-90.625 15.1818,-90.8288 15.1537,-91.0376 15.1232,-91.2515 15.0903,-91.4703 15.0548,-91.6941 15.0167,-91.9229 14.976,-92.1566 14.9325,-92.3952 14.8862,-92.6386 14.8369,-92.8869 14.7846,-93.14 14.7293,-93.3978 14.6708,-93.6604 14.6091,-93.9277 14.5441,-94.1997 14.4757,-94.4762 14.4038,-94.7574 14.3285,-95.0432 14.2495,-95.3334 14.1668,-95.6282 14.0804,-95.9274 13.9901,-96.231 13.896,-96.5389 13.7978,-96.8512 13.6661,-96.9583 10.8095,-97.3182 10.6554,-97.2471 10.4829,-96.9689 10.3153,-96.694 10.1526,-96.4222 9.9946,-96.1538 9.8414,-95.8888 9.6929,-95.6272 9.549,-95.3691 9.4097,-95.1145 9.2748,-94.8635 9.1444,-94.6162 9.0183,-94.3725 8.8965,-94.1327 8.7789,-93.8966 8.6655,-93.6644 8.5562,-93.4361 8.451,-93.2118 8.3496,-92.9914 8.2522,-92.7751 8.1586,-92.563 8.0687,-92.3549 7.9826,-92.1511 7.9,-91.9515 7.821,-91.7562 7.7454,-91.5651 7.6732,-91.3785 7.6044,-91.1963 7.5388,-91.0185 7.4764,-90.8452 7.4171,-90.6764 7.3608,-90.5122 7.3075,-90.3525 7.257,-90.1975 7.2094,-90.0472 7.1644,-89.9016 7.1222,-89.7607 7.0825,-89.6245 7.0453,-89.4932 7.0106,-89.3667 6.9782,-89.245 6.948,-89.1283 6.9201,-89.0164 6.8942,-88.9095 6.7644,-88.7008 3.1046,-88.9041 2.9987,-89.126 2.9849,-89.2351 2.9695,-89.3494 2.9525,-89.4687 2.9338,-89.5932 2.9133,-89.7228 2.8908,-89.8575 2.8665,-89.9972 2.8401,-90.1419 2.8116,-90.2916 2.7809,-90.4463 2.7479,-90.6059 2.7126,-90.7704 2.6749,-90.9399 2.6346,-91.1142 2.5918,-91.2934 2.5463,-91.4773 2.4981,-91.6661 2.447,-91.8596 2.3931,-92.0578 2.3362,-92.2606 2.2763,-92.4682 2.2132,-92.6803 2.1469,-92.897 2.0774,-93.1183 2.0045,-93.344 1.9283,-93.5742 1.8485,-93.8088 1.7651,-94.0478 1.6782,-94.2912 1.5875,-94.5388 1.493,-94.7907 1.3947,-95.0468 1.2925,-95.3071 1.1863,-95.5714 1.076,-95.8399 0.9616,-96.1124 0.8429,-96.3888 0.7201,-96.6692 0.5928,-96.9534 0.4612,-97.2415 0.3251,-97.5334 0.1845,-97.829 0.0392,-97.9167 -2.8397,-97.8755 -2.9825,-97.7837 -3.1146,-97.4842 -3.2423,-97.1885 -3.3656,-96.8968 -3.4847,-96.609 -3.5995,-96.3253 -3.7101,-96.0455 -3.8167,-95.7699 -3.9193,-95.4984 -4.0179,-95.2311 -4.1127,-94.968 -4.2036,-94.7092 -4.2908,-94.4547 -4.3744,-94.2046 -4.4544,-93.9589 -4.5308,-93.7176 -4.6039,-93.4808 -4.6735,-93.2485 -4.7399,-93.0207 -4.8031,-92.7976 -4.8631,-92.5791 -4.9201,-92.3652 -4.9741,-92.1561 -5.0251,-91.9517 -5.0734,-91.752 -5.1189,-91.5571 -5.1617,-91.3671 -5.2019,-91.1819 -5.2396,-91.0016 -5.2748,-90.8262 -5.3077,-90.6557 -5.3383,-90.4902 -5.3667,-90.3297 -5.393,-90.1742 -5.4172,-90.0238 -5.4394,-89.8783 -5.4597,-89.738 -5.4783,-89.6028 -5.4951,-89.4727 -5.5103,-89.3477 -5.5239,-89.2279 -5.536,-89.1132 -5.5467,-89.0037 -5.6461,-88.779 -9.2987,-88.471 -9.4344,-88.6759 -9.4633,-88.7821 -9.4944,-88.8931 -9.5279,-89.0089 -9.5637,-89.1296 -9.6021,-89.2551 -9.643,-89.3853 -9.6866,-89.5202 -9.7329,-89.6599 -9.7819,-89.8042 -9.8338,-89.9531 -9.8887,-90.1066 -9.9466,-90.2646 -10.0075,-90.4271 -10.0716,-90.5942 -10.139,-90.7656 -10.2096,-90.9415 -10.2837,-91.1217 -10.3612,-91.3062 -10.4421,-91.4949 -10.5267,-91.6879 -10.615,-91.8851 -10.707,-92.0864 -10.8027,-92.2917 -10.9024,-92.5012 -11.0059,-92.7146 -11.1135,-92.9319 -11.2252,-93.1531 -11.341,-93.3782 -11.461,-93.6071 -11.5852,-93.8397 -11.7138,-94.076 -11.8468,-94.3159 -11.9843,-94.5594 -12.1263,-94.8064 -12.2728,-95.0569 -12.4241,-95.3108 -12.58,-95.5681 -12.7407,-95.8286 -12.9062,-96.0924 -13.0767,-96.3594 -13.2521,-96.6294 -13.4325,-96.9026 -13.5886,-96.9692 -16.4337,-96.5277 -16.5623,-96.4169 -16.6515,-96.102 -16.7368,-95.7915 -16.8183,-95.4854 -16.8961,-95.1839 -16.9703,-94.8869 -17.041,-94.5945 -17.1082,-94.3067 -17.172,-94.0236 -17.2324,-93.7451 -17.2896,-93.4714 -17.3437,-93.2025 -17.3946,-92.9383 -17.4425,-92.679 -17.4875,-92.4245 -17.5297,-92.175 -17.5691,-91.9303 -17.6057,-91.6906 -17.6398,-91.4558 -17.6713,-91.226 -17.7003,-91.0013 -17.7269,-90.7816 -17.7513,-90.567 -17.7734,-90.3574 -17.7934,-90.153 -17.8113,-89.9537 -17.8273,-89.7595 -17.8413,-89.5705 -17.8536,-89.3868 -17.8641,-89.2082 -17.8729,-89.0348 -17.8802,-88.8666 -17.8859,-88.7037 -17.8903,-88.5461 -17.8933,-88.3937 -17.8951,-88.2466 -17.8957,-88.1048 -17.8953,-87.9683 -17.8938,-87.8372 -17.8914,-87.7113 -17.8882,-87.5907 -17.8843,-87.4755 -17.8796,-87.3656 -17.9468,-87.1292 -21.521,-86.3159 -21.6839,-86.4999 -21.7272,-86.601 -21.7735,-86.7066 -21.8228,-86.8167 -21.8751,-86.9312 -21.9306,-87.0501 -21.9892,-87.1734 -22.0511,-87.3009 -22.1164,-87.4328 -22.185,-87.5688 -22.2572,-87.709 -22.3329,-87.8534 -22.4122,-88.0019 -22.4952,-88.1543 -22.5819,-88.3108 -22.6725,-88.4712 -22.7669,-88.6355 -22.8653,-88.8037 -22.9677,-88.9756 -23.0742,-89.1512 -23.1848,-89.3306 -23.2996,-89.5135 -23.4187,-89.7001 -23.5421,-89.8901 -23.6699,-90.0836 -23.8022,-90.2805 -23.939,-90.4808 -24.0803,-90.6843 -24.2263,-90.8911 -24.377,-91.1011 -24.5324,-91.3141 -24.6927,-91.5302 -24.8578,-91.7493 -25.0278,-91.9713 -25.2027,-92.1961 -25.3828,-92.4238 -25.5678,-92.6542 -25.7581,-92.8872 -25.9535,-93.1229 -26.1541,-93.361 -26.3601,-93.6017 -26.5713,-93.8447 -26.788,-94.0901 -26.9519,-94.1343 -29.7079,-93.3012 -29.8198,-93.1736 -29.8642,-92.8493 -29.9055,-92.5299 -29.9436,-92.2155 -29.9787,-91.9061 -30.0109,-91.6016 -30.0402,-91.3022 -30.0666,-91.0079 -30.0904,-90.7187 -30.1115,-90.4345 -30.1301,-90.1555 -30.1462,-89.8817 -30.1598,-89.613 -30.1712,-89.3495 -30.1804,-89.0913 -30.1874,-88.8383 -30.1923,-88.5905 -30.1952,-88.348 -30.1963,-88.1108 -30.1955,-87.8789 -30.193,-87.6523 -30.1888,-87.431 -30.183,-87.2151 -30.1758,-87.0045 -30.1671,-86.7993 -30.1571,-86.5994 -30.1459,-86.4049 -30.1335,-86.2158 -30.1201,-86.0321 -30.1056,-85.8538 -30.0902,-85.6809 -30.074,-85.5134 -30.057,-85.3512 -30.0394,-85.1945 -30.0212,-85.0432 -30.0025,-84.8973 -29.9834,-84.7568 -29.9639,-84.6217 -29.9442,-84.492 -29.9244,-84.3677 -29.9044,-84.2487 -29.8844,-84.1352 -29.8646,-84.027 -29.8982,-83.7835 -33.3244,-82.4807 -33.5113,-82.6403 -33.5683,-82.7344 -33.6289,-82.8325 -33.693,-82.9347 -33.7607,-83.0408 -33.8322,-83.1508 -33.9074,-83.2647 -33.9865,-83.3824 -34.0694,-83.5039 -34.1564,-83.629 -34.2473,-83.7579 -34.3424,-83.8903 -34.4416,-84.0263 -34.545,-84.1657 -34.6526,-84.3086 -34.7646,-84.4548 -34.881,-84.6044 -35.0018,-84.7572 -35.1272,-84.9132 -35.2571,-85.0723 -35.3916,-85.2345 -35.5307,-85.3997 -35.6746,-85.5679 -35.8233,-85.7389 -35.9768,-85.9127 -36.1352,-86.0893 -36.2985,-86.2686 -36.4668,-86.4505 -36.6402,-86.6349 -36.8186,-86.8218 -37.0022,-87.0112 -37.1909,-87.2029 -37.3849,-87.3969 -37.5841,-87.593 -37.7887,-87.7913 -37.9986,-87.9917 -38.214,-88.1941 -38.4348,-88.3984 -38.6611,-88.6046 -38.8929,-88.8125 -39.1304,-89.0221 -39.3734,-89.2334 -39.6221,-89.4462 -39.7905,-89.4672 -42.4038,-88.2587 -42.4968,-88.1167 -42.4957,-87.7894 -42.4921,-87.4674 -42.4861,-87.1507 -42.4778,-86.8394 -42.4673,-86.5335 -42.4546,-86.2329 -42.4399,-85.9378 -42.4231,-85.648 -42.4045,-85.3637 -42.3841,-85.0848 -42.3619,-84.8114 -42.3381,-84.5435 -42.3127,-84.281 -42.2858,-84.0239 -42.2575,-83.7724 -42.2279,-83.5264 -42.197,-83.2858 -42.1651,-83.0508 -42.132,-82.8212 -42.098,-82.5972 -42.063,-82.3787 -42.0273,-82.1656 -41.9908,-81.9581 -41.9537,-81.7561 -41.916,-81.5596 -41.8778,-81.3685 -41.8392,-81.183 -41.8003,-81.003 -41.7611,-80.8284 -41.7218,-80.6593 -41.6825,-80.4956 -41.6431,-80.3375 -41.6039,-80.1847 -41.5648,-80.0374 -41.526,-79.8956 -41.4875,-79.7591 -41.4494,-79.628 -41.4118,-79.5023 -41.3749,-79.3819 -41.3385,-79.267 -41.303,-79.1573 -41.2682,-79.0529 -41.2677,-78.8071 -44.4792,-77.0402 -44.6865,-77.1722 -44.756,-77.2574 -44.8296,-77.3462 -44.9073,-77.4384 -44.9892,-77.534 -45.0753,-77.633 -45.1656,-77.7354 -45.2603,-77.8409 -45.3594,-77.9497 -45.4629,-78.0615 -45.5709,-78.1764 -45.6834,-78.2943 -45.8006,-78.4152 -45.9224,-78.5389 -46.0489,-78.6654 -46.1801,-78.7946 -46.3162,-78.9265 -46.4571,-79.061 -46.6029,-79.1981 -46.7537,-79.3376 -46.9095,-79.4795 -47.0703,-79.6237 -47.2362,-79.7702 -47.4072,-79.9188 -47.5834,-80.0696 -47.7648,-80.2224 -47.9515,-80.3772 -48.1435,-80.5339 -48.3408,-80.6925 -48.5435,-80.8527 -48.7517,-81.0147 -48.9653,-81.1783 -49.1843,-81.3433 -49.409,-81.5099 -49.6391,-81.6778 -49.8749,-81.847 -50.1163,-82.0175 -50.3634,-82.189 -50.6162,-82.3617 -50.8747,-82.5353 -51.139,-82.7099 -51.4091,-82.8853 -51.685,-83.0614 -51.8547,-83.0588 -54.2743,-81.4983 -54.3467,-81.3448 -54.3001,-81.0208 -54.2517,-80.7024 -54.2017,-80.3897 -54.1502,-80.0825 -54.0972,-79.781 -54.0428,-79.4852 -53.9871,-79.1949 -53.9302,-78.9103 -53.8722,-78.6314 -53.8131,-78.3581 -53.7531,-78.0904 -53.6922,-77.8284 -53.6305,-77.572 -53.5681,-77.3212 -53.5051,-77.076 -53.4415,-76.8365 -53.3775,-76.6026 -53.3131,-76.3743 -53.2485,-76.1516 -53.1836,-75.9345 -53.1186,-75.7229 -53.0535,-75.5169 -52.9885,-75.3165 -52.9236,-75.1216 -52.8589,-74.9323 -52.7945,-74.7484 -52.7305,-74.57 -52.6669,-74.3972 -52.6039,-74.2297 -52.5414,-74.0678 -52.4797,-73.9112 -52.4187,-73.76 -52.3585,-73.6142 -52.2993,-73.4738 -52.2411,-73.3387 -52.184,-73.2089 -52.1281,-73.0844 -52.0734,-72.9652 -52.02,-72.8511 -51.9681,-72.7423 -51.9176,-72.6387 -51.8686,-72.5402 -51.8339,-72.2968 -54.7682,-70.1001 -54.9919,-70.202 -55.0726,-70.2767 -55.1579,-70.3544 -55.2476,-70.4349 -55.342,-70.5182 -55.441,-70.6043 -55.5447,-70.693 -55.6532,-70.7844 -55.7664,-70.8783 -55.8845,-70.9746 -56.0074,-71.0734 -56.1353,-71.1745 -56.2681,-71.2778 -56.406,-71.3834 -56.5488,-71.4911 -56.6968,-71.6008 -56.8499,-71.7124 -57.0082,-71.826 -57.1716,-71.9414 -57.3404,-72.0586 -57.5144,-72.1774 -57.6937,-72.2979 -57.8783,-72.4198 -58.0684,-72.5433 -58.2639,-72.6681 -58.4648,-72.7941 -58.6712,-72.9215 -58.8831,-73.0499 -59.1006,-73.1794 -59.3236,-73.3099 -59.5523,-73.4413 -59.7866,-73.5736 -60.0265,-73.7066 -60.2721,-73.8402 -60.5234,-73.9745 -60.7804,-74.1092 -61.0432,-74.2444 -61.3118,-74.3799 -61.5862,-74.5157 -61.8663,-74.6517 -62.1523,-74.7878 -62.4442,-74.9239 -62.7419,-75.0599 -62.9096,-75.0337 -65.0885,-73.1516 -65.1388,-72.9895 -65.0475,-72.6752 -64.9553,-72.3666 -64.8623,-72.0639 -64.7685,-71.7669 -64.6741,-71.4757 -64.579,-71.1903 -64.4835,-70.9107 -64.3875,-70.6368 -64.2913,-70.3686 -64.1947,-70.1062 -64.0981,-69.8494 -64.0013,-69.5984 -63.9045,-69.3531 -63.8078,-69.1135 -63.7113,-68.8795 -63.615,-68.6511 -63.5191,-68.4284 -63.4236,-68.2113 -63.3285,-67.9997 -63.234,-67.7938 -63.1402,-67.5933 -63.0471,-67.3984 -62.9549,-67.209 -62.8635,-67.025 -62.7731,-66.8465 -62.6837,-66.6734 -62.5955,-66.5057 -62.5084,-66.3433 -62.4227,-66.1863 -62.3383,-66.0346 -62.2554,-65.8881 -62.1739,-65.7469 -62.0941,-65.6109 -62.0159,-65.4801 -61.9395,-65.3544 -61.8649,-65.2338 -61.7922,-65.1183 -61.7214,-65.0079 -61.6527,-64.9024 -61.5861,-64.8018 -61.5217,-64.7062 -61.4595,-64.6155 -61.3912,-64.3794 -63.9913,-61.7957 -64.227,-61.8654 -64.3173,-61.9282 -64.4125,-61.9932 -64.5126,-62.0604 -64.6177,-62.1298 -64.7277,-62.2012 -64.8428,-62.2747 -64.9629,-62.3501 -65.0881,-62.4273 -65.2184,-62.5063 -65.3539,-62.587 -65.4946,-62.6693 -65.6405,-62.7532 -65.7917,-62.8385 -65.9481,-62.9252 -66.1099,-63.0133 -66.2771,-63.1026 -66.4496,-63.193 -66.6276,-63.2846 -66.811,-63.3771 -66.9998,-63.4706 -67.1941,-63.5649 -67.394,-63.6599 -67.5994,-63.7557 -67.8103,-63.8521 -68.0268,-63.949 -68.2489,-64.0463 -68.4767,-64.144 -68.71,-64.242 -68.9491,-64.3402 -69.1938,-64.4385 -69.4442,-64.5369 -69.7003,-64.6352 -69.9621,-64.7334 -70.2297,-64.8313 -70.5029,-64.929 -70.782,-65.0263 -71.0668,-65.1231 -71.3574,-65.2194 -71.6538,-65.3151 -71.9559,-65.41 -72.2639,-65.5042 -72.5776,-65.5974 -72.7401,-65.5481 -74.6358,-63.3812 -74.6631,-63.2136 -74.5289,-62.915 -74.3947,-62.6223 -74.2604,-62.3355 -74.1262,-62.0545 -73.9922,-61.7792 -73.8583,-61.5098 -73.7248,-61.2462 -73.5917,-60.9883 -73.459,-60.7362 -73.3269,-60.4897 -73.1954,-60.249 -73.0647,-60.0139 -72.9347,-59.7844 -72.8056,-59.5605 -72.6774,-59.3422 -72.5503,-59.1295 -72.4243,-58.9223 -72.2995,-58.7206 -72.1759,-58.5243 -72.0537,-58.3335 -71.9329,-58.1481 -71.8136,-57.968 -71.6959,-57.7933 -71.5798,-57.6238 -71.4654,-57.4596 -71.3528,-57.3006 -71.2421,-57.1468 -71.1333,-56.9982 -71.0266,-56.8546 -70.9219,-56.7161 -70.8194,-56.5826 -70.7191,-56.4541 -70.6211,-56.3306 -70.5255,-56.2119 -70.4323,-56.0981 -70.3416,-55.9891 -70.2535,-55.8848 -70.1681,-55.7852 -70.0854,-55.6903 -70.0054,-55.6001 -69.9283,-55.5143 -69.8541,-55.4331 -69.7536,-55.2088 -71.9688,-52.2884 -72.2119,-52.3247 -72.3101,-52.3742 -72.4134,-52.4254 -72.5219,-52.478 -72.6356,-52.5321 -72.7545,-52.5876 -72.8787,-52.6443 -73.0081,-52.7022 -73.1428,-52.7612 -73.2829,-52.8213 -73.4283,-52.8824 -73.5791,-52.9443 -73.7352,-53.0071 -73.8968,-53.0705 -74.0638,-53.1346 -74.2363,-53.1993 -74.4143,-53.2645 -74.5977,-53.33 -74.7867,-53.3959 -74.9811,-53.462 -75.1812,-53.5283 -75.3867,-53.5946 -75.5979,-53.661 -75.8146,-53.7272 -76.0369,-53.7933 -76.2648,-53.8591 -76.4983,-53.9246 -76.7374,-53.9897 -76.9821,-54.0542 -77.2325,-54.1182 -77.4885,-54.1815 -77.7502,-54.2441 -78.0174,-54.3058 -78.2904,-54.3665 -78.569,-54.4263 -78.8532,-54.485 -79.1431,-54.5425 -79.4386,-54.5988 -79.7397,-54.6537 -80.0465,-54.7072 -80.359,-54.7591 -80.677,-54.8095 -81.0007,-54.8582 -81.1547,-54.7868 -82.7304,-52.377 -82.7341,-52.2073 -82.5597,-51.9303 -82.386,-51.6592 -82.2131,-51.3938 -82.0411,-51.1342 -81.8701,-50.8803 -81.7,-50.6321 -81.5311,-50.3896 -81.3634,-50.1528 -81.1969,-49.9216 -81.0318,-49.6959 -80.8681,-49.4758 -80.7059,-49.2612 -80.5453,-49.052 -80.3863,-48.8483 -80.229,-48.65 -80.0735,-48.457 -79.9199,-48.2694 -79.7682,-48.087 -79.6185,-47.9098 -79.471,-47.7379 -79.3255,-47.5711 -79.1823,-47.4093 -79.0414,-47.2527 -78.9028,-47.101 -78.7667,-46.9544 -78.6331,-46.8126 -78.5021,-46.6757 -78.3737,-46.5436 -78.248,-46.4163 -78.125,-46.2937 -78.0049,-46.1758 -77.8877,-46.0625 -77.7735,-45.9538 -77.6623,-45.8496 -77.5542,-45.7499 -77.4492,-45.6545 -77.3475,-45.5635 -77.249,-45.4768 -77.1539,-45.3944 -77.0622,-45.3161 -76.9739,-45.2419 -76.8891,-45.1719 -76.7584,-44.9637 -78.5455,-41.7634 -78.7913,-41.7655 -78.8955,-41.8009 -79.0049,-41.8372 -79.1197,-41.8742 -79.2398,-41.912 -79.3652,-41.9503 -79.4961,-41.9892 -79.6323,-42.0285 -79.7739,-42.0683 -79.921,-42.1083 -80.0735,-42.1485 -80.2314,-42.1888 -80.3948,-42.2292 -80.5636,-42.2696 -80.738,-42.3098 -80.9178,-42.3499 -81.1031,-42.3896 -81.2938,-42.429 -81.4901,-42.468 -81.6919,-42.5064 -81.8992,-42.5442 -82.112,-42.5813 -82.3303,-42.6176 -82.5541,-42.653 -82.7835,-42.6875 -83.0183,-42.721 -83.2586,-42.7533 -83.5045,-42.7845 -83.7558,-42.8144 -84.0127,-42.8429 -84.275,-42.8699 -84.5428,-42.8954 -84.8161,-42.9193 -85.0948,-42.9415 -85.379,-42.962 -85.6686,-42.9805 -85.9637,-42.9971 -86.2642,-43.0117 -86.57,-43.0242 -86.8813,-43.0344 -87.1979,-43.0424 -87.5199,-43.048 -87.8472,-43.0512 -87.9897,-42.959 -89.2148,-40.3535 -89.1948,-40.1849 -88.9835,-39.9349 -88.7738,-39.6905 -88.5657,-39.4518 -88.3592,-39.2186 -88.1545,-38.991 -87.9516,-38.7689 -87.7506,-38.5523 -87.5515,-38.3411 -87.3545,-38.1353 -87.1596,-37.9348 -86.9668,-37.7396 -86.7763,-37.5497 -86.5881,-37.3649 -86.4023,-37.1853 -86.219,-37.0108 -86.0382,-36.8414 -85.8599,-36.6769 -85.6843,-36.5174 -85.5115,-36.3628 -85.3414,-36.2131 -85.1741,-36.0681 -85.0098,-35.9279 -84.8485,-35.7924 -84.6902,-35.6615 -84.535,-35.5352 -84.3829,-35.4134 -84.2341,-35.2961 -84.0886,-35.1832 -83.9464,-35.0746 -83.8076,-34.9703 -83.6722,-34.8703 -83.5404,-34.7744 -83.4122,-34.6826 -83.2875,-34.5949 -83.1666,-34.5112 -83.0494,-34.4314 -82.936,-34.3554 -82.8264,-34.2833 -82.7207,-34.2149 -82.619,-34.1501 -82.5212,-34.089 -82.4275,-34.0313 -82.2691,-33.8434 -83.5935,-30.4255 -83.8372,-30.3934 -83.9452,-30.414 -84.0586,-30.4347 -84.1775,-30.4554 -84.3016,-30.476 -84.4312,-30.4965 -84.5662,-30.5168 -84.7066,-30.5368 -84.8524,-30.5565 -85.0036,-30.5756 -85.1602,-30.5942 -85.3222,-30.6122 -85.4896,-30.6295 -85.6624,-30.6459 -85.8406,-30.6615 -86.0242,-30.6762 -86.2133,-30.6897 -86.4077,-30.7022 -86.6075,-30.7134 -86.8126,-30.7234 -87.0232,-30.732 -87.2391,-30.7391 -87.4603,-30.7447 -87.6869,-30.7486 -87.9188,-30.7509 -88.156,-30.7513 -88.3985,-30.7499 -88.6463,-30.7465 -88.8993,-30.7411 -89.1577,-30.7336 -89.4212,-30.7239 -89.6899,-30.7119 -89.9639,-30.6975 -90.243,-30.6807 -90.5273,-30.6614 -90.8167,-30.6395 -91.1111,-30.6149 -91.4107,-30.5875 -91.7154,-30.5572 -92.025,-30.5241 -92.3397,-30.4879 -92.6593,-30.4487 -92.9839,-30.4063 -93.1122,-30.2951 -93.9626,-27.5444 -93.9194,-27.3803 -93.6754,-27.1621 -93.4337,-26.9493 -93.1944,-26.7419 -92.9575,-26.5397 -92.7231,-26.3428 -92.4912,-26.1511 -92.262,-25.9646 -92.0355,-25.7832 -91.8118,-25.6068 -91.5908,-25.4354 -91.3728,-25.2689 -91.1577,-25.1073 -90.9457,-24.9505 -90.7367,-24.7985 -90.5308,-24.6513 -90.3282,-24.5086 -90.1288,-24.3706 -89.9327,-24.2371 -89.74,-24.108 -89.5507,-23.9834 -89.3649,-23.8632 -89.1827,-23.7472 -89.0041,-23.6354 -88.8291,-23.5278 -88.6578,-23.4244 -88.4903,-23.3249 -88.3266,-23.2295 -88.1668,-23.1379 -88.0108,-23.0502 -87.8589,-22.9662 -87.7109,-22.886 -87.5671,-22.8094 -87.4273,-22.7364 -87.2917,-22.6668 -87.1603,-22.6008 -87.0331,-22.538 -86.9102,-22.4786 -86.7916,-22.4224 -86.6775,-22.3694 -86.5677,-22.3194 -86.4624,-22.2725 -86.3616,-22.2285 -86.1786,-22.0644 -87.0144,-18.4955 -87.2512,-18.4297 -87.3611,-18.4351 -87.4763,-18.4398 -87.5968,-18.4437 -87.7227,-18.4469 -87.8538,-18.4492 -87.9903,-18.4505 -88.1321,-18.4508 -88.2792,-18.4499 -88.4316,-18.4479 -88.5893,-18.4445 -88.7522,-18.4397 -88.9204,-18.4335 -89.0938,-18.4258 -89.2725,-18.4164 -89.4564,-18.4054 -89.6454,-18.3925 -89.8397,-18.3778 -90.0391,-18.3611 -90.2436,-18.3424 -90.4533,-18.3216 -90.6681,-18.2986 -90.888,-18.2733 -91.1129,-18.2457 -91.3428,-18.2157 -91.5778,-18.1831 -91.8178,-18.1479 -92.0627,-18.1101 -92.3125,-18.0696 -92.5673,-18.0262 -92.8269,-17.9799 -93.0914,-17.9306 -93.3606,-17.8782 -93.6347,-17.8227 -93.9135,-17.764 -94.197,-17.7021 -94.4852,-17.6367 -94.7781,-17.5679 -95.0755,-17.4955 -95.3776,-17.4196 -95.6841,-17.34 -95.9952,-17.2567 -96.3107,-17.1695 -96.4223,-17.0416 -96.8816,-14.1993 -96.816,-14.0428 -96.544,-13.8607 -96.2751,-13.6836 -96.0092,-13.5115 -95.7464,-13.3443 -95.4869,-13.1819 -95.2307,-13.0243 -94.9777,-12.8715 -94.7281,-12.7234 -94.482,-12.5798 -94.2394,-12.4409 -94.0003,-12.3063 -93.7648,-12.1763 -93.533,-12.0505 -93.3049,-11.9291 -93.0806,-11.8119 -92.86,-11.6989 -92.6434,-11.5899 -92.4306,-11.485 -92.2218,-11.384 -92.0171,-11.287 -91.8164,-11.1937 -91.6198,-11.1042 -91.4273,-11.0184 -91.2391,-10.9363 -91.055,-10.8576 -90.8753,-10.7825 -90.6999,-10.7107 -90.5289,-10.6423 -90.3623,-10.5771 -90.2001,-10.5151 -90.0425,-10.4563 -89.8893,-10.4004 -89.7407,-10.3476 -89.5968,-10.2976 -89.4574,-10.2504 -89.3228,-10.206 -89.1928,-10.1643 -89.0676,-10.1251 -88.9471,-10.0885 -88.8315,-10.0543 -88.7207,-10.0225 -88.6147,-9.9929 -88.4107,-9.8559 -88.7416,-6.2054 -88.967,-6.1074 -89.0766,-6.0974 -89.1913,-6.086 -89.3112,-6.0731 -89.4363,-6.0587 -89.5665,-6.0428 -89.7018,-6.0251 -89.8423,-6.0056 -89.9878,-5.9843 -90.1384,-5.961 -90.2941,-5.9357 -90.4548,-5.9084 -90.6205,-5.8788 -90.7911,-5.847 -90.9668,-5.8129 -91.1473,-5.7763 -91.3327,-5.7373 -91.5231,-5.6957 -91.7182,-5.6514 -91.9182,-5.6044 -92.1229,-5.5546 -92.3324,-5.502 -92.5466,-5.4463 -92.7655,-5.3877 -92.989,-5.3259 -93.2172,-5.261 -93.4499,-5.1928 -93.6872,-5.1212 -93.9289,-5.0463 -94.1752,-4.9679 -94.4258,-4.8859 -94.6808,-4.8003 -94.9402,-4.711 -95.2039,-4.6179 -95.4718,-4.5209 -95.744,-4.4201 -96.0203,-4.3152 -96.3007,-4.2063 -96.5852,-4.0933 -96.8737,-3.9761 -97.1662,-3.8546 -97.4626,-3.7288 -97.7629,-3.5985 -97.8556,-3.4564 -97.915,-0.5778 -97.8282,-0.4319 -97.5335,-0.2894 -97.2425,-0.1515 -96.9553,-0.0181 -96.6718,0.1109 -96.3922,0.2356 -96.1165,0.3559 -95.8448,0.4721 -95.577,0.5841 -95.3133,0.6919 -95.0537,0.7958 -94.7982,0.8957 -94.5469,0.9918 -94.2999,1.084 -94.0571,1.1725 -93.8186,1.2574 -93.5845,1.3386 -93.3548,1.4163 -93.1295,1.4906 -92.9087,1.5616 -92.6924,1.6292 -92.4807,1.6936 -92.2735,1.7548 -92.071,1.813 -91.8732,1.8682 -91.68,1.9205 -91.4916,1.9699 -91.3079,2.0165 -91.129,2.0605 -90.9549,2.1018 -90.7857,2.1406 -90.6214,2.177 -90.462,2.211 -90.3075,2.2426 -90.158,2.2721 -90.0134,2.2994 -89.8739,2.3246 -89.7394,2.3479 -89.6099,2.3692 -89.4856,2.3887 -89.3663,2.4065 -89.2521,2.4226 -89.1431,2.4371 -88.9219,2.5444 -88.7416,6.2054 -88.9512,6.3339 -89.0583,6.359 -89.1703,6.3863 -89.2872,6.4157 -89.4091,6.4473 -89.5358,6.4813 -89.6674,6.5176 -89.8038,6.5565 -89.9449,6.5978 -90.0908,6.6418 -90.2415,6.6885 -90.3968,6.738 -90.5567,6.7903 -90.7213,6.8456 -90.8905,6.9038 -91.0642,6.9651 -91.2424,7.0296 -91.425,7.0973 -91.6121,7.1683 -91.8036,7.2427 -91.9994,7.3205 -92.1996,7.4018 -92.4039,7.4867 -92.6125,7.5752 -92.8253,7.6675 -93.0422,7.7635 -93.2632,7.8635 -93.4882,7.9673 -93.7171,8.0752 -93.9501,8.1871 -94.1869,8.3032 -94.4275,8.4235 -94.6719,8.548 -94.9201,8.6769 -95.1719,8.8102 -95.4273,8.9479 -95.6864,9.0902 -95.9489,9.237 -96.2149,9.3886 -96.4843,9.5448 -96.757,9.7058 -97.0331,9.8717 -97.3123,10.0424 -97.3844,10.1961 -97.0425,13.0549 -96.9362,13.1873 -96.6246,13.2874 -96.3172,13.3835 -96.0142,13.4757 -95.7156,13.564 -95.4213,13.6485 -95.1316,13.7293 -94.8463,13.8065 -94.5656,13.8801 -94.2894,13.9503 -94.0179,14.017 -93.751,14.0804 -93.4888,14.1405 -93.2313,14.1975 -92.9785,14.2513 -92.7306,14.3022 -92.4874,14.35 -92.2491,14.395 -92.0157,14.4373 -91.7872,14.4768 -91.5636,14.5136 -91.345,14.5479 -91.1313,14.5797 -90.9227,14.6092 -90.7191,14.6363 -90.5205,14.6612 -90.327,14.6839 -90.1386,14.7045 -89.9554,14.7231 -89.7773,14.7399 -89.6043,14.7547 -89.4365,14.7679 -89.2739,14.7793 -89.1165,14.7892 -88.9643,14.7975 -88.8174,14.8044 -88.6757,14.81 -88.5393,14.8143 -88.4081,14.8174 -88.2823,14.8195 -88.1617,14.8205 -88.0464,14.8205 -87.9364,14.8197 -87.7024,14.8951 -87.0144,18.4955 -87.204,18.6519 -87.3065,18.6917 -87.4137,18.7342 -87.5254,18.7796 -87.6417,18.8279 -87.7624,18.8792 -87.8877,18.9335 -88.0173,18.9909 -88.1513,19.0515 -88.2897,19.1154 -88.4324,19.1826 -88.5793,19.2532 -88.7304,19.3273 -88.8857,19.4049 -89.0451,19.4861 -89.2086,19.571 -89.3761,19.6597 -89.5475,19.7521 -89.7229,19.8485 -89.9022,19.9488 -90.0853,20.0531 -90.2721,20.1614 -90.4627,20.2739 -90.657,20.3907 -90.8548,20.5116 -91.0562,20.637 -91.2611,20.7667 -91.4695,20.9008 -91.6812,21.0395 -91.8963,21.1828 -92.1146,21.3307 -92.3362,21.4833 -92.5609,21.6406 -92.7887,21.8028 -93.0195,21.9698 -93.2533,22.1418 -93.49,22.3187 -93.7296,22.5007 -93.9719,22.6877 -94.2169,22.8799 -94.4646,23.0773 -94.7149,23.28 -94.9676,23.488 -95.0176,23.6502 -94.2812,26.4336 -94.1575,26.5499 -93.835,26.6056 -93.5172,26.658 -93.2044,26.7071 -92.8963,26.753 -92.5932,26.7958 -92.295,26.8355 -92.0018,26.8722 -91.7135,26.906 -91.4303,26.937 -91.1521,26.9653 -90.879,26.991 -90.611,27.014 -90.3481,27.0346 -90.0903,27.0527 -89.8377,27.0686 -89.5902,27.0821 -89.348,27.0935 -89.1109,27.1029 -88.8791,27.1102 -88.6526,27.1156 -88.4313,27.1191 -88.2153,27.1209 -88.0046,27.121 -87.7992,27.1195 -87.5991,27.1165 -87.4044,27.1121 -87.2149,27.1063 -87.0309,27.0992 -86.8522,27.091 -86.6788,27.0817 -86.5108,27.0713 -86.3482,27.06 -86.191,27.0479 -86.0391,27.035 -85.8927,27.0214 -85.7516,27.0072 -85.6159,26.9924 -85.4856,26.9773 -85.3606,26.9617 -85.2411,26.946 -85.1269,26.93 -85.0181,26.9139 -84.7759,26.956 -83.5935,30.4255 -83.7595,30.6068 -83.8555,30.6605 -83.9557,30.7176 -84.06,30.7781 -84.1684,30.8421 -84.2809,30.9096 -84.3973,30.9808 -84.5177,31.0558 -84.642,31.1344 -84.7701,31.2169 -84.9021,31.3034 -85.0377,31.3937 -85.1771,31.4881 -85.32,31.5866 -85.4666,31.6892 -85.6166,31.796 -85.7702,31.9071 -85.9271,32.0225 -86.0874,32.1423 -86.2509,32.2666 -86.4177,32.3954 -86.5877,32.5287 -86.7608,32.6666 -86.9369,32.8092 -87.116,32.9566 -87.298,33.1087 -87.4828,33.2657 -87.6705,33.4275 -87.8609,33.5943 -88.0539,33.7661 -88.2495,33.943 -88.4477,34.1249 -88.6483,34.312 -88.8513,34.5043 -89.0567,34.7018 -89.2643,34.9046 -89.474,35.1128 -89.6859,35.3263 -89.8998,35.5453 -90.1157,35.7697 -90.3335,35.9997 -90.5532,36.2352 -90.7745,36.4763 -90.8014,36.6439 -89.6848,39.2977 -89.5462,39.3957 -89.219,39.406 -88.8971,39.4137 -88.5804,39.4187 -88.269,39.4213 -87.9628,39.4215 -87.662,39.4193 -87.3665,39.4148 -87.0764,39.4082 -86.7916,39.3995 -86.5122,39.3888 -86.2382,39.3762 -85.9695,39.3617 -85.7063,39.3455 -85.4485,39.3276 -85.1962,39.3081 -84.9492,39.2871 -84.7078,39.2647 -84.4717,39.2409 -84.2412,39.2159 -84.0161,39.1897 -83.7965,39.1624 -83.5823,39.1341 -83.3736,39.1049 -83.1704,39.0749 -82.9727,39.044 -82.7805,39.0125 -82.5937,38.9805 -82.4124,38.9479 -82.2366,38.9148 -82.0662,38.8815 -81.9013,38.8478 -81.7419,38.814 -81.5878,38.7801 -81.4393,38.7462 -81.2961,38.7123 -81.1584,38.6786 -81.0261,38.6452 -80.8991,38.612 -80.7776,38.5793 -80.6614,38.547 -80.5505,38.5153 -80.445,38.4842 -80.1993,38.4922 -78.5455,41.7634 -78.6847,41.966 -78.7723,42.0325 -78.8636,42.103 -78.9585,42.1774 -79.0569,42.2559 -79.1589,42.3385 -79.2643,42.4252 -79.3731,42.5161 -79.4852,42.6113 -79.6006,42.7109 -79.7192,42.8148 -79.841,42.9232 -79.9658,43.036 -80.0937,43.1534 -80.2245,43.2754 -80.3583,43.4021 -80.4949,43.5335 -80.6342,43.6696 -80.7762,43.8106 -80.9209,43.9564 -81.0682,44.1071 -81.2179,44.2628 -81.3701,44.4235 -81.5246,44.5892 -81.6815,44.76 -81.8405,44.936 -82.0018,45.1172 -82.1651,45.3036 -82.3304,45.4953 -82.4976,45.6922 -82.6668,45.8946 -82.8377,46.1023 -83.0103,46.3155 -83.1846,46.5342 -83.3604,46.7584 -83.5378,46.9881 -83.7165,47.2234 -83.8966,47.4644 -84.078,47.711 -84.2606,47.9633 -84.4442,48.2213 -84.6289,48.4851 -84.8146,48.7547 -84.8179,48.9244 -83.3428,51.397 -83.1919,51.4747 -82.8665,51.4394 -82.5466,51.4022 -82.2323,51.3631 -81.9236,51.3223 -81.6204,51.2799 -81.3228,51.2359 -81.0308,51.1903 -80.7444,51.1434 -80.4636,51.0952 -80.1884,51.0457 -79.9188,50.995 -79.6548,50.9433 -79.3964,50.8906 -79.1436,50.837 -78.8964,50.7826 -78.6548,50.7274 -78.4188,50.6716 -78.1884,50.6152 -77.9635,50.5584 -77.7443,50.5011 -77.5306,50.4435 -77.3225,50.3857 -77.1199,50.3277 -76.9229,50.2697 -76.7314,50.2116 -76.5454,50.1537 -76.3649,50.0959 -76.1899,50.0384 -76.0204,49.9812 -75.8563,49.9245 -75.6977,49.8682 -75.5445,49.8125 -75.3967,49.7575 -75.2543,49.7033 -75.1172,49.6498 -74.9855,49.5973 -74.8591,49.5457 -74.7381,49.4952 -74.6222,49.4459 -74.5117,49.3977 -74.4063,49.3509 -74.3062,49.3054 -74.0618,49.2792 -71.9688,52.2884 -72.0784,52.5084 -72.1559,52.5865 -72.2365,52.6689 -72.3201,52.7558 -72.4066,52.8473 -72.4961,52.9432 -72.5884,53.0438 -72.6835,53.149 -72.7813,53.2588 -72.8817,53.3735 -72.9847,53.4929 -73.0902,53.6171 -73.1981,53.7463 -73.3084,53.8804 -73.421,54.0194 -73.5358,54.1634 -73.6528,54.3125 -73.7718,54.4668 -73.8929,54.6261 -74.0158,54.7906 -74.1407,54.9604 -74.2673,55.1354 -74.3957,55.3157 -74.5256,55.5013 -74.6572,55.6923 -74.7902,55.8887 -74.9246,56.0905 -75.0604,56.2979 -75.1974,56.5107 -75.3356,56.729 -75.475,56.9529 -75.6153,57.1825 -75.7566,57.4176 -75.8987,57.6584 -76.0417,57.9049 -76.1853,58.157 -76.3296,58.415 -76.4744,58.6786 -76.6197,58.9481 -76.7653,59.2233 -76.9113,59.5044 -77.0575,59.7914 -77.2038,60.0841 -77.1835,60.2527 -75.3786,62.4959 -75.2184,62.5519 -74.901,62.4716 -74.5895,62.3902 -74.2836,62.3078 -73.9836,62.2244 -73.6893,62.1402 -73.4007,62.0552 -73.1179,61.9695 -72.8408,61.8831 -72.5695,61.7963 -72.3038,61.709 -72.0439,61.6213 -71.7897,61.5333 -71.5411,61.4452 -71.2982,61.3569 -71.061,61.2686 -70.8294,61.1804 -70.6035,61.0923 -70.3832,61.0044 -70.1684,60.9168 -69.9593,60.8296 -69.7557,60.7428 -69.5576,60.6566 -69.3651,60.571 -69.1781,60.486 -68.9965,60.4019 -68.8204,60.3187 -68.6497,60.2363 -68.4844,60.155 -68.3245,60.0748 -68.1699,59.9958 -68.0207,59.918 -67.8767,59.8415 -67.738,59.7665 -67.6045,59.6929 -67.4763,59.6209 -67.3532,59.5506 -67.2352,59.4819 -67.1223,59.4151 -67.0145,59.3501 -66.9117,59.287 -66.8139,59.226 -66.721,59.167 -66.4827,59.107 -63.9913,61.7957 -64.0692,62.0288 -64.1351,62.1169 -64.2034,62.2097 -64.2741,62.3074 -64.3471,62.41 -64.4223,62.5175 -64.4997,62.6299 -64.5793,62.7473 -64.6608,62.8697 -64.7443,62.9972 -64.8297,63.1298 -64.9168,63.2675 -65.0058,63.4104 -65.0963,63.5586 -65.1885,63.7119 -65.2821,63.8705 -65.3772,64.0345 -65.4736,64.2037 -65.5713,64.3784 -65.6702,64.5584 -65.7702,64.7439 -65.8712,64.9348 -65.9732,65.1312 -66.0761,65.3331 -66.1797,65.5406 -66.2841,65.7536 -66.3892,65.9722 -66.4948,66.1964 -66.6008,66.4262 -66.7073,66.6616 -66.8141,66.9028 -66.9211,67.1496 -67.0283,67.4021 -67.1356,67.6603 -67.2428,67.9243 -67.35,68.194 -67.4569,68.4695 -67.5637,68.7508 -67.67,69.0378 -67.776,69.3307 -67.8814,69.6293 -67.9862,69.9338 -68.0904,70.2441 -68.0468,70.4082 -65.9473,72.3784 -65.7808,72.4115 -65.4777,72.2878 -65.1805,72.1639 -64.8892,72.0397 -64.6036,71.9154 -64.3239,71.791 -64.05,71.6667 -63.7818,71.5424 -63.5195,71.4184 -63.2628,71.2946 -63.0119,71.1712 -62.7667,71.0482 -62.5272,70.9257 -62.2933,70.8038 -62.0651,70.6826 -61.8425,70.5622 -61.6255,70.4425 -61.414,70.3238 -61.208,70.2061 -61.0076,70.0895 -60.8126,69.974 -60.6231,69.8598 -60.439,69.7468 -60.2602,69.6352 -60.0868,69.5251 -59.9187,69.4166 -59.7559,69.3096 -59.5983,69.2043 -59.446,69.1008 -59.2988,68.9991 -59.1567,68.8993 -59.0197,68.8015 -58.8878,68.7058 -58.7609,68.6122 -58.639,68.5207 -58.522,68.4316 -58.4098,68.3448 -58.3026,68.2604 -58.2001,68.1785 -58.1024,68.0991 -58.0093,68.0224 -57.921,67.9483 -57.8372,67.877 -57.6096,67.7844 -54.7682,70.1001 -54.813,70.3418 -54.8659,70.4382 -54.9206,70.5397 -54.977,70.6463 -55.0351,70.758 -55.0946,70.8749 -55.1556,70.997 -55.218,71.1243 -55.2818,71.2569 -55.3467,71.3948 -55.4128,71.538 -55.4799,71.6865 -55.5481,71.8404 -55.6172,71.9997 -55.6871,72.1643 -55.7577,72.3345 -55.829,72.51 -55.901,72.6911 -55.9734,72.8776 -56.0463,73.0697 -56.1195,73.2672 -56.193,73.4704 -56.2666,73.6791 -56.3404,73.8933 -56.4142,74.1132 -56.4879,74.3386 -56.5615,74.5697 -56.6349,74.8064 -56.708,75.0488 -56.7806,75.2968 -56.8528,75.5504 -56.9245,75.8097 -56.9955,76.0747 -57.0657,76.3453 -57.1352,76.6216 -57.2038,76.9037 -57.2713,77.1913 -57.3379,77.4847 -57.4033,77.7838 -57.4674,78.0885 -57.5303,78.399 -57.5917,78.7151 -57.6517,79.0369 -57.5856,79.1932 -55.2324,80.8521 -55.0629,80.8617 -54.78,80.6971 -54.5029,80.533 -54.2317,80.3694 -53.9662,80.2066 -53.7065,80.0445 -53.4526,79.8832 -53.2043,79.7229 -52.9618,79.5635 -52.7249,79.4052 -52.4936,79.2481 -52.2679,79.0922 -52.0478,78.9376 -51.8331,78.7843 -51.624,78.6325 -51.4203,78.4823 -51.222,78.3336 -51.0291,78.1866 -50.8416,78.0414 -50.6593,77.898 -50.4823,77.7565 -50.3105,77.617 -50.1439,77.4795 -49.9824,77.3442 -49.826,77.211 -49.6747,77.0801 -49.5283,76.9515 -49.3869,76.8253 -49.2505,76.7016 -49.1189,76.5804 -48.9921,76.4618 -48.87,76.3459 -48.7527,76.2327 -48.6401,76.1224 -48.5321,76.0149 -48.4286,75.9103 -48.3297,75.8087 -48.2352,75.7102 -48.1451,75.6148 -48.0594,75.5227 -47.9779,75.4337 -47.9007,75.3481 -47.8277,75.2658 -47.6151,75.1424 -44.4792,77.0402 -44.4898,77.2857 -44.5289,77.3886 -44.5689,77.4967 -44.6099,77.6101 -44.6518,77.7288 -44.6946,77.8529 -44.738,77.9823 -44.7821,78.117 -44.8267,78.2572 -44.8718,78.4028 -44.9173,78.5537 -44.9632,78.7102 -45.0093,78.872 -45.0555,79.0394 -45.1018,79.2122 -45.1481,79.3905 -45.1943,79.5743 -45.2403,79.7636 -45.2861,79.9584 -45.3315,80.1587 -45.3765,80.3645 -45.421,80.5759 -45.4649,80.7928 -45.5081,81.0153 -45.5506,81.2433 -45.5923,81.4768 -45.633,81.7159 -45.6727,81.9605 -45.7113,82.2106 -45.7488,82.4663 -45.785,82.7275 -45.8198,82.9943 -45.8532,83.2666 -45.8852,83.5444 -45.9155,83.8277 -45.9441,84.1165 -45.971,84.4108 -45.9961,84.7105 -46.0192,85.0158 -46.0403,85.3265 -46.0594,85.6426 -46.0762,85.9642 -46.0908,86.2912 -46.0037,86.4369 -43.4424,87.7521 -43.2733,87.738 -43.016,87.5356 -42.7645,87.3346 -42.5186,87.1349 -42.2784,86.9367 -42.0438,86.74 -41.8148,86.545 -41.5913,86.3516 -41.3733,86.1601 -41.1607,85.9704 -40.9535,85.7826 -40.7517,85.5967 -40.5552,85.413 -40.364,85.2314 -40.1781,85.0519 -39.9973,84.8748 -39.8216,84.7 -39.651,84.5276 -39.4855,84.3577 -39.325,84.1903 -39.1694,84.0256 -39.0187,83.8635 -38.8728,83.7042 -38.7318,83.5477 -38.5954,83.394 -38.4638,83.2433 -38.3367,83.0956 -38.2143,82.951 -38.0964,82.8095 -37.9829,82.6711 -37.8739,82.5361 -37.7691,82.4043 -37.6687,82.2759 -37.5725,82.1509 -37.4805,82.0295 -37.3926,81.9115 -37.3088,81.7972 -37.2289,81.6865 -37.153,81.5795 -37.0809,81.4762 -37.0127,81.3768 -36.9481,81.2813 -36.8873,81.1896 -36.694,81.0379 -33.3244,82.4807 -33.3008,82.7254 -33.3251,82.8327 -33.3497,82.9453 -33.3746,83.0633 -33.3995,83.1867 -33.4246,83.3155 -33.4496,83.4497 -33.4745,83.5893 -33.4992,83.7343 -33.5236,83.8847 -33.5476,84.0406 -33.5713,84.2018 -33.5944,84.3685 -33.6168,84.5407 -33.6386,84.7183 -33.6597,84.9013 -33.6798,85.0897 -33.6991,85.2835 -33.7173,85.4828 -33.7344,85.6875 -33.7503,85.8976 -33.765,86.1131 -33.7782,86.334 -33.7901,86.5603 -33.8004,86.792 -33.8092,87.0291 -33.8162,87.2715 -33.8215,87.5192 -33.8249,87.7723 -33.8264,88.0308 -33.8259,88.2945 -33.8233,88.5635 -33.8185,88.8378 -33.8115,89.1173 -33.8021,89.402 -33.7903,89.692 -33.7759,89.9872 -33.759,90.2876 -33.7394,90.593 -33.7171,90.9037 -33.692,91.2194 -33.6639,91.5402 -33.6328,91.866 -33.5263,91.9982 -30.8069,92.9441 -30.6414,92.9066 -30.4148,92.6704 -30.1937,92.4363 -29.978,92.2043 -29.7677,91.9746 -29.5628,91.7472 -29.3631,91.5222 -29.1687,91.2997 -28.9795,91.0796 -28.7954,90.8622 -28.6163,90.6474 -28.4424,90.4353 -28.2734,90.226 -28.1093,90.0195 -27.9501,89.8159 -27.7957,89.6153 -27.6461,89.4178 -27.5012,89.2233 -27.3609,89.032 -27.2252,88.844 -27.0941,88.6592 -26.9674,88.4777 -26.8451,88.2996 -26.7272,88.125 -26.6136,87.9539 -26.5042,87.7863 -26.399,87.6224 -26.2979,87.4621 -26.2008,87.3056 -26.1077,87.1528 -26.0185,87.0039 -25.9331,86.8588 -25.8515,86.7177 -25.7737,86.5805 -25.6995,86.4474 -25.6288,86.3184 -25.5617,86.1935 -25.498,86.0728 -25.4377,85.9562 -25.3808,85.844 -25.327,85.736 -25.2764,85.6324 -25.2289,85.5332 -25.0586,85.356 -21.521,86.3159 -21.4635,86.5549 -21.4727,86.6645 -21.4814,86.7795 -21.4896,86.8998 -21.4971,87.0254 -21.504,87.1565 -21.5101,87.2928 -21.5153,87.4345 -21.5196,87.5816 -21.5228,87.7339 -21.525,87.8916 -21.5259,88.0546 -21.5256,88.2229 -21.5239,88.3965 -21.5208,88.5754 -21.5161,88.7595 -21.5099,88.9489 -21.5019,89.1436 -21.4922,89.3434 -21.4807,89.5485 -21.4672,89.7588 -21.4517,89.9743 -21.4341,90.1949 -21.4144,90.4206 -21.3924,90.6515 -21.368,90.8874 -21.3413,91.1285 -21.312,91.3746 -21.2802,91.6257 -21.2457,91.8818 -21.2085,92.1429 -21.1685,92.4089 -21.1256,92.6798 -21.0797,92.9556 -21.0308,93.2363 -20.9787,93.5218 -20.9234,93.8122 -20.8649,94.1072 -20.803,94.407 -20.7376,94.7115 -20.6688,95.0207 -20.5963,95.3344 -20.5202,95.6528 -20.3963,95.7688 -17.5718,96.3271 -17.4131,96.2669 -17.2216,96.0015 -17.0352,95.7389 -16.8539,95.4791 -16.6776,95.2224 -16.5063,94.9687 -16.3399,94.7181 -16.1784,94.4706 -16.0216,94.2264 -15.8696,93.9854 -15.7222,93.7478 -15.5794,93.5136 -15.4412,93.2828 -15.3075,93.0555 -15.1781,92.8318 -15.0532,92.6116 -14.9325,92.3952 -14.8161,92.1825 -14.7038,91.9735 -14.5956,91.7684 -14.4914,91.5671 -14.3913,91.3698 -14.295,91.1764 -14.2025,90.9871 -14.1138,90.8018 -14.0288,90.6207 -13.9474,90.4437 -13.8696,90.2709 -13.7952,90.1024 -13.7243,89.9381 -13.6567,89.7782 -13.5923,89.6227 -13.5312,89.4716 -13.4732,89.325 -13.4182,89.1828 -13.3662,89.0452 -13.3171,88.9122 -13.2709,88.7837 -13.2274,88.66 -13.1866,88.5409 -13.1484,88.4265 -13.1127,88.3169 -13.0794,88.212 -12.9354,88.0128 -9.2987,88.471 -9.2086,88.6997 -9.2024,88.8095 -9.195,88.9246 -9.1863,89.0448 -9.1763,89.1703 -9.1649,89.301 -9.1519,89.4369 -9.1374,89.578 -9.1212,89.7242 -9.1032,89.8755 -9.0833,90.0319 -9.0616,90.1935 -9.0378,90.3601 -9.012,90.5318 -8.984,90.7085 -8.9538,90.8902 -8.9212,91.0769 -8.8863,91.2685 -8.8489,91.4651 -8.8089,91.6666 -8.7663,91.8729 -8.721,92.0841 -8.6729,92.3002 -8.6219,92.521 -8.5679,92.7465 -8.511,92.9768 -8.451,93.2118 -8.3877,93.4514 -8.3213,93.6956 -8.2515,93.9444 -8.1783,94.1978 -8.1017,94.4556 -8.0215,94.718 -7.9376,94.9847 -7.8501,95.2559 -7.7588,95.5314 -7.6637,95.8112 -7.5646,96.0952 -7.4616,96.3835 -7.3545,96.6759 -7.2433,96.9725 -7.1279,97.2731 -7.0082,97.5778 -6.8694,97.6754 -3.9946,97.8351 -3.8458,97.7535 -3.6931,97.464 -3.5451,97.178 -3.4017,96.8956 -3.2629,96.6168 -3.1286,96.3417 -2.9987,96.0704 -2.8731,95.8029 -2.7519,95.5392 -2.6349,95.2794 -2.522,95.0236 -2.4132,94.7717 -2.3085,94.524 -2.2077,94.2803 -2.1107,94.0407 -2.0176,93.8053 -1.9283,93.5742 -1.8425,93.3473 -1.7604,93.1248 -1.6819,92.9066 -1.6067,92.6928 -1.535,92.4834 -1.4665,92.2786 -1.4013,92.0782 -1.3393,91.8824 -1.2803,91.6912 -1.2243,91.5046 -1.1713,91.3226 -1.1211,91.1454 -1.0737,90.9729 -1.029,90.8051 -0.987,90.6422 -0.9475,90.484 -0.9104,90.3307 -0.8758,90.1823 -0.8434,90.0388 -0.8134,89.9003 -0.7854,89.7667 -0.7596,89.638 -0.7357,89.5144 -0.7138,89.3958 -0.6937,89.2823 -0.6754,89.1738 -0.5605,88.9566 3.1046,88.9041 3.2257,89.118 3.2471,89.2259 3.2704,89.3388 3.2957,89.4568 3.3231,89.5796 3.3526,89.7075 3.3843,89.8402 3.4184,89.9779 3.4548,90.1204 3.4937,90.2678 3.5351,90.4199 3.5791,90.5769 3.6258,90.7386 3.6753,90.905 3.7276,91.076 3.7828,91.2518 3.841,91.4321 3.9023,91.617 3.9667,91.8065 4.0343,92.0004 4.1053,92.1989 4.1795,92.4017 4.2573,92.6089 4.3385,92.8205 4.4233,93.0363 4.5117,93.2564 4.6039,93.4808 4.6998,93.7093 4.7996,93.9419 4.9033,94.1785 5.0111,94.4193 5.1229,94.6639 5.2388,94.9126 5.3589,95.1651 5.4834,95.4214 5.6121,95.6815 5.7452,95.9453 5.8829,96.2128 6.025,96.4839 6.1717,96.7586 6.3231,97.0368 6.4793,97.3185 6.6402,97.6035 6.7913,97.6809 9.6603,97.439 9.7963,97.3374 9.9072,97.0294 10.0139,96.7256 10.1166,96.426 10.2153,96.1306 10.31,95.8395 10.4009,95.5528 10.488,95.2704 10.5714,94.9924 10.6511,94.7188 10.7273,94.4498 10.7999,94.1853 10.8692,93.9253 10.9351,93.67 10.9977,93.4193 11.0572,93.1732 11.1135,92.9319 11.1668,92.6953 11.2172,92.4635 11.2646,92.2365 11.3092,92.0143 11.3512,91.797 11.3904,91.5846 11.4271,91.3771 11.4613,91.1746 11.4931,90.977 11.5226,90.7845 11.5498,90.5969 11.5748,90.4144 11.5977,90.237 11.6186,90.0646 11.6376,89.8974 11.6547,89.7353 11.67,89.5784 11.6837,89.4266 11.6957,89.28 11.7063,89.1386 11.7153,89.0024 11.723,88.8714 11.7294,88.7457 11.7346,88.6252 11.7387,88.51 11.7418,88.4 11.8253,88.1689 15.4475,87.6069 15.5971,87.8018 15.6333,87.9057 15.6721,88.0143 15.7136,88.1275 15.7578,88.2454 15.8048,88.3679 15.8547,88.4949 15.9076,88.6265 15.9635,88.7625 16.0225,88.9031 16.0847,89.048 16.1501,89.1973 16.2189,89.3509 16.291,89.5088 16.3666,89.6709 16.4458,89.8373 16.5285,90.0077 16.615,90.1823 16.7051,90.361 16.7991,90.5436 16.8969,90.7302 16.9987,90.9208 17.1045,91.1152 17.2144,91.3134 17.3284,91.5153 17.4466,91.721 17.5691,91.9303 17.6959,92.1432 17.8271,92.3597 17.9627,92.5796 18.1029,92.803 18.2477,93.0297 18.3971,93.2598 18.5512,93.4931 18.7101,93.7296 18.8738,93.9693 19.0423,94.212 19.2158,94.4577 19.3943,94.7064 19.5779,94.958 19.7665,95.2124 19.9603,95.4696 20.1593,95.7295 20.3197,95.7851 23.1271,95.1463 23.2477,95.0268 23.3146,94.7063 23.3781,94.3906 23.4381,94.0796 23.4947,93.7734 23.548,93.472 23.5981,93.1753 23.645,92.8836 23.6889,92.5967 23.7298,92.3147 23.7677,92.0377 23.8029,91.7656 23.8353,91.4986 23.865,91.2365 23.8922,90.9795 23.9168,90.7276 23.939,90.4808 23.9588,90.2391 23.9764,90.0025 23.9918,89.7711 24.0051,89.5449 24.0164,89.3239 24.0257,89.1081 24.0332,88.8975 24.0388,88.6922 24.0428,88.4921 24.0452,88.2973 24.046,88.1078 24.0454,87.9236 24.0434,87.7447 24.0401,87.5711 24.0356,87.4029 24.03,87.24 24.0234,87.0824 24.0158,86.9302 24.0073,86.7834 23.998,86.6419 23.988,86.5057 23.9774,86.375 23.9663,86.2496 23.9547,86.1295 23.9427,86.0149 23.9304,85.9056 23.981,85.665 27.4896,84.6044 27.665,84.7766 27.7153,84.8745 27.7688,84.9766 27.8257,85.0829 27.8858,85.1935 27.9494,85.3083 28.0166,85.4271 28.0872,85.5501 28.1615,85.677 28.2395,85.8079 28.3212,85.9428 28.4068,86.0815 28.4963,86.2241 28.5897,86.3704 28.6871,86.5205 28.7887,86.6742 28.8943,86.8315 29.0042,86.9923 29.1184,87.1567 29.2368,87.3245 29.3597,87.4957 29.487,87.6702 29.6188,87.848 29.7552,88.0289 29.8962,88.2131 30.0419,88.4003 30.1923,88.5905 30.3475,88.7837 30.5076,88.9798 30.6725,89.1787 30.8424,89.3804 31.0173,89.5848 31.1973,89.7918 31.3824,90.0014 31.5726,90.2135 31.7681,90.428 31.9688,90.6449 32.1748,90.8642 32.3862,91.0856 32.6029,91.3092 32.8252,91.5349 33.0529,91.7626 33.2861,91.9922 33.4527,92.025 36.1439,91.0016 36.2466,90.8665 36.2683,90.5399 36.2872,90.2184 36.3033,89.9021 36.3168,89.591 36.3276,89.285 36.3359,88.9843 36.3418,88.6889 36.3453,88.3987 36.3466,88.1138 36.3456,87.8341 36.3425,87.5598 36.3375,87.2909 36.3304,87.0272 36.3215,86.769 36.3109,86.5161 36.2985,86.2686 36.2845,86.0265 36.269,85.7898 36.2521,85.5585 36.2337,85.3326 36.2141,85.1122 36.1933,84.8972 36.1714,84.6876 36.1485,84.4835 36.1245,84.2848 36.0998,84.0916 36.0742,83.9038 36.048,83.7215 36.0211,83.5446 35.9937,83.3732 35.9658,83.2072 35.9376,83.0467 35.9091,82.8915 35.8804,82.7419 35.8516,82.5976 35.8227,82.4588 35.7939,82.3254 35.7652,82.1974 35.7367,82.0747 35.7085,81.9575 35.6806,81.8456 35.6532,81.7391 35.6698,81.4939 38.9968,79.9552 39.1944,80.1014 39.2578,80.1912 39.325,80.2849 39.3961,80.3823 39.4711,80.4835 39.5501,80.5882 39.6331,80.6966 39.7201,80.8085 39.8114,80.9239 39.9068,81.0427 40.0065,81.1649 40.1106,81.2903 40.219,81.419 40.3319,81.5509 40.4493,81.686 40.5712,81.824 40.6977,81.9651 40.8289,82.1091 40.9648,82.256 41.1055,82.4057 41.251,82.5581 41.4014,82.7132 41.5566,82.8709 41.7169,83.0311 41.8821,83.1938 42.0525,83.3589 42.2279,83.5264 42.4085,83.6961 42.5943,83.868 42.7853,84.042 42.9816,84.2181 43.1833,84.3962 43.3903,84.5761 43.6028,84.7579 43.8207,84.9415 44.0441,85.1267 44.273,85.3136 44.5075,85.502 44.7477,85.6919 44.9934,85.8831 45.2449,86.0757 45.5021,86.2695 45.765,86.4644 45.9345,86.4737 48.4571,85.0857 48.54,84.9376 48.5161,84.6112 48.49,84.2902 48.462,83.9747 48.432,83.6648 48.4001,83.3603 48.3665,83.0614 48.3312,82.768 48.2943,82.4801 48.2559,82.1978 48.216,81.921 48.1748,81.6498 48.1324,81.3842 48.0887,81.1241 48.044,80.8696 47.9982,80.6206 47.9515,80.3772 47.904,80.1394 47.8557,79.9072 47.8067,79.6805 47.7571,79.4594 47.707,79.2438 47.6565,79.0338 47.6056,78.8293 47.5545,78.6304 47.5032,78.437 47.4517,78.2491 47.4003,78.0667 47.3489,77.8898 47.2977,77.7184 47.2467,77.5524 47.196,77.3919 47.1457,77.2369 47.0959,77.0873 47.0467,76.9431 46.998,76.8042 46.9501,76.6708 46.903,76.5427 46.8568,76.4199 46.8115,76.3024 46.7672,76.1902 46.7241,76.0833 46.6821,75.9816 46.6645,75.7365 49.7449,73.7498 49.9609,73.867 50.0362,73.9472 50.1158,74.0306 50.1998,74.1172 50.2881,74.2069 50.3809,74.2996 50.4781,74.3954 50.58,74.4941 50.6864,74.5957 50.7974,74.7 50.9132,74.8071 51.0337,74.9169 51.159,75.0293 51.2891,75.1442 51.4241,75.2615 51.5641,75.3813 51.709,75.5034 51.859,75.6278 52.014,75.7543 52.1741,75.8829 52.3394,76.0136 52.5099,76.1463 52.6856,76.2808 52.8666,76.4172 53.0529,76.5553 53.2445,76.6951 53.4415,76.8365 53.644,76.9794 53.8519,77.1238 54.0653,77.2696 54.2842,77.4166 54.5087,77.5649 54.7388,77.7143 54.9744,77.8647 55.2158,78.0162 55.4628,78.1685 55.7155,78.3217 55.974,78.4757 56.2382,78.6303 56.5082,78.7854 56.784,78.9411 57.0657,79.0973 57.3532,79.2537 57.5223,79.2393 59.8271,77.5138 59.8887,77.3556 59.8195,77.0356 59.7491,76.7214 59.6774,76.4129 59.6045,76.1101 59.5306,75.8131 59.4557,75.5217 59.3799,75.2361 59.3033,74.9561 59.226,74.6819 59.148,74.4134 59.0695,74.1506 58.9904,73.8934 58.911,73.6419 58.8313,73.3961 58.7513,73.156 58.6712,72.9215 58.591,72.6926 58.5109,72.4693 58.4308,72.2517 58.351,72.0396 58.2713,71.8331 58.1921,71.6322 58.1132,71.4367 58.0349,71.2469 57.9572,71.0625 57.8801,70.8836 57.8038,70.7101 57.7283,70.5421 57.6537,70.3795 57.5801,70.2222 57.5076,70.0704 57.4362,69.9238 57.3661,69.7826 57.2972,69.6466 57.2297,69.5159 57.1637,69.3904 57.0992,69.2701 57.0363,69.155 56.9752,69.0449 56.9157,68.94 56.8581,68.8401 56.8024,68.7453 56.7508,68.505 59.5247,66.1089 59.755,66.195 59.8407,66.2638 59.9312,66.3354 60.0264,66.4094 60.1263,66.486 60.2311,66.5649 60.3407,66.6462 60.4553,66.7298 60.5748,66.8155 60.6993,66.9034 60.8288,66.9934 60.9634,67.0853 61.1031,67.1791 61.248,67.2748 61.3981,67.3723 61.5533,67.4714 61.7138,67.5721 61.8796,67.6744 62.0508,67.7781 62.2272,67.8832 62.4091,67.9896 62.5964,68.0973 62.7891,68.206 62.9873,68.3159 63.191,68.4268 63.4002,68.5385 63.615,68.6511 63.8354,68.7645 64.0614,68.8785 64.293,68.9931 64.5302,69.1083 64.7732,69.2239 65.0218,69.3398 65.2761,69.456 65.5362,69.5724 65.802,69.6889 66.0736,69.8054 66.3509,69.9219 66.6341,70.0382 66.9231,70.1543 67.2179,70.2701 67.5185,70.3855 67.825,70.5004 67.9905,70.4625 70.0327,68.4331 70.0716,68.2679 69.9587,67.9607 69.8451,67.6593 69.7312,67.3638 69.6169,67.0741 69.5024,66.7902 69.3877,66.5121 69.2729,66.2398 69.1581,65.9732 69.0433,65.7124 68.9287,65.4574 68.8144,65.208 68.7003,64.9644 68.5867,64.7264 68.4735,64.4941 68.3609,64.2674 68.2489,64.0463 68.1377,63.8308 68.0272,63.6209 67.9177,63.4165 67.8091,63.2176 67.7015,63.0242 67.595,62.8363 67.4898,62.6537 67.3858,62.4766 67.2831,62.3048 67.1819,62.1384 67.0822,61.9772 66.9841,61.8213 66.8876,61.6707 66.7928,61.5252 66.6998,61.3849 66.6088,61.2497 66.5196,61.1196 66.4325,60.9946 66.3475,60.8745 66.2647,60.7595 66.1841,60.6493 66.1058,60.544 66.0299,60.4436 65.9564,60.348 65.8855,60.2571 65.8171,60.1709 65.7326,59.9401 68.146,57.1813 68.386,57.2345 68.4805,57.2908 68.58,57.349 68.6846,57.4091 68.7942,57.471 68.909,57.5346 69.0289,57.5998 69.1539,57.6666 69.2842,57.7349 69.4197,57.8046 69.5605,57.8757 69.7066,57.948 69.858,58.0214 70.0148,58.096 70.1769,58.1716 70.3445,58.2482 70.5175,58.3256 70.6959,58.4038 70.8798,58.4827 71.0692,58.5622 71.2641,58.6423 71.4645,58.7228 71.6705,58.8037 71.8821,58.8849 72.0992,58.9663 72.322,59.0479 72.5503,59.1295 72.7843,59.2111 73.024,59.2926 73.2693,59.3739 73.5202,59.4549 73.7769,59.5355 74.0392,59.6157 74.3073,59.6954 74.581,59.7744 74.8604,59.8528 75.1456,59.9304 75.4365,60.0071 75.733,60.0829 76.0354,60.1577 76.3434,60.2313 76.6572,60.3037 76.9767,60.3749 77.1353,60.3144 78.8752,58.0204 78.8908,57.8514 78.7361,57.5629 78.5818,57.2803 78.4278,57.0035 78.2743,56.7325 78.1214,56.4673 77.9691,56.2079 77.8175,55.9542 77.6667,55.7062 77.5168,55.464 77.3678,55.2273 77.2199,54.9963 77.073,54.7709 76.9274,54.5511 76.783,54.3368 76.6399,54.128 76.4983,53.9246 76.3581,53.7267 76.2195,53.5342 76.0826,53.347 75.9473,53.1652 75.8139,52.9886 75.6823,52.8173 75.5527,52.6512 75.425,52.4903 75.2995,52.3345 75.1761,52.1837 75.0549,52.038 74.936,51.8973 74.8195,51.7616 74.7054,51.6307 74.5939,51.5047 74.4849,51.3835 74.3785,51.2671 74.2748,51.1554 74.1739,51.0483 74.0759,50.9459 73.9807,50.848 73.8885,50.7547 73.7994,50.6658 73.7133,50.5813 73.6305,50.5012 73.5508,50.4253 73.4349,50.2086 75.4409,47.1407 75.686,47.16 75.7874,47.2026 75.894,47.2464 76.0059,47.2913 76.1231,47.3373 76.2456,47.3844 76.3734,47.4323 76.5066,47.481 76.6451,47.5305 76.789,47.5807 76.9383,47.6315 77.093,47.6827 77.2532,47.7344 77.4188,47.7865 77.5899,47.8388 77.7665,47.8913 77.9485,47.9438 78.1361,47.9964 78.3292,48.049 78.5278,48.1014 78.732,48.1535 78.9417,48.2054 79.1569,48.2568 79.3777,48.3078 79.6041,48.3582 79.836,48.408 80.0735,48.457 80.3166,48.5052 80.5652,48.5526 80.8195,48.5989 81.0793,48.6442 81.3446,48.6883 81.6156,48.7313 81.8921,48.7729 82.1742,48.8131 82.4618,48.8518 82.755,48.8889 83.0537,48.9244 83.3579,48.9582 83.6677,48.9901 83.983,49.0202 84.3038,49.0482 84.6301,49.0742 84.7787,48.9922 86.1825,46.4785 86.1744,46.3089 85.9811,46.0448 85.7889,45.7864 85.5979,45.5337 85.4082,45.2867 85.2199,45.0454 85.0329,44.8097 84.8475,44.5796 84.6637,44.355 84.4815,44.1359 84.301,43.9223 84.1224,43.7142 83.9456,43.5114 83.7708,43.314 83.5979,43.1219 83.4272,42.935 83.2586,42.7533 83.0923,42.5769 82.9283,42.4055 82.7666,42.2392 82.6074,42.078 82.4507,41.9217 82.2965,41.7704 82.145,41.6239 81.9962,41.4823 81.8502,41.3455 81.7071,41.2134 81.5668,41.086 81.4295,40.9632 81.2952,40.845 81.164,40.7312 81.036,40.622 80.9112,40.5172 80.7896,40.4167 80.6714,40.3205 80.5566,40.2285 80.4453,40.1407 80.3374,40.0571 80.2332,39.9774 80.1325,39.9018 80.0355,39.8301 79.9423,39.7623 79.8528,39.6983 79.7079,39.4998 81.2675,36.1826 81.5128,36.1676 81.6192,36.1956 81.7309,36.2242 81.8479,36.2531 81.9704,36.2824 82.0982,36.3119 82.2315,36.3415 82.3701,36.3713 82.5142,36.401 82.6636,36.4307 82.8186,36.4602 82.9789,36.4894 83.1447,36.5183 83.316,36.5468 83.4927,36.5748 83.6748,36.6022 83.8624,36.6289 84.0555,36.6549 84.254,36.6801 84.458,36.7043 84.6674,36.7275 84.8823,36.7497 85.1026,36.7707 85.3284,36.7904 85.5595,36.8089 85.7961,36.8259 86.0382,36.8414 86.2856,36.8553 86.5384,36.8675 86.7966,36.8781 87.0602,36.8868 87.3291,36.8935 87.6034,36.8983 87.883,36.901 88.1679,36.9016 88.4581,36.8999 88.7536,36.8959 89.0544,36.8894 89.3604,36.8805 89.6716,36.8691 89.988,36.8549 90.3096,36.8381 90.6363,36.8184 90.7721,36.7165 91.8123,34.0319 91.7807,33.8651 91.5525,33.6304 91.3262,33.4013 91.102,33.1776 90.8797,32.9595 90.6596,32.7467 90.4417,32.5393 90.2261,32.3372 90.0128,32.1404 89.8019,31.9489 89.5934,31.7625 89.3875,31.5812 89.1843,31.405 88.9837,31.2338 88.7858,31.0676 88.5907,30.9063 88.3985,30.7499 88.2092,30.5983 88.0229,30.4514 87.8397,30.3093 87.6596,30.1717 87.4826,30.0388 87.3089,29.9104 87.1385,29.7865 86.9715,29.6669 86.8079,29.5518 86.6477,29.4409 86.491,29.3342 86.338,29.2317 86.1886,29.1333 86.0428,29.039 85.9008,28.9486 85.7627,28.8622 85.6283,28.7796 85.4979,28.7008 85.3714,28.6257 85.2489,28.5543 85.1305,28.4864 85.0161,28.4221 84.9059,28.3612 84.7999,28.3037 84.6981,28.2495 84.6007,28.1986 84.4295,28.0222 85.5122,24.5202 85.7531,24.4712 85.8623,24.4842 85.9769,24.4969 86.0969,24.5093 86.2222,24.5212 86.3529,24.5326 86.4889,24.5435 86.6304,24.5536 86.7772,24.563 86.9293,24.5716 87.0869,24.5792 87.2497,24.5859 87.4179,24.5914 87.5915,24.5958 87.7704,24.5989 87.9546,24.6007 88.1441,24.601 88.3389,24.5999 88.5389,24.5972 88.7443,24.5928 88.9549,24.5867 89.1708,24.5787 89.3919,24.5688 89.6182,24.557 89.8497,24.543 90.0863,24.527 90.3282,24.5086 90.5751,24.488 90.8272,24.4649 91.0843,24.4394 91.3466,24.4113 91.6138,24.3806 91.8861,24.3472 92.1633,24.311 92.4456,24.2718 92.7327,24.2298 93.0248,24.1847 93.3217,24.1365 93.6235,24.0851 93.9301,24.0304 94.2415,23.9724 94.5576,23.9109 94.8784,23.846 94.9986,23.7262 95.6552,20.9228 95.6006,20.7621 95.342,20.5615 95.086,20.3661 94.8328,20.1758 94.5824,19.9907 94.3348,19.8106 94.0901,19.6356 93.8485,19.4655 93.6099,19.3003 93.3743,19.1399 93.142,18.9844 92.9129,18.8335 92.6871,18.6873 92.4646,18.5457 92.2455,18.4087 92.0299,18.2761 91.8178,18.1479 91.6092,18.0242 91.4043,17.9046 91.2031,17.7894 91.0056,17.6783 90.8119,17.5712 90.622,17.4683 90.436,17.3692 90.2539,17.2741 90.0759,17.1829 89.9018,17.0953 89.7319,17.0115 89.566,16.9313 89.4044,16.8547 89.2469,16.7816 89.0937,16.7118 88.9449,16.6455 88.8003,16.5824 88.6602,16.5225 88.5245,16.4657 88.3932,16.412 88.2665,16.3613 88.1443,16.3135 88.0267,16.2686 87.9138,16.2264 87.8054,16.1869 87.7018,16.15 87.5078,15.9991 88.0926,12.3806 88.3243,12.2985 88.4342,12.2962 88.5495,12.2928 88.67,12.2884 88.7958,12.2827 88.9268,12.2759 89.063,12.2677 89.2045,12.2581 89.3512,12.2469 89.5031,12.2342 89.6601,12.2199 89.8223,12.2038 89.9896,12.1859 90.1621,12.166 90.3397,12.1442 90.5223,12.1204 90.71,12.0944 90.9028,12.0661 91.1006,12.0356 91.3033,12.0027 91.511,11.9673 91.7237,11.9293 91.9412,11.8888 92.1637,11.8456 92.391,11.7995 92.6231,11.7507 92.86,11.6989 93.1017,11.644 93.3481,11.5861 93.5992,11.5251 93.855,11.4608 94.1154,11.3932 94.3803,11.3222 94.6499,11.2477 94.9239,11.1697 95.2024,11.0881 95.4853,11.0028 95.7727,10.9137 96.0644,10.8208 96.3604,10.724 96.6606,10.6232 96.9651,10.5183 97.2738,10.4094 97.3762,10.274 97.6361,7.4066 97.5597,7.255 97.2757,7.0923 96.995,6.9344 96.7178,6.7813 96.4441,6.6328 96.1738,6.489 95.9072,6.3497 95.6442,6.2149 95.3849,6.0845 95.1294,5.9585 94.8777,5.8367 94.6298,5.7192 94.3858,5.6059 94.1458,5.4966 93.9098,5.3914 93.6778,5.2902 93.4499,5.1928 93.2262,5.0992 93.0066,5.0094 92.7913,4.9232 92.5803,4.8407 92.3735,4.7617 92.1712,4.6861 91.9732,4.614 91.7797,4.5451 91.5906,4.4795 91.4061,4.4171 91.2261,4.3577 91.0508,4.3014 90.88,4.248 90.7139,4.1975 90.5525,4.1497 90.3959,4.1047 90.2439,4.0624 90.0968,4.0226 89.9546,3.9852 89.8171,3.9503 89.6846,3.9178 89.5569,3.8874 89.4342,3.8593 89.3165,3.8332 89.2037,3.8092 89.096,3.7871 88.8828,3.6647 "/><g class="guides"><polyline fill="none" stroke="#444" stroke-width="0.5" stroke-miterlimit="10" points="10,0 -10,0"/><polyline fill="none" stroke="#444" stroke-width="0.5" stroke-miterlimit="10" points="0,10 0,-10"/></g><circle fill="#c00" class="firstmarker" stroke="none" stroke-miterlimit="10" cx="93.6365" cy="-4.6115" r="1.6354"/><g class="geartext"><g class="text"><polyline fill="none" stroke="#444" stroke-width="0.5" stroke-linecap="square" stroke-miterlimit="1"  points="62.8 -51.88 62.32 -52.46 61.83 -53.03 61.34 -53.6 60.84 -54.16 "/><polyline fill="none" stroke="#444" stroke-width="0.5" stroke-linecap="square" stroke-miterlimit="1"  points="60.69 -52.06 62.97 -54.01 "/><polyline fill="none" stroke="#444" stroke-width="0.5" stroke-linecap="square" stroke-miterlimit="1"  points="63.95 -52.84 62.89 -52.94 61.83 -53.03 60.77 -53.11 59.72 -53.16 "/><polyline fill="none" stroke="#444" stroke-width="0.5" stroke-linecap="square" stroke-miterlimit="1"  points="61.64 -50.93 61.74 -51.98 61.83 -53.03 61.9 -54.09 61.96 -55.16 "/><polyline fill="none" stroke="#444" stroke-width="0.5" stroke-linecap="square" stroke-miterlimit="1"  points="63.92 -48.04 62.88 -48.17 62.43 -48.75 62.57 -49.79 64.92 -51.65 65.98 -51.52 66.45 -50.91 66.32 -49.84 63.92 -48.04 "/><polyline fill="none" stroke="#444" stroke-width="0.5" stroke-linecap="square" stroke-miterlimit="1"  points="71.66 -43.27 67.81 -40.94 68.38 -42.16 68.95 -43.38 69.49 -44.62 70.02 -45.88 66.25 -43.41 "/><polyline fill="none" stroke="#444" stroke-width="0.5" stroke-linecap="square" stroke-miterlimit="1"  points="72.61 -38.54 72.26 -39.21 71.89 -39.87 71.52 -40.53 71.14 -41.19 "/><polyline fill="none" stroke="#444" stroke-width="0.5" stroke-linecap="square" stroke-miterlimit="1"  points="71.29 -37.84 70.94 -38.49 70.58 -39.15 70.22 -39.79 69.85 -40.44 "/><polyline fill="none" stroke="#444" stroke-width="0.5" stroke-linecap="square" stroke-miterlimit="1"  points="73.27 -33.85 72.95 -34.52 72.63 -35.19 72.31 -35.86 71.97 -36.52 73.2 -36.3 74.43 -36.06 75.67 -35.8 71.6 -33.88 "/><polyline fill="none" stroke="#444" stroke-width="0.5" stroke-linecap="square" stroke-miterlimit="1"  points="77.81 -30.85 77.53 -31.57 77.23 -32.28 76.93 -32.99 76.63 -33.7 75.25 -33.09 75.55 -32.4 75.85 -31.7 76.14 -31 75.72 -30.02 74.33 -29.47 73.36 -29.87 73.08 -30.55 72.8 -31.22 73.19 -32.19 "/><polyline fill="none" stroke="#444" stroke-width="0.5" stroke-linecap="square" stroke-miterlimit="1"  points="77.5 -25.09 77.73 -24.37 77.95 -23.65 78.16 -22.94 79.09 -22.42 79.81 -22.62 80.32 -23.57 80.1 -24.31 79.87 -25.04 79.64 -25.78 75.36 -24.39 "/><polyline fill="none" stroke="#444" stroke-width="0.5" stroke-linecap="square" stroke-miterlimit="1"  points="76.59 -20.19 79.49 -20.96 "/><polyline fill="none" stroke="#444" stroke-width="0.5" stroke-linecap="square" stroke-miterlimit="1"  points="80.22 -21.15 80.94 -21.34 "/><polyline fill="none" stroke="#444" stroke-width="0.5" stroke-linecap="square" stroke-miterlimit="1"  points="78.32 -16.09 77.44 -16.65 78.01 -17.53 81.67 -18.35 "/><polyline fill="none" stroke="#444" stroke-width="0.5" stroke-linecap="square" stroke-miterlimit="1"  points="80.53 -16.54 80.37 -17.28 80.21 -18.02 80.04 -18.76 79.86 -19.49 "/><polyline fill="none" stroke="#444" stroke-width="0.5" stroke-linecap="square" stroke-miterlimit="1"  points="78.35 -11.63 78.24 -12.35 78.12 -13.07 78 -13.79 78.61 -14.64 80.08 -14.92 80.95 -14.31 81.08 -13.56 81.2 -12.81 81.32 -12.07 "/><polyline fill="none" stroke="#444" stroke-width="0.5" stroke-linecap="square" stroke-miterlimit="1"  points="80.04 -10.37 80.88 -9.73 81.71 -9.06 81.79 -8.31 81.11 -7.49 78.87 -7.28 "/><polyline fill="none" stroke="#444" stroke-width="0.5" stroke-linecap="square" stroke-miterlimit="1"  points="78.55 -10.18 83.01 -10.76 "/><polyline fill="none" stroke="#444" stroke-width="0.5" stroke-linecap="square" stroke-miterlimit="1"  points="79.18 -2.19 79.19 -1.46 79.2 -0.73 79.21 0 79.95 0.74 82.95 0.76 83.71 0 83.7 -0.77 83.69 -1.54 83.68 -2.31 "/><polyline fill="none" stroke="#444" stroke-width="0.5" stroke-linecap="square" stroke-miterlimit="1"  points="83.69 -1.54 79.19 -1.46 "/><polyline fill="none" stroke="#444" stroke-width="0.5" stroke-linecap="square" stroke-miterlimit="1"  points="82.04 5.29 82.08 4.54 82.12 3.78 82.15 3.03 82.18 2.27 "/><polyline fill="none" stroke="#444" stroke-width="0.5" stroke-linecap="square" stroke-miterlimit="1"  points="80.54 5.2 80.59 4.46 80.62 3.71 80.65 2.97 80.68 2.23 "/><polyline fill="none" stroke="#444" stroke-width="0.5" stroke-linecap="square" stroke-miterlimit="1"  points="83.42 6.93 83.35 7.7 83.28 8.46 83.2 9.23 83.11 10 80.96 8.98 78.8 8.01 "/><polyline fill="none" stroke="#444" stroke-width="0.5" stroke-linecap="square" stroke-miterlimit="1"  points="79.2 11.01 78.45 10.9 "/><polyline fill="none" stroke="#444" stroke-width="0.5" stroke-linecap="square" stroke-miterlimit="1"  points="82.15 16.08 82.29 15.33 82.43 14.57 82.56 13.81 82.69 13.05 81.2 12.81 81.08 13.56 80.95 14.31 80.82 15.05 79.94 15.65 78.47 15.36 77.87 14.5 78 13.79 78.12 13.07 78.98 12.46 "/><polyline fill="none" stroke="#444" stroke-width="0.5" stroke-linecap="square" stroke-miterlimit="1"  points="78.77 20.77 78.57 21.49 78.37 22.21 78.16 22.94 78.67 23.87 79.38 24.09 80.32 23.57 80.54 22.83 80.74 22.09 80.94 21.34 76.59 20.19 "/><polyline fill="none" stroke="#444" stroke-width="0.5" stroke-linecap="square" stroke-miterlimit="1"  points="77.23 28.18 77.48 27.47 77.73 26.75 77.98 26.04 78.21 25.32 "/><polyline fill="none" stroke="#444" stroke-width="0.5" stroke-linecap="square" stroke-miterlimit="1"  points="75.82 27.67 76.07 26.97 76.32 26.26 76.55 25.56 76.79 24.85 "/><polyline fill="none" stroke="#444" stroke-width="0.5" stroke-linecap="square" stroke-miterlimit="1"  points="76 29.33 75.72 30.02 75.44 30.72 75.16 31.41 74.18 31.81 73.49 31.51 73.08 30.55 73.36 29.87 73.63 29.2 74.6 28.79 76.7 29.6 77.12 30.58 77.53 31.57 77.23 32.28 "/><polyline fill="none" stroke="#444" stroke-width="0.5" stroke-linecap="square" stroke-miterlimit="1"  points="72.64 36.86 72.3 37.53 71.95 38.19 71.6 38.85 71.89 39.87 72.55 40.24 73.57 39.93 73.94 39.25 74.3 38.56 74.65 37.88 70.64 35.84 "/><polyline fill="none" stroke="#444" stroke-width="0.5" stroke-linecap="square" stroke-miterlimit="1"  points="68.55 39.69 69.85 40.44 70.76 41.84 71.66 43.27 69.98 43.14 68.31 42.98 67.04 42.18 "/><polyline fill="none" stroke="#444" stroke-width="0.5" stroke-linecap="square" stroke-miterlimit="1"  points="69.85 40.44 69.47 41.08 69.09 41.72 68.7 42.35 68.31 42.98 "/><polyline fill="none" stroke="#444" stroke-width="0.5" stroke-linecap="square" stroke-miterlimit="1"  points="67.06 47.56 67.49 46.94 67.92 46.31 68.34 45.69 68.76 45.06 "/><polyline fill="none" stroke="#444" stroke-width="0.5" stroke-linecap="square" stroke-miterlimit="1"  points="65.83 46.69 66.26 46.08 66.68 45.47 67.1 44.85 67.51 44.23 "/><polyline fill="none" stroke="#444" stroke-width="0.5" stroke-linecap="square" stroke-miterlimit="1"  points="61.98 49.32 62.43 48.75 62.88 48.17 63.32 47.59 63.75 47 64.96 47.89 65.12 48.94 64.66 49.54 64.21 50.13 64.33 51.19 64.92 51.65 65.98 51.52 66.45 50.91 66.92 50.29 66.77 49.23 "/><polyline fill="none" stroke="#444" stroke-width="0.5" stroke-linecap="square" stroke-miterlimit="1"  points="60.21 52.61 60.12 51.57 60.59 51.01 61.64 50.93 63.95 52.84 64.04 53.91 63.54 54.5 62.47 54.59 60.21 52.61 "/></g></g><g class="guides gearguides" opacity="0.2"><circle class="pitch" fill="none" stroke="#f00" stroke-miterlimit="10" cx="0" cy="0" r="93.75"/><circle class="outer" fill="none" stroke="#ccc" stroke-miterlimit="10" stroke-dasharray="2,2" cx="0" cy="0" r="97.92"/><circle class="base" fill="none" stroke="#00f" stroke-miterlimit="10" stroke-dasharray="2,2" cx="0" cy="0" r="88.1"/></g></svg>