<?xml version="1.0" encoding="utf-8"?><!-- Generator: Iparigrafika Gear Generator by Abel Vincze http://geargenerator.com/ --><svg version="1.2" class="svggear" xmlns="http://www.w3.org/2000/svg" xmlns:xlink="http://www.w3.org/1999/xlink" x="0px" y="0px" width="284px" height="284px" viewBox="-142 -142 284 284" overflow="scroll" xml:space="preserve"><polygon id="gearpoly1" data-id="1" class="gear" fill="#ddd" stroke="#444" stroke-width="1" stroke-miterlimit="10" points="105.8333,0 117.4795,-0.0002 117.5589,-0.0026 117.7019,-0.0103 117.908,-0.026 118.177,-0.0528 118.5084,-0.0936 118.9018,-0.1514 119.3564,-0.2289 119.8715,-0.3292 120.4463,-0.455 121.0798,-0.6092 121.7709,-0.7945 122.5187,-1.0137 123.3217,-1.2696 124.1787,-1.5649 125.0883,-1.902 126.0488,-2.2838 127.0588,-2.7126 128.1165,-3.1911 129.2201,-3.7215 130.3677,-4.3064 131.5574,-4.948 132.7871,-5.6487 134.0548,-6.4105 135.358,-7.2356 136.6947,-8.126 138.0624,-9.0839 139.4587,-10.1109 140.881,-11.2091 141.1338,-12.2763 140.1205,-20.8729 139.6266,-21.8521 137.9879,-22.5895 136.3911,-23.2638 134.8382,-23.8774 133.3312,-24.4327 131.8718,-24.9322 130.4618,-25.3784 129.1029,-25.7739 127.7966,-26.1213 126.5444,-26.4234 125.3477,-26.6827 124.2078,-26.9021 123.1258,-27.0844 122.1028,-27.2324 121.1398,-27.3489 120.2376,-27.4367 119.3971,-27.4989 118.6189,-27.5383 117.9035,-27.5579 117.2515,-27.5605 116.6633,-27.5493 116.139,-27.527 115.6788,-27.4967 115.2828,-27.4615 114.951,-27.4241 114.6831,-27.3876 114.4789,-27.355 114.3382,-27.3292 114.2603,-27.3131 102.9333,-24.6056 96.6836,-43.0463 107.3227,-47.7834 107.3944,-47.8179 107.5218,-47.883 107.7037,-47.9813 107.9386,-48.1152 108.2248,-48.2873 108.5606,-48.5 108.9444,-48.7558 109.3742,-49.0569 109.8481,-49.4056 110.3641,-49.8041 110.9201,-50.2545 111.5141,-50.7589 112.1436,-51.3193 112.8064,-51.9376 113.5002,-52.6156 114.2224,-53.355 114.9707,-54.1576 115.7423,-55.0249 116.5347,-55.9583 117.3453,-56.9594 118.1711,-58.0295 119.0096,-59.1697 119.8577,-60.3812 120.7128,-61.6651 121.5717,-63.0223 122.4315,-64.4536 123.2894,-65.9598 124.1421,-67.5415 123.9389,-68.6192 119.5167,-76.0605 118.6672,-76.7541 116.8703,-76.7613 115.1373,-76.7278 113.4691,-76.6567 111.8664,-76.551 110.33,-76.4137 108.8604,-76.2479 107.4581,-76.0565 106.1235,-75.8426 104.8567,-75.6092 103.658,-75.3594 102.5274,-75.0962 101.4648,-74.8226 100.47,-74.5417 99.5429,-74.2564 98.683,-73.9698 97.8898,-73.6847 97.1629,-73.4042 96.5014,-73.1311 95.9047,-72.8683 95.3719,-72.6187 94.902,-72.3851 94.4939,-72.1703 94.1465,-71.977 93.8585,-71.8079 93.6287,-71.6657 93.4554,-71.5528 93.3373,-71.472 93.2728,-71.4256 84.0262,-64.3451 70.8163,-78.6495 78.609,-87.3044 78.6603,-87.3651 78.7503,-87.4764 78.8765,-87.6401 79.0366,-87.858 79.228,-88.1316 79.4483,-88.4625 79.6949,-88.8523 79.965,-89.3021 80.2562,-89.8135 80.5655,-90.3874 80.8902,-91.0251 81.2276,-91.7274 81.5748,-92.4954 81.9289,-93.3299 82.2869,-94.2314 82.6459,-95.2007 83.0031,-96.2382 83.3552,-97.3443 83.6995,-98.5194 84.0327,-99.7637 84.352,-101.0771 84.6542,-102.4598 84.9362,-103.9115 85.1951,-105.4322 85.4278,-107.0214 85.6312,-108.6787 85.8022,-110.4035 85.9378,-112.1954 85.3138,-113.0973 78.2474,-118.0965 77.1892,-118.3847 75.5447,-117.6603 73.9751,-116.9249 72.4801,-116.1814 71.0589,-115.433 69.7112,-114.6827 68.4362,-113.9334 67.2329,-113.1882 66.1007,-112.4499 65.0383,-111.7215 64.0449,-111.0057 63.119,-110.3054 62.2596,-109.6233 61.4651,-108.9621 60.7342,-108.3243 60.0652,-107.7127 59.4566,-107.1297 58.9065,-106.5777 58.4134,-106.0592 57.9751,-105.5765 57.5899,-105.1318 57.2556,-104.7272 56.9702,-104.365 56.7314,-104.0471 56.5371,-103.7755 56.385,-103.5521 56.2726,-103.3785 56.1976,-103.2566 56.1575,-103.188 50.5902,-92.9587 32.7043,-100.6535 36.303,-111.7297 36.3252,-111.806 36.3621,-111.9443 36.4108,-112.1452 36.4685,-112.4093 36.5321,-112.7372 36.5987,-113.1291 36.6654,-113.5854 36.7292,-114.1063 36.7872,-114.6918 36.8364,-115.3419 36.8737,-116.0566 36.8962,-116.8354 36.901,-117.6782 36.8851,-118.5845 36.8455,-119.5538 36.7792,-120.5853 36.6835,-121.6784 36.5553,-122.8321 36.3918,-124.0456 36.1902,-125.3178 35.9476,-126.6476 35.6613,-128.0336 35.3285,-129.4746 34.9465,-130.9691 34.5127,-132.5155 34.0244,-134.1122 33.479,-135.7575 32.8742,-137.4496 31.9373,-138.0198 23.4483,-139.7126 22.3644,-139.5455 21.1568,-138.2149 20.022,-136.9046 18.9586,-135.6173 17.9647,-134.3556 17.0387,-133.1219 16.1786,-131.9189 15.3826,-130.7487 14.6485,-129.6137 13.9743,-128.5162 13.3578,-127.4582 12.7969,-126.4418 12.2891,-125.4691 11.8323,-124.5419 11.4239,-123.662 11.0616,-122.8312 10.7427,-122.051 10.4647,-121.3231 10.2251,-120.6488 10.0211,-120.0295 9.85,-119.4666 9.7092,-118.961 9.5958,-118.514 9.5069,-118.1265 9.4399,-117.7994 9.3918,-117.5333 9.3598,-117.3291 9.3408,-117.1873 9.3321,-117.1082 8.4068,-105.4989 -11.0626,-105.2536 -12.2802,-116.8359 -12.2909,-116.9147 -12.3134,-117.056 -12.3506,-117.2594 -12.4054,-117.5241 -12.4806,-117.8494 -12.5792,-118.2346 -12.7038,-118.6786 -12.8574,-119.1804 -13.0426,-119.7389 -13.2621,-120.3528 -13.5187,-121.0208 -13.8149,-121.7415 -14.1533,-122.5134 -14.5365,-123.3349 -14.9669,-124.2042 -15.447,-125.1196 -15.979,-126.0792 -16.5654,-127.0811 -17.2083,-128.1232 -17.91,-129.2034 -18.6724,-130.3195 -19.4978,-131.4693 -20.3879,-132.6503 -21.3447,-133.8602 -22.37,-135.0965 -23.4656,-136.3566 -24.633,-137.6378 -25.8738,-138.9376 -26.9615,-139.0774 -35.4051,-137.1711 -36.3273,-136.5776 -36.8894,-134.8708 -37.3931,-133.2122 -37.841,-131.6037 -38.2357,-130.0468 -38.5799,-128.5432 -38.8763,-127.0943 -39.1276,-125.7015 -39.3366,-124.3661 -39.5061,-123.0892 -39.639,-121.8719 -39.738,-120.7153 -39.8062,-119.6202 -39.8464,-118.5873 -39.8616,-117.6174 -39.8547,-116.711 -39.8287,-115.8686 -39.7865,-115.0905 -39.7312,-114.3771 -39.6657,-113.7284 -39.593,-113.1445 -39.516,-112.6254 -39.4378,-112.1709 -39.3614,-111.7808 -39.2895,-111.4546 -39.2253,-111.1921 -39.1715,-110.9924 -39.1311,-110.8551 -39.1069,-110.7794 -35.2303,-99.7974 -52.9167,-91.6544 -58.7399,-101.7401 -58.7818,-101.8077 -58.8598,-101.9277 -58.9765,-102.0983 -59.1342,-102.3179 -59.3353,-102.5845 -59.582,-102.8963 -59.8765,-103.2512 -60.2208,-103.6472 -60.6172,-104.082 -61.0674,-104.5536 -61.5735,-105.0595 -62.1373,-105.5974 -62.7604,-106.1649 -63.4446,-106.7595 -64.1913,-107.3786 -65.0022,-108.0196 -65.8786,-108.6798 -66.8218,-109.3566 -67.833,-110.0471 -68.9133,-110.7485 -70.0638,-111.458 -71.2855,-112.1727 -72.579,-112.8896 -73.9452,-113.6057 -75.3847,-114.3181 -76.8981,-115.0236 -78.4857,-115.7193 -80.1479,-116.402 -81.1985,-116.0873 -88.1367,-110.9115 -88.7378,-109.9942 -88.557,-108.2063 -88.3426,-106.4863 -88.0975,-104.8347 -87.8249,-103.2518 -87.5278,-101.7382 -87.2092,-100.294 -86.8723,-98.9194 -86.52,-97.6144 -86.1555,-96.379 -85.7818,-95.2129 -85.4018,-94.116 -85.0187,-93.0878 -84.6353,-92.1279 -84.2547,-91.2357 -83.8797,-90.4104 -83.5133,-89.6514 -83.1583,-88.9578 -82.8176,-88.3285 -82.4939,-87.7625 -82.19,-87.2587 -81.9086,-86.8158 -81.6523,-86.4324 -81.4237,-86.1071 -81.2254,-85.8384 -81.0599,-85.6247 -80.9296,-85.4642 -80.8369,-85.3552 -80.784,-85.2958 -72.7757,-76.84 -85.621,-62.2073 -95.043,-69.0525 -95.1087,-69.0973 -95.2288,-69.1751 -95.4048,-69.2835 -95.6382,-69.42 -95.9304,-69.5818 -96.2825,-69.7662 -96.6959,-69.9707 -97.1716,-70.1924 -97.7105,-70.4284 -98.3136,-70.6761 -98.9818,-70.9324 -99.7155,-71.1945 -100.5156,-71.4595 -101.3825,-71.7244 -102.3165,-71.9863 -103.318,-72.242 -104.3872,-72.4887 -105.5241,-72.7234 -106.7287,-72.9429 -108.001,-73.1443 -109.3406,-73.3245 -110.7473,-73.4805 -112.2205,-73.6092 -113.7599,-73.7078 -115.3647,-73.773 -117.0342,-73.802 -118.7675,-73.7918 -120.5637,-73.7394 -121.3954,-73.0246 -125.6287,-65.4743 -125.8047,-64.3918 -124.9123,-62.832 -124.0168,-61.3479 -123.1212,-59.9387 -122.2283,-58.6036 -121.3412,-57.3417 -120.4628,-56.152 -119.5959,-55.0332 -118.7433,-53.9843 -117.9078,-53.004 -117.0921,-52.0908 -116.2989,-51.2432 -115.5307,-50.4598 -114.79,-49.7387 -114.0794,-49.0785 -113.4012,-48.4771 -112.7577,-47.9327 -112.1513,-47.4434 -111.5841,-47.0072 -111.0582,-46.6218 -110.5756,-46.2851 -110.1384,-45.995 -109.7483,-45.749 -109.4072,-45.5447 -109.1168,-45.3799 -108.8786,-45.252 -108.6943,-45.1584 -108.5652,-45.0965 -108.4928,-45.0638 -97.7376,-40.5963 -103.5206,-22.004 -114.9123,-24.4252 -114.9905,-24.4393 -115.1319,-24.4616 -115.3368,-24.489 -115.6055,-24.5187 -115.9382,-24.5477 -116.335,-24.573 -116.7957,-24.5917 -117.3204,-24.6007 -117.9088,-24.5971 -118.5605,-24.5781 -119.2751,-24.5405 -120.0521,-24.4815 -120.8908,-24.3981 -121.7905,-24.2875 -122.7502,-24.1468 -123.7692,-23.9732 -124.8463,-23.7637 -125.9803,-23.5156 -127.1701,-23.2262 -128.4142,-22.8927 -129.7113,-22.5124 -131.0599,-22.0828 -132.4581,-21.6012 -133.9045,-21.0651 -135.3971,-20.472 -136.9341,-19.8194 -138.5134,-19.1051 -140.133,-18.3267 -140.602,-17.3353 -141.3983,-8.7159 -141.1188,-7.6554 -139.6692,-6.5935 -138.2475,-5.6019 -136.8561,-4.6789 -135.4974,-3.8224 -134.1737,-3.0303 -132.8873,-2.3007 -131.6403,-1.6313 -130.4348,-1.0199 -129.2728,-0.4641 -128.1562,0.0384 -127.0868,0.49 -126.0663,0.8933 -125.0965,1.2507 -124.1787,1.5649 -123.3145,1.8384 -122.5053,2.074 -121.7523,2.2743 -121.0567,2.4422 -120.4195,2.5803 -119.8417,2.6916 -119.3242,2.7788 -118.8678,2.8449 -118.4732,2.8927 -118.1408,2.9252 -117.8712,2.9452 -117.6647,2.9557 -117.5217,2.9598 -117.4422,2.9602 -105.7997,2.6669 -103.5206,22.004 -114.9122,24.4256 -114.9894,24.4445 -115.1277,24.4816 -115.326,24.5399 -115.5836,24.622 -115.8993,24.7309 -116.272,24.8691 -116.7005,25.0395 -117.1836,25.2447 -117.7196,25.4872 -118.3072,25.7697 -118.9448,26.0947 -119.6306,26.4646 -120.3629,26.8819 -121.1398,27.3489 -121.9593,27.8678 -122.8195,28.4409 -123.7183,29.0704 -124.6534,29.7582 -125.6226,30.5066 -126.6235,31.3173 -127.6538,32.1922 -128.711,33.1332 -129.7925,34.1419 -130.8958,35.22 -132.0181,36.3689 -133.1568,37.5902 -134.309,38.8851 -135.472,40.255 -135.4973,41.3514 -132.7189,49.5495 -132.0322,50.4046 -130.276,50.7851 -128.5739,51.1127 -126.9273,51.39 -125.3377,51.6199 -123.8063,51.805 -122.3344,51.9483 -120.923,52.0527 -119.573,52.1209 -118.2854,52.156 -117.0609,52.1609 -115.9003,52.1385 -114.804,52.0919 -113.7726,52.0239 -112.8064,51.9376 -111.9057,51.836 -111.0706,51.7221 -110.3012,51.5988 -109.5974,51.4692 -108.9592,51.3362 -108.3861,51.2029 -107.8779,51.0721 -107.434,50.9469 -107.054,50.83 -106.7372,50.7245 -106.4828,50.6331 -106.2899,50.5588 -106.1576,50.5042 -106.0847,50.4723 -95.5681,45.469 -85.621,62.2073 -95.0428,69.0529 -95.1056,69.1016 -95.2168,69.1917 -95.3743,69.3256 -95.5761,69.5054 -95.8203,69.7333 -96.1046,70.0112 -96.4268,70.3411 -96.7846,70.725 -97.1756,71.1646 -97.5975,71.6617 -98.0478,72.2179 -98.5238,72.8348 -99.0231,73.5138 -99.5429,74.2564 -100.0805,75.0638 -100.6333,75.9373 -101.1983,76.8779 -101.7728,77.8866 -102.3538,78.9645 -102.9385,80.1122 -103.5238,81.3306 -104.1069,82.6202 -104.6846,83.9816 -105.254,85.4152 -105.812,86.9212 -106.3555,88.5001 -106.8814,90.1517 -107.3866,91.8761 -106.9638,92.8881 -101.0911,99.2473 -100.116,99.7492 -98.3568,99.3825 -96.6686,98.9895 -95.0517,98.5731 -93.506,98.1365 -92.0317,97.6828 -90.6288,97.215 -89.2969,96.7363 -88.0359,96.2495 -86.8453,95.7579 -85.7247,95.2643 -84.6735,94.7718 -83.691,94.2833 -82.7764,93.8017 -81.9289,93.3299 -81.1473,92.8707 -80.4308,92.4269 -79.7781,92.0014 -79.1878,91.5968 -78.6588,91.2157 -78.1895,90.8608 -77.7784,90.5346 -77.4239,90.2396 -77.1243,89.9783 -76.8778,89.753 -76.6825,89.5661 -76.5365,89.4197 -76.4378,89.3161 -76.3843,89.2573 -68.8119,80.409 -52.9167,91.6544 -58.7396,101.7403 -58.7772,101.8104 -58.842,101.9379 -58.9315,102.1243 -59.0428,102.3707 -59.1731,102.6781 -59.3198,103.0476 -59.4799,103.4801 -59.6507,103.9763 -59.8291,104.537 -60.0123,105.1627 -60.1974,105.854 -60.3814,106.6112 -60.5613,107.4345 -60.7342,108.3243 -60.8969,109.2806 -61.0466,110.3034 -61.1802,111.3925 -61.2947,112.5477 -61.3871,113.7687 -61.4544,115.055 -61.4936,116.4061 -61.5017,117.8214 -61.4758,119.3001 -61.4128,120.8413 -61.31,122.4441 -61.1643,124.1075 -60.973,125.8302 -60.7332,127.6111 -59.9353,128.3636 -51.9838,131.7844 -50.8889,131.8463 -49.4309,130.7958 -48.0486,129.7501 -46.7407,128.712 -45.5063,127.6845 -44.344,126.6704 -43.2526,125.6724 -42.2306,124.6933 -41.2766,123.7357 -40.3889,122.8024 -39.5659,121.8957 -38.8059,121.0182 -38.1071,120.1723 -37.4675,119.3603 -36.8851,118.5845 -36.3579,117.8472 -35.8838,117.1504 -35.4605,116.4961 -35.0859,115.8864 -34.7576,115.3231 -34.4733,114.808 -34.2304,114.3428 -34.0265,113.9292 -33.8591,113.5686 -33.7255,113.2625 -33.6232,113.0123 -33.5493,112.8192 -33.5013,112.6844 -33.4763,112.6089 -30.1575,101.4456 -11.0626,105.2536 -12.2797,116.8359 -12.2856,116.9152 -12.293,117.0581 -12.2989,117.2648 -12.3003,117.5351 -12.2944,117.869 -12.2781,118.2662 -12.2485,118.7265 -12.2026,119.2492 -12.1376,119.834 -12.0505,120.4801 -11.9384,121.1869 -11.7985,121.9535 -11.628,122.7788 -11.4239,123.662 -11.1837,124.6018 -10.9044,125.597 -10.5835,126.6463 -10.2182,127.7482 -9.806,128.9012 -9.3443,130.1037 -8.8306,131.354 -8.2623,132.6502 -7.6372,133.9905 -6.9528,135.3729 -6.207,136.7953 -5.3973,138.2556 -4.5218,139.7516 -3.5784,141.281 -2.5434,141.6438 6.112,141.5348 7.1374,141.1459 8.042,139.5933 8.8796,138.0757 9.6521,136.5954 10.3619,135.1547 11.0112,133.7555 11.6024,132.3998 12.1378,131.0897 12.6199,129.8269 13.0511,128.6132 13.4341,127.4502 13.7715,126.3394 14.0659,125.2824 14.32,124.2804 14.5365,123.3349 14.7182,122.4468 14.8679,121.6174 14.9884,120.8476 15.0826,120.1382 15.1534,119.4901 15.2037,118.9039 15.2364,118.3801 15.2544,117.9193 15.2607,117.5218 15.2582,117.1878 15.25,116.9176 15.2389,116.7112 15.2279,116.5685 15.22,116.4894 13.7114,104.9414 32.7043,100.6535 36.3033,111.7295 36.3302,111.8044 36.3816,111.9379 36.4603,112.1291 36.5689,112.3767 36.7102,112.6793 36.8866,113.0355 37.1009,113.4439 37.3554,113.9028 37.6527,114.4106 37.995,114.9655 38.3849,115.5655 38.8245,116.2089 39.316,116.8936 39.8616,117.6174 40.4633,118.3782 41.1232,119.1738 41.8432,120.0019 42.6251,120.8599 43.4706,121.7456 44.3815,122.6563 45.3594,123.5895 46.4057,124.5425 47.5219,125.5127 48.7094,126.4972 49.9693,127.4933 51.3029,128.4981 52.7112,129.5086 54.1951,130.522 55.2882,130.4326 63.1509,126.8125 63.9296,126.0402 64.1245,124.2538 64.2723,122.5268 64.376,120.8603 64.4384,119.2554 64.4625,117.713 64.4512,116.2342 64.4074,114.8195 64.3342,113.4698 64.2345,112.1856 64.1114,110.9674 63.9678,109.8154 63.8068,108.73 63.6314,107.7114 63.4446,106.7595 63.2494,105.8743 63.0488,105.0557 62.8458,104.3034 62.6433,103.6171 62.4444,102.9962 62.2518,102.4402 62.0687,101.9484 61.8977,101.5201 61.7417,101.1544 61.6037,100.8503 61.4862,100.6069 61.3921,100.4228 61.3241,100.2969 61.2847,100.2278 55.2095,90.2918 70.8163,78.6495 78.6093,87.3041 78.6643,87.3615 78.7655,87.4627 78.9152,87.6053 79.1151,87.7873 79.3672,88.0063 79.6733,88.2599 80.0351,88.5459 80.4543,88.8616 80.9324,89.2046 81.4709,89.5722 82.0711,89.9618 82.7343,90.3708 83.4618,90.7963 84.2547,91.2357 85.1139,91.686 86.0403,92.1444 87.0348,92.608 88.0981,93.0739 89.2308,93.539 90.4333,94.0005 91.7062,94.4553 93.0497,94.9004 94.464,95.3327 95.9493,95.7491 97.5054,96.1466 99.1324,96.5221 100.83,96.8725 102.5978,97.1947 103.56,96.6684 109.2705,90.1632 109.6677,89.1409 109.1192,87.4297 108.5518,85.7919 107.9687,84.2273 107.373,82.7357 106.7676,81.3169 106.1558,79.9705 105.5404,78.696 104.9245,77.4928 104.3111,76.3601 103.7031,75.2973 103.1034,74.3033 102.5149,73.3773 101.9403,72.518 101.3825,71.7244 100.8441,70.9952 100.3279,70.3289 99.8365,69.7243 99.3724,69.1796 98.9381,68.6933 98.5361,68.2637 98.1687,67.8889 97.8383,67.5672 97.5471,67.2965 97.2973,67.0749 97.0909,66.9002 96.9301,66.7704 96.8167,66.683 96.7527,66.6359 87.1614,60.0299 96.6836,43.0463 107.3229,47.783 107.3965,47.8131 107.5302,47.8643 107.7249,47.9337 107.9815,48.0187 108.3009,48.1162 108.6837,48.2234 109.1306,48.3375 109.6419,48.4554 110.2182,48.5743 110.8596,48.6911 111.5664,48.8029 112.3387,48.9067 113.1764,48.9996 114.0794,49.0785 115.0474,49.1404 116.0802,49.1823 117.1773,49.2014 118.3382,49.1945 119.5621,49.1588 120.8484,49.0912 122.1962,48.989 123.6046,48.8491 125.0725,48.6687 126.5987,48.4451 128.182,48.1752 129.821,47.8565 131.5143,47.4862 133.2604,47.0615 133.9253,46.1893 136.4963,37.9238 136.4433,36.8284 135.2462,35.4883 134.0617,34.2228 132.8927,33.0306 131.7417,31.9103 130.6117,30.8604 129.5051,29.8793 128.4245,28.9652 127.3725,28.1165 126.3514,27.3313 125.3637,26.6076 124.4115,25.9435 123.4972,25.3369 122.6228,24.7857 121.7905,24.2875 121.002,23.8403 120.2595,23.4416 119.5646,23.0891 118.919,22.7803 118.3245,22.5127 117.7825,22.2837 117.2945,22.0908 116.8618,21.9313 116.4857,21.8025 116.1673,21.7016 115.9078,21.626 115.708,21.5727 115.5689,21.5391 115.4912,21.5221 104.0422,19.3884 "/><g class="guides"><polyline fill="none" stroke="#444" stroke-width="0.5" stroke-miterlimit="10" points="10,0 -10,0"/><polyline fill="none" stroke="#444" stroke-width="0.5" stroke-miterlimit="10" points="0,10 0,-10"/></g><circle fill="#c00" class="firstmarker" stroke="none" stroke-miterlimit="10" cx="124.1407" cy="-14.6315" r="6.5417"/><g class="geartext"><g class="text"><polyline fill="none" stroke="#444" stroke-width="0.5" stroke-linecap="square" stroke-miterlimit="1"  points="-53.54 -60.3 -55.39 -58.6 -57.2 -56.84 -58.95 -55.02 -60.64 -53.15 "/><polyline fill="none" stroke="#444" stroke-width="0.5" stroke-linecap="square" stroke-miterlimit="1"  points="-53.62 -53.28 -60.77 -60.39 "/><polyline fill="none" stroke="#444" stroke-width="0.5" stroke-linecap="square" stroke-miterlimit="1"  points="-56.88 -64.07 -57.13 -60.43 -57.2 -56.84 -57.1 -53.3 -56.85 -49.83 "/><polyline fill="none" stroke="#444" stroke-width="0.5" stroke-linecap="square" stroke-miterlimit="1"  points="-50.19 -56.53 -53.66 -56.76 -57.2 -56.84 -60.79 -56.74 -64.43 -56.47 "/><polyline fill="none" stroke="#444" stroke-width="0.5" stroke-linecap="square" stroke-miterlimit="1"  points="-52.77 -67.49 -52.13 -71.14 -43.19 -58.95 "/><polyline fill="none" stroke="#444" stroke-width="0.5" stroke-linecap="square" stroke-miterlimit="1"  points="-41.33 -60.27 -43.19 -58.95 -45.01 -57.57 "/><polyline fill="none" stroke="#444" stroke-width="0.5" stroke-linecap="square" stroke-miterlimit="1"  points="-22.45 -85.29 -18.6 -70.67 -21.87 -73.68 -25.35 -76.55 -29.03 -79.27 -32.9 -81.83 -27.26 -67.8 "/><polyline fill="none" stroke="#444" stroke-width="0.5" stroke-linecap="square" stroke-miterlimit="1"  points="-5.8 -82.95 -8.39 -82.73 -10.97 -82.43 -13.54 -82.04 -16.1 -81.58 "/><polyline fill="none" stroke="#444" stroke-width="0.5" stroke-linecap="square" stroke-miterlimit="1"  points="-5.45 -77.92 -7.88 -77.72 -10.31 -77.43 -12.72 -77.07 -15.12 -76.64 "/><polyline fill="none" stroke="#444" stroke-width="0.5" stroke-linecap="square" stroke-miterlimit="1"  points="-0.63 -85.67 2.11 -88.17 1.75 -73.05 "/><polyline fill="none" stroke="#444" stroke-width="0.5" stroke-linecap="square" stroke-miterlimit="1"  points="4.03 -72.96 1.75 -73.05 -0.54 -73.07 "/><polyline fill="none" stroke="#444" stroke-width="0.5" stroke-linecap="square" stroke-miterlimit="1"  points="21.19 -85.61 18.51 -86.23 15.8 -86.77 13.09 -87.22 10.35 -87.58 9.76 -82.58 12.34 -82.23 14.9 -81.81 17.45 -81.3 19.38 -78.27 18.17 -73.38 15.33 -71.45 13.09 -71.89 10.84 -72.27 8.87 -75.07 "/><polyline fill="none" stroke="#444" stroke-width="0.5" stroke-linecap="square" stroke-miterlimit="1"  points="35.9 -72.2 38.14 -71.05 40.34 -69.82 42.5 -68.52 46.02 -69.26 47.41 -71.36 46.49 -74.95 44.12 -76.36 41.71 -77.71 39.27 -78.97 32.53 -65.43 "/><polyline fill="none" stroke="#444" stroke-width="0.5" stroke-linecap="square" stroke-miterlimit="1"  points="44.16 -58.22 50.25 -66.25 "/><polyline fill="none" stroke="#444" stroke-width="0.5" stroke-linecap="square" stroke-miterlimit="1"  points="51.78 -68.26 53.3 -70.27 "/><polyline fill="none" stroke="#444" stroke-width="0.5" stroke-linecap="square" stroke-miterlimit="1"  points="56.11 -50.66 52.68 -50.64 52.84 -54.06 61.64 -63.07 "/><polyline fill="none" stroke="#444" stroke-width="0.5" stroke-linecap="square" stroke-miterlimit="1"  points="61.72 -55.72 59.95 -57.63 58.12 -59.47 56.23 -61.26 54.29 -62.98 "/><polyline fill="none" stroke="#444" stroke-width="0.5" stroke-linecap="square" stroke-miterlimit="1"  points="62.42 -38 61.2 -39.93 59.92 -41.83 58.59 -43.68 59.17 -47.05 63.11 -50.19 66.67 -49.7 68.19 -47.59 69.64 -45.44 71.03 -43.24 "/><polyline fill="none" stroke="#444" stroke-width="0.5" stroke-linecap="square" stroke-miterlimit="1"  points="69.13 -36.37 72.5 -35.3 75.86 -34.05 76.89 -31.66 75.48 -28.36 68.41 -25.7 "/><polyline fill="none" stroke="#444" stroke-width="0.5" stroke-linecap="square" stroke-miterlimit="1"  points="64.67 -34.03 78.05 -41.07 "/><polyline fill="none" stroke="#444" stroke-width="0.5" stroke-linecap="square" stroke-miterlimit="1"  points="72.35 -10.24 72.64 -7.98 72.85 -5.7 73 -3.42 75.59 -1.18 85.66 -1.34 88.1 -4.13 87.93 -6.88 87.67 -9.63 87.32 -12.36 "/><polyline fill="none" stroke="#444" stroke-width="0.5" stroke-linecap="square" stroke-miterlimit="1"  points="87.67 -9.63 72.64 -7.98 "/><polyline fill="none" stroke="#444" stroke-width="0.5" stroke-linecap="square" stroke-miterlimit="1"  points="81.93 14.22 82.33 11.66 82.66 9.08 82.9 6.49 83.06 3.9 "/><polyline fill="none" stroke="#444" stroke-width="0.5" stroke-linecap="square" stroke-miterlimit="1"  points="76.96 13.36 77.34 10.95 77.65 8.53 77.88 6.1 78.03 3.66 "/><polyline fill="none" stroke="#444" stroke-width="0.5" stroke-linecap="square" stroke-miterlimit="1"  points="68.41 25.7 69.18 23.55 69.88 21.38 70.51 19.18 71.08 16.97 75.98 18.14 77.81 21.17 77.11 23.59 76.33 25.99 77.84 29.24 80.2 30.13 83.49 28.42 84.34 25.8 85.1 23.15 83.33 19.9 "/><polyline fill="none" stroke="#444" stroke-width="0.5" stroke-linecap="square" stroke-miterlimit="1"  points="68.97 30.95 66.67 29.92 "/><polyline fill="none" stroke="#444" stroke-width="0.5" stroke-linecap="square" stroke-miterlimit="1"  points="72.32 50.48 73.86 48.19 75.33 45.86 76.73 43.49 78.05 41.07 73.59 38.72 72.34 41 71.03 43.24 69.64 45.44 66.12 46.15 61.99 43.27 61.2 39.93 62.42 38 63.57 36.03 66.9 35.2 "/><polyline fill="none" stroke="#444" stroke-width="0.5" stroke-linecap="square" stroke-miterlimit="1"  points="54.53 59.4 52.65 61.08 50.71 62.69 48.73 64.24 48.16 67.79 49.62 69.84 53.3 70.27 55.47 68.57 57.58 66.8 59.64 64.97 49.42 53.83 "/><polyline fill="none" stroke="#444" stroke-width="0.5" stroke-linecap="square" stroke-miterlimit="1"  points="34.68 75.58 37.02 74.46 39.33 73.27 41.6 72 43.83 70.67 "/><polyline fill="none" stroke="#444" stroke-width="0.5" stroke-linecap="square" stroke-miterlimit="1"  points="32.58 71 34.78 69.95 36.95 68.83 39.08 67.64 41.17 66.38 "/><polyline fill="none" stroke="#444" stroke-width="0.5" stroke-linecap="square" stroke-miterlimit="1"  points="28.98 75.25 26.62 76.11 24.23 76.91 21.81 77.63 18.77 75.83 18.17 73.38 19.77 70.35 21.96 69.7 24.12 68.98 27.17 70.54 29.89 77.6 28.28 80.87 26.5 84.12 23.86 84.91 "/><polyline fill="none" stroke="#444" stroke-width="0.5" stroke-linecap="square" stroke-miterlimit="1"  points="1.93 80.61 -0.59 80.63 -3.11 80.57 -5.63 80.44 -8.39 82.73 -8.65 85.24 -6.15 87.98 -3.4 88.13 -0.65 88.19 2.11 88.17 1.75 73.05 "/><polyline fill="none" stroke="#444" stroke-width="0.5" stroke-linecap="square" stroke-miterlimit="1"  points="-11.9 72.1 -12.72 77.07 -16.1 81.58 -19.77 85.95 -21.16 80.42 -22.23 74.88 -20.8 70.05 "/><polyline fill="none" stroke="#444" stroke-width="0.5" stroke-linecap="square" stroke-miterlimit="1"  points="-12.72 77.07 -15.12 76.64 -17.51 76.13 -19.88 75.54 -22.23 74.88 "/><polyline fill="none" stroke="#444" stroke-width="0.5" stroke-linecap="square" stroke-miterlimit="1"  points="-38.11 73.91 -35.78 75.06 -33.42 76.14 -31.02 77.15 -28.6 78.08 "/><polyline fill="none" stroke="#444" stroke-width="0.5" stroke-linecap="square" stroke-miterlimit="1"  points="-35.8 69.43 -33.61 70.51 -31.39 71.53 -29.14 72.48 -26.86 73.35 "/><polyline fill="none" stroke="#444" stroke-width="0.5" stroke-linecap="square" stroke-miterlimit="1"  points="-45.01 57.57 -43.19 58.95 -41.33 60.27 -39.42 61.53 -37.48 62.73 -40.07 67.06 -43.5 67.89 -45.6 66.5 -47.66 65.04 -51.22 65.51 -52.77 67.49 -52.13 71.14 -49.88 72.74 -47.58 74.26 -43.94 73.55 "/><polyline fill="none" stroke="#444" stroke-width="0.5" stroke-linecap="square" stroke-miterlimit="1"  points="-55.26 51.58 -51.84 51.51 -50.2 53.1 -50.19 56.53 -56.88 64.07 -60.59 64.09 -62.56 62.16 -62.63 58.46 -55.26 51.58 "/></g></g><g class="guides gearguides" opacity="0.2"><circle class="pitch" fill="none" stroke="#f00" stroke-miterlimit="10" cx="0" cy="0" r="125"/><circle class="outer" fill="none" stroke="#ccc" stroke-miterlimit="10" stroke-dasharray="2,2" cx="0" cy="0" r="141.67"/><circle class="base" fill="none" stroke="#00f" stroke-miterlimit="10" stroke-dasharray="2,2" cx="0" cy="0" r="117.46"/></g></svg>